<ttFont>
    <TTGlyph name="A" xMin="20" yMin="0" xMax="1306" yMax="1456">
      <contour>
        <pt x="969" y="375" on="1"/>
        <pt x="359" y="375" on="1"/>
        <pt x="221" y="0" on="1"/>
        <pt x="20" y="0" on="1"/>
        <pt x="583" y="1456" on="1"/>
        <pt x="752" y="1456" on="1"/>
        <pt x="1306" y="0" on="1"/>
        <pt x="1105" y="0" on="1"/>
      </contour>
      <contour>
        <pt x="420" y="540" on="1"/>
        <pt x="910" y="540" on="1"/>
        <pt x="670" y="1203" on="1"/>
        <pt x="664" y="1203" on="1"/>
      </contour>
    </TTGlyph>
    <TTGlyph name="A.smcp" xMin="39" yMin="0" xMax="1162" yMax="1165">
      <contour>
        <pt x="855" y="268" on="1"/>
        <pt x="346" y="268" on="1"/>
        <pt x="243" y="0" on="1"/>
        <pt x="39" y="0" on="1"/>
        <pt x="508" y="1165" on="1"/>
        <pt x="694" y="1165" on="1"/>
        <pt x="1162" y="0" on="1"/>
        <pt x="959" y="0" on="1"/>
      </contour>
      <contour>
        <pt x="405" y="422" on="1"/>
        <pt x="796" y="422" on="1"/>
        <pt x="603" y="920" on="1"/>
        <pt x="597" y="920" on="1"/>
      </contour>
    </TTGlyph>
    <TTGlyph name="AE" xMin="-20" yMin="0" xMax="1889" yMax="1456">
      <contour>
        <pt x="1889" y="0" on="1"/>
        <pt x="994" y="0" on="1"/>
        <pt x="979" y="350" on="1"/>
        <pt x="422" y="350" on="1"/>
        <pt x="220" y="0" on="1"/>
        <pt x="-20" y="0" on="1"/>
        <pt x="860" y="1456" on="1"/>
        <pt x="1827" y="1456" on="1"/>
        <pt x="1827" y="1301" on="1"/>
        <pt x="1136" y="1301" on="1"/>
        <pt x="1156" y="835" on="1"/>
        <pt x="1746" y="835" on="1"/>
        <pt x="1746" y="680" on="1"/>
        <pt x="1162" y="680" on="1"/>
        <pt x="1184" y="154" on="1"/>
        <pt x="1889" y="154" on="1"/>
      </contour>
      <contour>
        <pt x="525" y="529" on="1"/>
        <pt x="972" y="529" on="1"/>
        <pt x="941" y="1239" on="1"/>
        <pt x="936" y="1241" on="1"/>
      </contour>
    </TTGlyph>
    <TTGlyph name="AEacute" xMin="-20" yMin="0" xMax="1889" yMax="1822">
      <component glyphName="AE" x="0" y="0" flags="0x204"/>
      <component glyphName="acute" x="714" y="345" flags="0x4"/>
    </TTGlyph>
    <TTGlyph name="Aacute" xMin="20" yMin="0" xMax="1306" yMax="1822">
      <component glyphName="A" x="0" y="0" flags="0x204"/>
      <component glyphName="acute" x="482" y="345" flags="0x4"/>
    </TTGlyph>
    <TTGlyph name="Aacute.smcp" xMin="39" yMin="0" xMax="1162" yMax="1499">
      <component glyphName="A.smcp" x="0" y="0" flags="0x204"/>
      <component glyphName="acute" x="376" y="22" flags="0x4"/>
    </TTGlyph>
    <TTGlyph name="Abreve" xMin="20" yMin="0" xMax="1306" yMax="1870">
      <component glyphName="A" x="0" y="0" flags="0x204"/>
      <component glyphName="breve" x="235" y="414" flags="0x4"/>
    </TTGlyph>
    <TTGlyph name="Abreve.smcp" xMin="39" yMin="0" xMax="1162" yMax="1547">
      <component glyphName="A.smcp" x="0" y="0" flags="0x204"/>
      <component glyphName="breve" x="169" y="91" flags="0x4"/>
    </TTGlyph>
    <TTGlyph name="Acircumflex" xMin="20" yMin="0" xMax="1306" yMax="1864">
      <component glyphName="A" x="0" y="0" flags="0x204"/>
      <component glyphName="circumflex" x="185" y="349" flags="0x4"/>
    </TTGlyph>
    <TTGlyph name="Acircumflex.smcp" xMin="39" yMin="0" xMax="1162" yMax="1541">
      <component glyphName="A.smcp" x="0" y="0" flags="0x204"/>
      <component glyphName="circumflex" x="120" y="26" flags="0x4"/>
    </TTGlyph>
    <TTGlyph name="Adieresis" xMin="20" yMin="0" xMax="1306" yMax="1805">
      <component glyphName="A" x="0" y="0" flags="0x204"/>
      <component glyphName="dieresis" x="149" y="349" flags="0x4"/>
    </TTGlyph>
    <TTGlyph name="Adieresis.smcp" xMin="39" yMin="0" xMax="1162" yMax="1482">
      <component glyphName="A.smcp" x="0" y="0" flags="0x204"/>
      <component glyphName="dieresis" x="83" y="26" flags="0x4"/>
    </TTGlyph>
    <TTGlyph name="Agrave" xMin="20" yMin="0" xMax="1306" yMax="1826">
      <component glyphName="A" x="0" y="0" flags="0x204"/>
      <component glyphName="grave" x="296" y="349" flags="0x4"/>
    </TTGlyph>
    <TTGlyph name="Agrave.smcp" xMin="39" yMin="0" xMax="1162" yMax="1503">
      <component glyphName="A.smcp" x="0" y="0" flags="0x204"/>
      <component glyphName="grave" x="190" y="26" flags="0x4"/>
    </TTGlyph>
    <TTGlyph name="Alpha" xMin="20" yMin="0" xMax="1306" yMax="1456">
      <component glyphName="A" x="0" y="0" flags="0x204"/>
    </TTGlyph>
    <TTGlyph name="Alphatonos" xMin="20" yMin="0" xMax="1306" yMax="1650">
      <component glyphName="A" x="0" y="0" flags="0x204"/>
      <component glyphName="tonos" x="46" y="0" flags="0x4"/>
    </TTGlyph>
    <TTGlyph name="Amacron" xMin="20" yMin="0" xMax="1306" yMax="1786">
      <component glyphName="A" x="0" y="0" flags="0x204"/>
      <component glyphName="macron" x="180" y="330" flags="0x4"/>
    </TTGlyph>
    <TTGlyph name="Amacron.smcp" xMin="39" yMin="0" xMax="1162" yMax="1463">
      <component glyphName="A.smcp" x="0" y="0" flags="0x204"/>
      <component glyphName="macron" x="119" y="7" flags="0x4"/>
    </TTGlyph>
    <TTGlyph name="Aogonek" xMin="20" yMin="-432" xMax="1361" yMax="1456">
      <component glyphName="A" x="0" y="0" flags="0x204"/>
      <component glyphName="ogonek" x="894" y="0" flags="0x4"/>
    </TTGlyph>
    <TTGlyph name="Aogonek.smcp" xMin="39" yMin="-432" xMax="1213" yMax="1165">
      <component glyphName="A.smcp" x="0" y="0" flags="0x204"/>
      <component glyphName="ogonek" x="746" y="0" flags="0x4"/>
    </TTGlyph>
    <TTGlyph name="Aring" xMin="20" yMin="0" xMax="1306" yMax="1932">
      <component glyphName="A" x="0" y="0" flags="0x204"/>
      <component glyphName="ring" x="324" y="426" flags="0x4"/>
    </TTGlyph>
    <TTGlyph name="Aring.smcp" xMin="39" yMin="0" xMax="1162" yMax="1609">
      <component glyphName="A.smcp" x="0" y="0" flags="0x204"/>
      <component glyphName="ring" x="255" y="103" flags="0x4"/>
    </TTGlyph>
    <TTGlyph name="Aringacute" xMin="20" yMin="0" xMax="1306" yMax="2085">
      <component glyphName="A" x="0" y="0" flags="0x204"/>
      <component glyphName="ringacute" x="332" y="435" flags="0x4"/>
    </TTGlyph>
    <TTGlyph name="Aringacute.smcp" xMin="39" yMin="0" xMax="1162" yMax="1762">
      <component glyphName="A.smcp" x="0" y="0" flags="0x204"/>
      <component glyphName="ringacute" x="270" y="112" flags="0x4"/>
    </TTGlyph>
    <TTGlyph name="Atilde" xMin="20" yMin="0" xMax="1306" yMax="1876">
      <component glyphName="A" x="0" y="0" flags="0x204"/>
      <component glyphName="tilde" x="181" y="353" flags="0x4"/>
    </TTGlyph>
    <TTGlyph name="Atilde.smcp" xMin="39" yMin="0" xMax="1162" yMax="1553">
      <component glyphName="A.smcp" x="0" y="0" flags="0x204"/>
      <component glyphName="tilde" x="115" y="30" flags="0x4"/>
    </TTGlyph>
    <TTGlyph name="B" xMin="180" yMin="0" xMax="1199" yMax="1456">
      <contour>
        <pt x="180" y="0" on="1"/>
        <pt x="180" y="1456" on="1"/>
        <pt x="655" y="1456" on="1"/>
        <pt x="883" y="1456" on="0"/>
        <pt x="1141" y="1259" on="0"/>
        <pt x="1141" y="1062" on="1"/>
        <pt x="1141" y="965" on="0"/>
        <pt x="1017" y="812" on="0"/>
        <pt x="916" y="775" on="1"/>
        <pt x="1048" y="747" on="0"/>
        <pt x="1199" y="545" on="0"/>
        <pt x="1199" y="411" on="1"/>
        <pt x="1199" y="211" on="0"/>
        <pt x="940" y="0" on="0"/>
        <pt x="718" y="0" on="1"/>
      </contour>
      <contour>
        <pt x="377" y="683" on="1"/>
        <pt x="377" y="154" on="1"/>
        <pt x="718" y="154" on="1"/>
        <pt x="852" y="154" on="0"/>
        <pt x="1002" y="287" on="0"/>
        <pt x="1002" y="409" on="1"/>
        <pt x="1002" y="537" on="0"/>
        <pt x="877" y="683" on="0"/>
        <pt x="747" y="683" on="1"/>
      </contour>
      <contour>
        <pt x="377" y="837" on="1"/>
        <pt x="696" y="837" on="1"/>
        <pt x="806" y="837" on="0"/>
        <pt x="944" y="958" on="0"/>
        <pt x="944" y="1066" on="1"/>
        <pt x="944" y="1184" on="0"/>
        <pt x="795" y="1301" on="0"/>
        <pt x="655" y="1301" on="1"/>
        <pt x="377" y="1301" on="1"/>
      </contour>
    </TTGlyph>
    <TTGlyph name="B.smcp" xMin="153" yMin="0" xMax="1037" yMax="1165">
      <contour>
        <pt x="153" y="0" on="1"/>
        <pt x="153" y="1165" on="1"/>
        <pt x="550" y="1165" on="1"/>
        <pt x="763" y="1165" on="0"/>
        <pt x="1000" y="1006" on="0"/>
        <pt x="1000" y="847" on="1"/>
        <pt x="1000" y="763" on="0"/>
        <pt x="906" y="633" on="0"/>
        <pt x="819" y="600" on="1"/>
        <pt x="921" y="575" on="0"/>
        <pt x="1037" y="425" on="0"/>
        <pt x="1037" y="329" on="1"/>
        <pt x="1037" y="167" on="0"/>
        <pt x="816" y="0" on="0"/>
        <pt x="619" y="0" on="1"/>
      </contour>
      <contour>
        <pt x="350" y="521" on="1"/>
        <pt x="350" y="152" on="1"/>
        <pt x="619" y="152" on="1"/>
        <pt x="728" y="152" on="0"/>
        <pt x="839" y="246" on="0"/>
        <pt x="839" y="334" on="1"/>
        <pt x="839" y="418" on="0"/>
        <pt x="733" y="518" on="0"/>
        <pt x="630" y="521" on="1"/>
        <pt x="619" y="521" on="1"/>
      </contour>
      <contour>
        <pt x="350" y="662" on="1"/>
        <pt x="550" y="662" on="1"/>
        <pt x="674" y="662" on="0"/>
        <pt x="803" y="751" on="0"/>
        <pt x="803" y="836" on="1"/>
        <pt x="803" y="922" on="0"/>
        <pt x="680" y="992" on="0"/>
        <pt x="550" y="992" on="1"/>
        <pt x="350" y="992" on="1"/>
      </contour>
    </TTGlyph>
    <TTGlyph name="Beta" xMin="180" yMin="0" xMax="1199" yMax="1456">
      <component glyphName="B" x="0" y="0" flags="0x204"/>
    </TTGlyph>
    <TTGlyph name="C" xMin="118" yMin="-21" xMax="1215" yMax="1477">
      <contour>
        <pt x="1209" y="466" on="1"/>
        <pt x="1211" y="460" on="1"/>
        <pt x="1215" y="255" on="0"/>
        <pt x="919" y="-21" on="0"/>
        <pt x="676" y="-21" on="1"/>
        <pt x="429" y="-21" on="0"/>
        <pt x="118" y="329" on="0"/>
        <pt x="118" y="598" on="1"/>
        <pt x="118" y="857" on="1"/>
        <pt x="118" y="1126" on="0"/>
        <pt x="429" y="1477" on="0"/>
        <pt x="676" y="1477" on="1"/>
        <pt x="923" y="1477" on="0"/>
        <pt x="1215" y="1214" on="0"/>
        <pt x="1211" y="997" on="1"/>
        <pt x="1209" y="991" on="1"/>
        <pt x="1020" y="991" on="1"/>
        <pt x="1020" y="1144" on="0"/>
        <pt x="840" y="1322" on="0"/>
        <pt x="676" y="1322" on="1"/>
        <pt x="511" y="1322" on="0"/>
        <pt x="315" y="1056" on="0"/>
        <pt x="315" y="859" on="1"/>
        <pt x="315" y="598" on="1"/>
        <pt x="315" y="399" on="0"/>
        <pt x="511" y="133" on="0"/>
        <pt x="676" y="133" on="1"/>
        <pt x="840" y="133" on="0"/>
        <pt x="1020" y="310" on="0"/>
        <pt x="1020" y="466" on="1"/>
      </contour>
    </TTGlyph>
    <TTGlyph name="C.smcp" xMin="112" yMin="-17" xMax="1062" yMax="1181">
      <contour>
        <pt x="1054" y="381" on="1"/>
        <pt x="1056" y="375" on="1"/>
        <pt x="1061" y="186" on="0"/>
        <pt x="802" y="-17" on="0"/>
        <pt x="596" y="-17" on="1"/>
        <pt x="389" y="-17" on="0"/>
        <pt x="112" y="251" on="0"/>
        <pt x="112" y="461" on="1"/>
        <pt x="112" y="704" on="1"/>
        <pt x="112" y="913" on="0"/>
        <pt x="389" y="1181" on="0"/>
        <pt x="596" y="1181" on="1"/>
        <pt x="808" y="1181" on="0"/>
        <pt x="1062" y="978" on="0"/>
        <pt x="1057" y="791" on="1"/>
        <pt x="1055" y="785" on="1"/>
        <pt x="866" y="785" on="1"/>
        <pt x="866" y="906" on="0"/>
        <pt x="724" y="1028" on="0"/>
        <pt x="596" y="1028" on="1"/>
        <pt x="473" y="1028" on="0"/>
        <pt x="309" y="842" on="0"/>
        <pt x="309" y="705" on="1"/>
        <pt x="309" y="461" on="1"/>
        <pt x="309" y="322" on="0"/>
        <pt x="473" y="135" on="0"/>
        <pt x="596" y="135" on="1"/>
        <pt x="723" y="135" on="0"/>
        <pt x="865" y="257" on="0"/>
        <pt x="865" y="381" on="1"/>
      </contour>
    </TTGlyph>
    <TTGlyph name="Cacute" xMin="118" yMin="-21" xMax="1215" yMax="1843">
      <component glyphName="C" x="0" y="0" flags="0x204"/>
      <component glyphName="acute" x="457" y="366" flags="0x4"/>
    </TTGlyph>
    <TTGlyph name="Cacute.smcp" xMin="112" yMin="-17" xMax="1062" yMax="1515">
      <component glyphName="C.smcp" x="0" y="0" flags="0x204"/>
      <component glyphName="acute" x="360" y="38" flags="0x4"/>
    </TTGlyph>
    <TTGlyph name="Ccaron" xMin="118" yMin="-21" xMax="1215" yMax="1886">
      <component glyphName="C" x="0" y="0" flags="0x204"/>
      <component glyphName="caron" x="224" y="371" flags="0x4"/>
    </TTGlyph>
    <TTGlyph name="Ccaron.smcp" xMin="112" yMin="-17" xMax="1062" yMax="1558">
      <component glyphName="C.smcp" x="0" y="0" flags="0x204"/>
      <component glyphName="caron" x="127" y="43" flags="0x4"/>
    </TTGlyph>
    <TTGlyph name="Ccedilla" xMin="118" yMin="-443" xMax="1215" yMax="1477">
      <component glyphName="C" x="0" y="0" flags="0x204"/>
      <component glyphName="cedilla" x="462" y="-8" flags="0x4"/>
    </TTGlyph>
    <TTGlyph name="Ccedilla.smcp" xMin="112" yMin="-440" xMax="1062" yMax="1181">
      <component glyphName="C.smcp" x="0" y="0" flags="0x204"/>
      <component glyphName="cedilla" x="365" y="-5" flags="0x4"/>
    </TTGlyph>
    <TTGlyph name="Ccircumflex" xMin="118" yMin="-21" xMax="1215" yMax="1885">
      <component glyphName="C" x="0" y="0" flags="0x204"/>
      <component glyphName="circumflex" x="201" y="370" flags="0x4"/>
    </TTGlyph>
    <TTGlyph name="Ccircumflex.smcp" xMin="112" yMin="-17" xMax="1062" yMax="1557">
      <component glyphName="C.smcp" x="0" y="0" flags="0x204"/>
      <component glyphName="circumflex" x="104" y="42" flags="0x4"/>
    </TTGlyph>
    <TTGlyph name="Chi" xMin="66" yMin="0" xMax="1238" yMax="1456">
      <component glyphName="X" x="0" y="0" flags="0x204"/>
    </TTGlyph>
    <TTGlyph name="D" xMin="180" yMin="0" xMax="1259" yMax="1456">
      <contour>
        <pt x="180" y="0" on="1"/>
        <pt x="180" y="1456" on="1"/>
        <pt x="627" y="1456" on="1"/>
        <pt x="913" y="1456" on="0"/>
        <pt x="1259" y="1105" on="0"/>
        <pt x="1259" y="827" on="1"/>
        <pt x="1259" y="628" on="1"/>
        <pt x="1259" y="349" on="0"/>
        <pt x="913" y="0" on="0"/>
        <pt x="627" y="0" on="1"/>
      </contour>
      <contour>
        <pt x="377" y="1301" on="1"/>
        <pt x="377" y="154" on="1"/>
        <pt x="627" y="154" on="1"/>
        <pt x="829" y="154" on="0"/>
        <pt x="1062" y="420" on="0"/>
        <pt x="1062" y="628" on="1"/>
        <pt x="1062" y="829" on="1"/>
        <pt x="1062" y="1035" on="0"/>
        <pt x="829" y="1301" on="0"/>
        <pt x="627" y="1301" on="1"/>
      </contour>
    </TTGlyph>
    <TTGlyph name="D.smcp" xMin="153" yMin="0" xMax="1073" yMax="1165">
      <contour>
        <pt x="153" y="0" on="1"/>
        <pt x="153" y="1165" on="1"/>
        <pt x="574" y="1165" on="1"/>
        <pt x="785" y="1165" on="0"/>
        <pt x="1073" y="896" on="0"/>
        <pt x="1073" y="687" on="1"/>
        <pt x="1073" y="477" on="1"/>
        <pt x="1073" y="267" on="0"/>
        <pt x="785" y="0" on="0"/>
        <pt x="574" y="0" on="1"/>
      </contour>
      <contour>
        <pt x="350" y="1012" on="1"/>
        <pt x="350" y="152" on="1"/>
        <pt x="574" y="152" on="1"/>
        <pt x="700" y="152" on="0"/>
        <pt x="876" y="338" on="0"/>
        <pt x="876" y="477" on="1"/>
        <pt x="876" y="688" on="1"/>
        <pt x="876" y="825" on="0"/>
        <pt x="700" y="1012" on="0"/>
        <pt x="574" y="1012" on="1"/>
      </contour>
    </TTGlyph>
    <TTGlyph name="Dcaron" xMin="180" yMin="0" xMax="1259" yMax="1865">
      <component glyphName="D" x="0" y="0" flags="0x204"/>
      <component glyphName="caron" x="166" y="350" flags="0x4"/>
    </TTGlyph>
    <TTGlyph name="Dcaron.smcp" xMin="153" yMin="0" xMax="1073" yMax="1542">
      <component glyphName="D.smcp" x="0" y="0" flags="0x204"/>
      <component glyphName="caron" x="44" y="27" flags="0x4"/>
    </TTGlyph>
    <TTGlyph name="Dcroat" xMin="42" yMin="0" xMax="1289" yMax="1456">
      <contour>
        <pt x="210" y="0" on="1"/>
        <pt x="210" y="663" on="1"/>
        <pt x="42" y="663" on="1"/>
        <pt x="42" y="818" on="1"/>
        <pt x="210" y="818" on="1"/>
        <pt x="210" y="1456" on="1"/>
        <pt x="657" y="1456" on="1"/>
        <pt x="943" y="1456" on="0"/>
        <pt x="1289" y="1105" on="0"/>
        <pt x="1289" y="827" on="1"/>
        <pt x="1289" y="628" on="1"/>
        <pt x="1289" y="349" on="0"/>
        <pt x="943" y="0" on="0"/>
        <pt x="657" y="0" on="1"/>
      </contour>
      <contour>
        <pt x="683" y="663" on="1"/>
        <pt x="407" y="663" on="1"/>
        <pt x="407" y="154" on="1"/>
        <pt x="657" y="154" on="1"/>
        <pt x="859" y="154" on="0"/>
        <pt x="1092" y="420" on="0"/>
        <pt x="1092" y="628" on="1"/>
        <pt x="1092" y="829" on="1"/>
        <pt x="1092" y="1035" on="0"/>
        <pt x="859" y="1301" on="0"/>
        <pt x="657" y="1301" on="1"/>
        <pt x="407" y="1301" on="1"/>
        <pt x="407" y="818" on="1"/>
        <pt x="683" y="818" on="1"/>
      </contour>
    </TTGlyph>
    <TTGlyph name="Dcroat.smcp" xMin="-10" yMin="0" xMax="1073" yMax="1165">
      <component glyphName="D.smcp" x="0" y="0" flags="0x204"/>
      <component glyphName="crossbar" x="-156" y="-131" flags="0x4"/>
    </TTGlyph>
    <TTGlyph name="Delta" xMin="30" yMin="0" xMax="1392" yMax="1456">
      <contour>
        <pt x="647" y="1456" on="1"/>
        <pt x="816" y="1456" on="1"/>
        <pt x="1392" y="0" on="1"/>
        <pt x="30" y="0" on="1"/>
      </contour>
      <contour>
        <pt x="294" y="154" on="1"/>
        <pt x="1132" y="154" on="1"/>
        <pt x="732" y="1204" on="1"/>
        <pt x="726" y="1204" on="1"/>
      </contour>
    </TTGlyph>
    <TTGlyph name="E" xMin="180" yMin="0" xMax="1146" yMax="1456">
      <contour>
        <pt x="1044" y="675" on="1"/>
        <pt x="377" y="675" on="1"/>
        <pt x="377" y="154" on="1"/>
        <pt x="1146" y="154" on="1"/>
        <pt x="1146" y="0" on="1"/>
        <pt x="180" y="0" on="1"/>
        <pt x="180" y="1456" on="1"/>
        <pt x="1135" y="1456" on="1"/>
        <pt x="1135" y="1301" on="1"/>
        <pt x="377" y="1301" on="1"/>
        <pt x="377" y="830" on="1"/>
        <pt x="1044" y="830" on="1"/>
      </contour>
    </TTGlyph>
    <TTGlyph name="E.smcp" xMin="153" yMin="0" xMax="968" yMax="1165">
      <contour>
        <pt x="881" y="530" on="1"/>
        <pt x="350" y="530" on="1"/>
        <pt x="350" y="152" on="1"/>
        <pt x="968" y="152" on="1"/>
        <pt x="968" y="0" on="1"/>
        <pt x="153" y="0" on="1"/>
        <pt x="153" y="1165" on="1"/>
        <pt x="968" y="1165" on="1"/>
        <pt x="968" y="1012" on="1"/>
        <pt x="350" y="1012" on="1"/>
        <pt x="350" y="684" on="1"/>
        <pt x="881" y="684" on="1"/>
      </contour>
    </TTGlyph>
    <TTGlyph name="Eacute" xMin="180" yMin="0" xMax="1146" yMax="1822">
      <component glyphName="E" x="0" y="0" flags="0x204"/>
      <component glyphName="acute" x="407" y="345" flags="0x4"/>
    </TTGlyph>
    <TTGlyph name="Eacute.smcp" xMin="153" yMin="0" xMax="968" yMax="1499">
      <component glyphName="E.smcp" x="0" y="0" flags="0x204"/>
      <component glyphName="acute" x="324" y="22" flags="0x4"/>
    </TTGlyph>
    <TTGlyph name="Ebreve" xMin="180" yMin="0" xMax="1146" yMax="1870">
      <component glyphName="E" x="0" y="0" flags="0x204"/>
      <component glyphName="breve" x="200" y="414" flags="0x4"/>
    </TTGlyph>
    <TTGlyph name="Ebreve.smcp" xMin="153" yMin="0" xMax="968" yMax="1547">
      <component glyphName="E.smcp" x="0" y="0" flags="0x204"/>
      <component glyphName="breve" x="117" y="91" flags="0x4"/>
    </TTGlyph>
    <TTGlyph name="Ecaron" xMin="180" yMin="0" xMax="1146" yMax="1865">
      <component glyphName="E" x="0" y="0" flags="0x204"/>
      <component glyphName="caron" x="174" y="350" flags="0x4"/>
    </TTGlyph>
    <TTGlyph name="Ecaron.smcp" xMin="153" yMin="0" xMax="968" yMax="1542">
      <component glyphName="E.smcp" x="0" y="0" flags="0x204"/>
      <component glyphName="caron" x="91" y="27" flags="0x4"/>
    </TTGlyph>
    <TTGlyph name="Ecircumflex" xMin="180" yMin="0" xMax="1146" yMax="1864">
      <component glyphName="E" x="0" y="0" flags="0x204"/>
      <component glyphName="circumflex" x="151" y="349" flags="0x4"/>
    </TTGlyph>
    <TTGlyph name="Ecircumflex.smcp" xMin="153" yMin="0" xMax="968" yMax="1541">
      <component glyphName="E.smcp" x="0" y="0" flags="0x204"/>
      <component glyphName="circumflex" x="68" y="26" flags="0x4"/>
    </TTGlyph>
    <TTGlyph name="Edieresis" xMin="180" yMin="0" xMax="1146" yMax="1805">
      <component glyphName="E" x="0" y="0" flags="0x204"/>
      <component glyphName="dieresis" x="114" y="349" flags="0x4"/>
    </TTGlyph>
    <TTGlyph name="Edieresis.smcp" xMin="153" yMin="0" xMax="968" yMax="1482">
      <component glyphName="E.smcp" x="0" y="0" flags="0x204"/>
      <component glyphName="dieresis" x="31" y="26" flags="0x4"/>
    </TTGlyph>
    <TTGlyph name="Edotaccent" xMin="180" yMin="0" xMax="1146" yMax="1805">
      <component glyphName="E" x="0" y="0" flags="0x204"/>
      <component glyphName="dotaccent" x="359" y="349" flags="0x4"/>
    </TTGlyph>
    <TTGlyph name="Edotaccent.smcp" xMin="153" yMin="0" xMax="968" yMax="1482">
      <component glyphName="E.smcp" x="0" y="0" flags="0x204"/>
      <component glyphName="dotaccent" x="276" y="26" flags="0x4"/>
    </TTGlyph>
    <TTGlyph name="Egrave" xMin="180" yMin="0" xMax="1146" yMax="1826">
      <component glyphName="E" x="0" y="0" flags="0x204"/>
      <component glyphName="grave" x="221" y="349" flags="0x4"/>
    </TTGlyph>
    <TTGlyph name="Egrave.smcp" xMin="153" yMin="0" xMax="968" yMax="1503">
      <component glyphName="E.smcp" x="0" y="0" flags="0x204"/>
      <component glyphName="grave" x="138" y="26" flags="0x4"/>
    </TTGlyph>
    <TTGlyph name="Emacron" xMin="180" yMin="0" xMax="1146" yMax="1786">
      <component glyphName="E" x="0" y="0" flags="0x204"/>
      <component glyphName="macron" x="150" y="330" flags="0x4"/>
    </TTGlyph>
    <TTGlyph name="Emacron.smcp" xMin="153" yMin="0" xMax="968" yMax="1463">
      <component glyphName="E.smcp" x="0" y="0" flags="0x204"/>
      <component glyphName="macron" x="67" y="7" flags="0x4"/>
    </TTGlyph>
    <TTGlyph name="Eng" xMin="161" yMin="-437" xMax="1262" yMax="1456">
      <contour>
        <pt x="1262" y="1456" on="1"/>
        <pt x="1262" y="-89" on="1"/>
        <pt x="1262" y="-256" on="0"/>
        <pt x="1090" y="-437" on="0"/>
        <pt x="936" y="-437" on="1"/>
        <pt x="905" y="-437" on="0"/>
        <pt x="853" y="-428" on="0"/>
        <pt x="824" y="-419" on="1"/>
        <pt x="838" y="-269" on="1"/>
        <pt x="851" y="-274" on="0"/>
        <pt x="919" y="-282" on="0"/>
        <pt x="936" y="-282" on="1"/>
        <pt x="996" y="-282" on="0"/>
        <pt x="1065" y="-179" on="0"/>
        <pt x="1065" y="-89" on="1"/>
        <pt x="1065" y="0" on="1"/>
        <pt x="364" y="1112" on="1"/>
        <pt x="358" y="1110" on="1"/>
        <pt x="358" y="0" on="1"/>
        <pt x="161" y="0" on="1"/>
        <pt x="161" y="1456" on="1"/>
        <pt x="358" y="1456" on="1"/>
        <pt x="1059" y="344" on="1"/>
        <pt x="1065" y="346" on="1"/>
        <pt x="1065" y="1456" on="1"/>
      </contour>
    </TTGlyph>
    <TTGlyph name="Eogonek" xMin="180" yMin="-432" xMax="1146" yMax="1456">
      <component glyphName="E" x="0" y="0" flags="0x204"/>
      <component glyphName="ogonek" x="331" y="0" flags="0x4"/>
    </TTGlyph>
    <TTGlyph name="Eogonek.smcp" xMin="153" yMin="-432" xMax="968" yMax="1165">
      <component glyphName="E.smcp" x="0" y="0" flags="0x204"/>
      <component glyphName="ogonek" x="280" y="0" flags="0x4"/>
    </TTGlyph>
    <TTGlyph name="Epsilon" xMin="180" yMin="0" xMax="1146" yMax="1456">
      <component glyphName="E" x="0" y="0" flags="0x204"/>
    </TTGlyph>
    <TTGlyph name="Epsilontonos" xMin="-29" yMin="0" xMax="1246" yMax="1652">
      <component glyphName="E" x="100" y="0" flags="0x4"/>
      <component glyphName="tonos" x="-224" y="2" flags="0x4"/>
    </TTGlyph>
    <TTGlyph name="Eta" xMin="180" yMin="0" xMax="1281" yMax="1456">
      <component glyphName="H" x="0" y="0" flags="0x204"/>
    </TTGlyph>
    <TTGlyph name="Etatonos" xMin="20" yMin="0" xMax="1381" yMax="1652">
      <component glyphName="H" x="100" y="0" flags="0x4"/>
      <component glyphName="tonos" x="-175" y="2" flags="0x4"/>
    </TTGlyph>
    <TTGlyph name="Eth" xMin="42" yMin="0" xMax="1289" yMax="1456">
      <contour>
        <pt x="210" y="0" on="1"/>
        <pt x="210" y="663" on="1"/>
        <pt x="42" y="663" on="1"/>
        <pt x="42" y="818" on="1"/>
        <pt x="210" y="818" on="1"/>
        <pt x="210" y="1456" on="1"/>
        <pt x="657" y="1456" on="1"/>
        <pt x="943" y="1456" on="0"/>
        <pt x="1289" y="1105" on="0"/>
        <pt x="1289" y="827" on="1"/>
        <pt x="1289" y="628" on="1"/>
        <pt x="1289" y="349" on="0"/>
        <pt x="943" y="0" on="0"/>
        <pt x="657" y="0" on="1"/>
      </contour>
      <contour>
        <pt x="683" y="663" on="1"/>
        <pt x="407" y="663" on="1"/>
        <pt x="407" y="154" on="1"/>
        <pt x="657" y="154" on="1"/>
        <pt x="859" y="154" on="0"/>
        <pt x="1092" y="420" on="0"/>
        <pt x="1092" y="628" on="1"/>
        <pt x="1092" y="829" on="1"/>
        <pt x="1092" y="1035" on="0"/>
        <pt x="859" y="1301" on="0"/>
        <pt x="657" y="1301" on="1"/>
        <pt x="407" y="1301" on="1"/>
        <pt x="407" y="818" on="1"/>
        <pt x="683" y="818" on="1"/>
      </contour>
    </TTGlyph>
    <TTGlyph name="Eth.smcp" xMin="-10" yMin="0" xMax="1073" yMax="1165">
      <component glyphName="D.smcp" x="0" y="0" flags="0x204"/>
      <component glyphName="crossbar" x="-156" y="-131" flags="0x4"/>
    </TTGlyph>
    <TTGlyph name="Euro" xMin="79" yMin="-21" xMax="981" yMax="1477">
      <contour>
        <pt x="914" y="481" on="1"/>
        <pt x="429" y="481" on="1"/>
        <pt x="427" y="476" on="1"/>
        <pt x="423" y="338" on="0"/>
        <pt x="594" y="133" on="0"/>
        <pt x="741" y="133" on="1"/>
        <pt x="798" y="133" on="0"/>
        <pt x="910" y="150" on="0"/>
        <pt x="962" y="167" on="1"/>
        <pt x="981" y="10" on="1"/>
        <pt x="925" y="-5" on="0"/>
        <pt x="802" y="-21" on="0"/>
        <pt x="741" y="-21" on="1"/>
        <pt x="510" y="-21" on="0"/>
        <pt x="225" y="268" on="0"/>
        <pt x="225" y="481" on="1"/>
        <pt x="79" y="481" on="1"/>
        <pt x="79" y="636" on="1"/>
        <pt x="225" y="636" on="1"/>
        <pt x="225" y="772" on="1"/>
        <pt x="79" y="772" on="1"/>
        <pt x="79" y="927" on="1"/>
        <pt x="225" y="927" on="1"/>
        <pt x="225" y="942" on="1"/>
        <pt x="225" y="1186" on="0"/>
        <pt x="508" y="1477" on="0"/>
        <pt x="739" y="1477" on="1"/>
        <pt x="798" y="1477" on="0"/>
        <pt x="915" y="1461" on="0"/>
        <pt x="981" y="1446" on="1"/>
        <pt x="962" y="1287" on="1"/>
        <pt x="908" y="1303" on="0"/>
        <pt x="795" y="1322" on="0"/>
        <pt x="739" y="1322" on="1"/>
        <pt x="593" y="1322" on="0"/>
        <pt x="422" y="1116" on="0"/>
        <pt x="422" y="944" on="1"/>
        <pt x="422" y="927" on="1"/>
        <pt x="914" y="927" on="1"/>
        <pt x="914" y="772" on="1"/>
        <pt x="422" y="772" on="1"/>
        <pt x="422" y="636" on="1"/>
        <pt x="914" y="636" on="1"/>
      </contour>
    </TTGlyph>
    <TTGlyph name="F" xMin="180" yMin="0" xMax="1143" yMax="1456">
      <contour>
        <pt x="1041" y="644" on="1"/>
        <pt x="377" y="644" on="1"/>
        <pt x="377" y="0" on="1"/>
        <pt x="180" y="0" on="1"/>
        <pt x="180" y="1456" on="1"/>
        <pt x="1143" y="1456" on="1"/>
        <pt x="1143" y="1301" on="1"/>
        <pt x="377" y="1301" on="1"/>
        <pt x="377" y="799" on="1"/>
        <pt x="1041" y="799" on="1"/>
      </contour>
    </TTGlyph>
    <TTGlyph name="F.smcp" xMin="153" yMin="0" xMax="970" yMax="1165">
      <contour>
        <pt x="883" y="501" on="1"/>
        <pt x="350" y="501" on="1"/>
        <pt x="350" y="0" on="1"/>
        <pt x="153" y="0" on="1"/>
        <pt x="153" y="1165" on="1"/>
        <pt x="970" y="1165" on="1"/>
        <pt x="970" y="1012" on="1"/>
        <pt x="350" y="1012" on="1"/>
        <pt x="350" y="655" on="1"/>
        <pt x="883" y="655" on="1"/>
      </contour>
    </TTGlyph>
    <TTGlyph name="G" xMin="120" yMin="-21" xMax="1235" yMax="1477">
      <contour>
        <pt x="1235" y="193" on="1"/>
        <pt x="1183" y="113" on="0"/>
        <pt x="926" y="-21" on="0"/>
        <pt x="722" y="-21" on="1"/>
        <pt x="461" y="-21" on="0"/>
        <pt x="120" y="313" on="0"/>
        <pt x="120" y="578" on="1"/>
        <pt x="120" y="878" on="1"/>
        <pt x="120" y="1143" on="0"/>
        <pt x="438" y="1477" on="0"/>
        <pt x="689" y="1477" on="1"/>
        <pt x="939" y="1477" on="0"/>
        <pt x="1225" y="1231" on="0"/>
        <pt x="1228" y="1037" on="1"/>
        <pt x="1226" y="1031" on="1"/>
        <pt x="1038" y="1031" on="1"/>
        <pt x="1029" y="1158" on="0"/>
        <pt x="854" y="1322" on="0"/>
        <pt x="689" y="1322" on="1"/>
        <pt x="522" y="1322" on="0"/>
        <pt x="318" y="1072" on="0"/>
        <pt x="318" y="880" on="1"/>
        <pt x="318" y="578" on="1"/>
        <pt x="318" y="384" on="0"/>
        <pt x="546" y="133" on="0"/>
        <pt x="722" y="133" on="1"/>
        <pt x="846" y="133" on="0"/>
        <pt x="1004" y="199" on="0"/>
        <pt x="1038" y="241" on="1"/>
        <pt x="1038" y="572" on="1"/>
        <pt x="719" y="572" on="1"/>
        <pt x="719" y="727" on="1"/>
        <pt x="1235" y="727" on="1"/>
      </contour>
    </TTGlyph>
    <TTGlyph name="G.smcp" xMin="112" yMin="-17" xMax="1099" yMax="1181">
      <contour>
        <pt x="1099" y="157" on="1"/>
        <pt x="1054" y="92" on="0"/>
        <pt x="812" y="-17" on="0"/>
        <pt x="631" y="-17" on="1"/>
        <pt x="400" y="-17" on="0"/>
        <pt x="112" y="248" on="0"/>
        <pt x="112" y="461" on="1"/>
        <pt x="112" y="704" on="1"/>
        <pt x="112" y="915" on="0"/>
        <pt x="402" y="1181" on="0"/>
        <pt x="627" y="1181" on="1"/>
        <pt x="849" y="1181" on="0"/>
        <pt x="1092" y="980" on="0"/>
        <pt x="1088" y="823" on="1"/>
        <pt x="1086" y="817" on="1"/>
        <pt x="898" y="817" on="1"/>
        <pt x="898" y="918" on="0"/>
        <pt x="753" y="1028" on="0"/>
        <pt x="627" y="1028" on="1"/>
        <pt x="487" y="1028" on="0"/>
        <pt x="309" y="844" on="0"/>
        <pt x="309" y="705" on="1"/>
        <pt x="309" y="461" on="1"/>
        <pt x="309" y="319" on="0"/>
        <pt x="485" y="135" on="0"/>
        <pt x="631" y="135" on="1"/>
        <pt x="736" y="135" on="0"/>
        <pt x="873" y="177" on="0"/>
        <pt x="904" y="204" on="1"/>
        <pt x="904" y="454" on="1"/>
        <pt x="646" y="454" on="1"/>
        <pt x="646" y="608" on="1"/>
        <pt x="1099" y="608" on="1"/>
      </contour>
    </TTGlyph>
    <TTGlyph name="Gamma" xMin="180" yMin="0" xMax="1073" yMax="1456">
      <contour>
        <pt x="1073" y="1301" on="1"/>
        <pt x="377" y="1301" on="1"/>
        <pt x="377" y="0" on="1"/>
        <pt x="180" y="0" on="1"/>
        <pt x="180" y="1456" on="1"/>
        <pt x="1073" y="1456" on="1"/>
      </contour>
    </TTGlyph>
    <TTGlyph name="Gbreve" xMin="120" yMin="-21" xMax="1235" yMax="1891">
      <component glyphName="G" x="0" y="0" flags="0x204"/>
      <component glyphName="breve" x="240" y="435" flags="0x4"/>
    </TTGlyph>
    <TTGlyph name="Gbreve.smcp" xMin="112" yMin="-17" xMax="1099" yMax="1563">
      <component glyphName="G.smcp" x="0" y="0" flags="0x204"/>
      <component glyphName="breve" x="165" y="107" flags="0x4"/>
    </TTGlyph>
    <TTGlyph name="Gcircumflex" xMin="120" yMin="-21" xMax="1235" yMax="1885">
      <component glyphName="G" x="0" y="0" flags="0x204"/>
      <component glyphName="circumflex" x="191" y="370" flags="0x4"/>
    </TTGlyph>
    <TTGlyph name="Gcircumflex.smcp" xMin="112" yMin="-17" xMax="1099" yMax="1557">
      <component glyphName="G.smcp" x="0" y="0" flags="0x204"/>
      <component glyphName="circumflex" x="116" y="42" flags="0x4"/>
    </TTGlyph>
    <TTGlyph name="Gcommaaccent" xMin="120" yMin="-494" xMax="1235" yMax="1477">
      <component glyphName="G" x="0" y="0" flags="0x204"/>
      <component glyphName="commaaccent" x="420" y="-360" flags="0x4"/>
    </TTGlyph>
    <TTGlyph name="Gcommaaccent.smcp" xMin="112" yMin="-491" xMax="1099" yMax="1181">
      <component glyphName="G.smcp" x="0" y="0" flags="0x204"/>
      <component glyphName="commaaccent" x="345" y="-357" flags="0x4"/>
    </TTGlyph>
    <TTGlyph name="H" xMin="180" yMin="0" xMax="1281" yMax="1456">
      <contour>
        <pt x="1281" y="0" on="1"/>
        <pt x="1084" y="0" on="1"/>
        <pt x="1084" y="643" on="1"/>
        <pt x="377" y="643" on="1"/>
        <pt x="377" y="0" on="1"/>
        <pt x="180" y="0" on="1"/>
        <pt x="180" y="1456" on="1"/>
        <pt x="377" y="1456" on="1"/>
        <pt x="377" y="798" on="1"/>
        <pt x="1084" y="798" on="1"/>
        <pt x="1084" y="1456" on="1"/>
        <pt x="1281" y="1456" on="1"/>
      </contour>
    </TTGlyph>
    <TTGlyph name="H.smcp" xMin="153" yMin="0" xMax="1114" yMax="1165">
      <contour>
        <pt x="1114" y="0" on="1"/>
        <pt x="916" y="0" on="1"/>
        <pt x="916" y="491" on="1"/>
        <pt x="350" y="491" on="1"/>
        <pt x="350" y="0" on="1"/>
        <pt x="153" y="0" on="1"/>
        <pt x="153" y="1165" on="1"/>
        <pt x="350" y="1165" on="1"/>
        <pt x="350" y="644" on="1"/>
        <pt x="916" y="644" on="1"/>
        <pt x="916" y="1165" on="1"/>
        <pt x="1114" y="1165" on="1"/>
      </contour>
    </TTGlyph>
    <TTGlyph name="Hbar" xMin="31" yMin="0" xMax="1423" yMax="1456">
      <contour>
        <pt x="1279" y="1169" on="1"/>
        <pt x="1423" y="1169" on="1"/>
        <pt x="1423" y="1024" on="1"/>
        <pt x="1279" y="1024" on="1"/>
        <pt x="1279" y="0" on="1"/>
        <pt x="1082" y="0" on="1"/>
        <pt x="1082" y="643" on="1"/>
        <pt x="375" y="643" on="1"/>
        <pt x="375" y="0" on="1"/>
        <pt x="178" y="0" on="1"/>
        <pt x="178" y="1024" on="1"/>
        <pt x="31" y="1024" on="1"/>
        <pt x="31" y="1169" on="1"/>
        <pt x="178" y="1169" on="1"/>
        <pt x="178" y="1456" on="1"/>
        <pt x="375" y="1456" on="1"/>
        <pt x="375" y="1169" on="1"/>
        <pt x="1082" y="1169" on="1"/>
        <pt x="1082" y="1456" on="1"/>
        <pt x="1279" y="1456" on="1"/>
      </contour>
      <contour>
        <pt x="375" y="798" on="1"/>
        <pt x="1082" y="798" on="1"/>
        <pt x="1082" y="1024" on="1"/>
        <pt x="375" y="1024" on="1"/>
      </contour>
    </TTGlyph>
    <TTGlyph name="Hcircumflex" xMin="180" yMin="0" xMax="1281" yMax="1864">
      <component glyphName="H" x="0" y="0" flags="0x204"/>
      <component glyphName="circumflex" x="244" y="349" flags="0x4"/>
    </TTGlyph>
    <TTGlyph name="Hcircumflex.smcp" xMin="153" yMin="0" xMax="1114" yMax="1541">
      <component glyphName="H.smcp" x="0" y="0" flags="0x204"/>
      <component glyphName="circumflex" x="127" y="26" flags="0x4"/>
    </TTGlyph>
    <TTGlyph name="I" xMin="190" yMin="0" xMax="388" yMax="1456">
      <contour>
        <pt x="388" y="0" on="1"/>
        <pt x="190" y="0" on="1"/>
        <pt x="190" y="1456" on="1"/>
        <pt x="388" y="1456" on="1"/>
      </contour>
    </TTGlyph>
    <TTGlyph name="I.smcp" xMin="153" yMin="0" xMax="349" yMax="1165">
      <contour>
        <pt x="349" y="0" on="1"/>
        <pt x="153" y="0" on="1"/>
        <pt x="153" y="1165" on="1"/>
        <pt x="349" y="1165" on="1"/>
      </contour>
    </TTGlyph>
    <TTGlyph name="IJ" xMin="190" yMin="-21" xMax="1542" yMax="1456">
      <component glyphName="I" x="0" y="0" flags="0x4"/>
      <component glyphName="J" x="579" y="0" flags="0x4"/>
    </TTGlyph>
    <TTGlyph name="Iacute" xMin="190" yMin="0" xMax="616" yMax="1822">
      <component glyphName="I" x="0" y="0" flags="0x204"/>
      <component glyphName="acute" x="68" y="345" flags="0x4"/>
    </TTGlyph>
    <TTGlyph name="Iacute.smcp" xMin="153" yMin="0" xMax="577" yMax="1499">
      <component glyphName="I.smcp" x="0" y="0" flags="0x204"/>
      <component glyphName="acute" x="29" y="22" flags="0x4"/>
    </TTGlyph>
    <TTGlyph name="Ibreve" xMin="-8" yMin="0" xMax="591" yMax="1870">
      <component glyphName="I" x="0" y="0" flags="0x204"/>
      <component glyphName="breve" x="-137" y="414" flags="0x4"/>
    </TTGlyph>
    <TTGlyph name="Ibreve.smcp" xMin="-47" yMin="0" xMax="552" yMax="1547">
      <component glyphName="I.smcp" x="0" y="0" flags="0x204"/>
      <component glyphName="breve" x="-176" y="91" flags="0x4"/>
    </TTGlyph>
    <TTGlyph name="Icircumflex" xMin="-15" yMin="0" xMax="599" yMax="1864">
      <component glyphName="I" x="0" y="0" flags="0x204"/>
      <component glyphName="circumflex" x="-186" y="349" flags="0x4"/>
    </TTGlyph>
    <TTGlyph name="Icircumflex.smcp" xMin="-54" yMin="0" xMax="560" yMax="1541">
      <component glyphName="I.smcp" x="0" y="0" flags="0x204"/>
      <component glyphName="circumflex" x="-225" y="26" flags="0x4"/>
    </TTGlyph>
    <TTGlyph name="Idieresis" xMin="-53" yMin="0" xMax="636" yMax="1805">
      <component glyphName="I" x="0" y="0" flags="0x204"/>
      <component glyphName="dieresis" x="-223" y="349" flags="0x4"/>
    </TTGlyph>
    <TTGlyph name="Idieresis.smcp" xMin="-92" yMin="0" xMax="597" yMax="1482">
      <component glyphName="I.smcp" x="0" y="0" flags="0x204"/>
      <component glyphName="dieresis" x="-262" y="26" flags="0x4"/>
    </TTGlyph>
    <TTGlyph name="Idotaccent" xMin="180" yMin="0" xMax="398" yMax="1805">
      <component glyphName="I" x="0" y="0" flags="0x204"/>
      <component glyphName="dotaccent" x="20" y="349" flags="0x4"/>
    </TTGlyph>
    <TTGlyph name="Idotaccent.smcp" xMin="143" yMin="0" xMax="361" yMax="1482">
      <component glyphName="I.smcp" x="0" y="0" flags="0x204"/>
      <component glyphName="dotaccent" x="-17" y="26" flags="0x4"/>
    </TTGlyph>
    <TTGlyph name="Igrave" xMin="-34" yMin="0" xMax="388" yMax="1826">
      <component glyphName="I" x="0" y="0" flags="0x204"/>
      <component glyphName="grave" x="-116" y="349" flags="0x4"/>
    </TTGlyph>
    <TTGlyph name="Igrave.smcp" xMin="-73" yMin="0" xMax="349" yMax="1503">
      <component glyphName="I.smcp" x="0" y="0" flags="0x204"/>
      <component glyphName="grave" x="-155" y="26" flags="0x4"/>
    </TTGlyph>
    <TTGlyph name="Imacron" xMin="-64" yMin="0" xMax="657" yMax="1786">
      <component glyphName="I" x="0" y="0" flags="0x204"/>
      <component glyphName="macron" x="-187" y="330" flags="0x4"/>
    </TTGlyph>
    <TTGlyph name="Imacron.smcp" xMin="-103" yMin="0" xMax="618" yMax="1463">
      <component glyphName="I.smcp" x="0" y="0" flags="0x204"/>
      <component glyphName="macron" x="-226" y="7" flags="0x4"/>
    </TTGlyph>
    <TTGlyph name="Iogonek" xMin="46" yMin="-432" xMax="445" yMax="1456">
      <component glyphName="I" x="0" y="0" flags="0x204"/>
      <component glyphName="ogonek" x="-22" y="0" flags="0x4"/>
    </TTGlyph>
    <TTGlyph name="Iogonek.smcp" xMin="60" yMin="-432" xMax="459" yMax="1165">
      <component glyphName="I.smcp" x="0" y="0" flags="0x204"/>
      <component glyphName="ogonek" x="-8" y="0" flags="0x4"/>
    </TTGlyph>
    <TTGlyph name="Iota" xMin="190" yMin="0" xMax="388" yMax="1456">
      <component glyphName="I" x="0" y="0" flags="0x204"/>
    </TTGlyph>
    <TTGlyph name="Iotadieresis" xMin="-53" yMin="0" xMax="636" yMax="1805">
      <component glyphName="I" x="0" y="0" flags="0x204"/>
      <component glyphName="dieresis" x="-223" y="349" flags="0x4"/>
    </TTGlyph>
    <TTGlyph name="Iotatonos" xMin="24" yMin="0" xMax="488" yMax="1651">
      <component glyphName="I" x="100" y="0" flags="0x4"/>
      <component glyphName="tonos" x="-171" y="1" flags="0x4"/>
    </TTGlyph>
    <TTGlyph name="Itilde" xMin="-56" yMin="0" xMax="638" yMax="1876">
      <component glyphName="I" x="0" y="0" flags="0x204"/>
      <component glyphName="tilde" x="-191" y="353" flags="0x4"/>
    </TTGlyph>
    <TTGlyph name="Itilde.smcp" xMin="-95" yMin="0" xMax="599" yMax="1553">
      <component glyphName="I.smcp" x="0" y="0" flags="0x204"/>
      <component glyphName="tilde" x="-230" y="30" flags="0x4"/>
    </TTGlyph>
    <TTGlyph name="J" xMin="61" yMin="-21" xMax="963" yMax="1456">
      <contour>
        <pt x="766" y="1456" on="1"/>
        <pt x="963" y="1456" on="1"/>
        <pt x="963" y="403" on="1"/>
        <pt x="963" y="208" on="0"/>
        <pt x="716" y="-21" on="0"/>
        <pt x="519" y="-21" on="1"/>
        <pt x="309" y="-21" on="0"/>
        <pt x="61" y="192" on="0"/>
        <pt x="66" y="395" on="1"/>
        <pt x="68" y="401" on="1"/>
        <pt x="257" y="401" on="1"/>
        <pt x="257" y="266" on="0"/>
        <pt x="394" y="133" on="0"/>
        <pt x="519" y="133" on="1"/>
        <pt x="628" y="133" on="0"/>
        <pt x="766" y="280" on="0"/>
        <pt x="766" y="403" on="1"/>
      </contour>
    </TTGlyph>
    <TTGlyph name="J.smcp" xMin="64" yMin="-17" xMax="887" yMax="1165">
      <contour>
        <pt x="691" y="1165" on="1"/>
        <pt x="887" y="1165" on="1"/>
        <pt x="887" y="354" on="1"/>
        <pt x="887" y="184" on="0"/>
        <pt x="660" y="-17" on="0"/>
        <pt x="485" y="-17" on="1"/>
        <pt x="290" y="-17" on="0"/>
        <pt x="64" y="161" on="0"/>
        <pt x="70" y="331" on="1"/>
        <pt x="72" y="337" on="1"/>
        <pt x="260" y="337" on="1"/>
        <pt x="260" y="236" on="0"/>
        <pt x="378" y="135" on="0"/>
        <pt x="485" y="135" on="1"/>
        <pt x="573" y="135" on="0"/>
        <pt x="691" y="256" on="0"/>
        <pt x="691" y="354" on="1"/>
      </contour>
    </TTGlyph>
    <TTGlyph name="Jcircumflex" xMin="61" yMin="-21" xMax="1164" yMax="1852">
      <component glyphName="J" x="0" y="0" flags="0x204"/>
      <component glyphName="circumflex" x="379" y="337" flags="0x4"/>
    </TTGlyph>
    <TTGlyph name="Jcircumflex.smcp" xMin="64" yMin="-17" xMax="1090" yMax="1532">
      <component glyphName="J.smcp" x="0" y="0" flags="0x204"/>
      <component glyphName="circumflex" x="305" y="17" flags="0x4"/>
    </TTGlyph>
    <TTGlyph name="K" xMin="180" yMin="0" xMax="1312" yMax="1456">
      <contour>
        <pt x="547" y="657" on="1"/>
        <pt x="377" y="657" on="1"/>
        <pt x="377" y="0" on="1"/>
        <pt x="180" y="0" on="1"/>
        <pt x="180" y="1456" on="1"/>
        <pt x="377" y="1456" on="1"/>
        <pt x="377" y="812" on="1"/>
        <pt x="529" y="812" on="1"/>
        <pt x="1050" y="1456" on="1"/>
        <pt x="1268" y="1456" on="1"/>
        <pt x="1271" y="1451" on="1"/>
        <pt x="706" y="752" on="1"/>
        <pt x="1312" y="5" on="1"/>
        <pt x="1309" y="0" on="1"/>
        <pt x="1074" y="0" on="1"/>
      </contour>
    </TTGlyph>
    <TTGlyph name="K.smcp" xMin="153" yMin="0" xMax="1089" yMax="1165">
      <contour>
        <pt x="449" y="500" on="1"/>
        <pt x="350" y="500" on="1"/>
        <pt x="350" y="0" on="1"/>
        <pt x="153" y="0" on="1"/>
        <pt x="153" y="1165" on="1"/>
        <pt x="350" y="1165" on="1"/>
        <pt x="350" y="657" on="1"/>
        <pt x="434" y="657" on="1"/>
        <pt x="822" y="1165" on="1"/>
        <pt x="1053" y="1165" on="1"/>
        <pt x="1056" y="1160" on="1"/>
        <pt x="601" y="606" on="1"/>
        <pt x="1089" y="5" on="1"/>
        <pt x="1086" y="0" on="1"/>
        <pt x="845" y="0" on="1"/>
      </contour>
    </TTGlyph>
    <TTGlyph name="Kappa" xMin="180" yMin="0" xMax="1312" yMax="1456">
      <component glyphName="K" x="0" y="0" flags="0x204"/>
    </TTGlyph>
    <TTGlyph name="Kcommaaccent" xMin="180" yMin="-477" xMax="1312" yMax="1456">
      <component glyphName="K" x="0" y="0" flags="0x204"/>
      <component glyphName="commaaccent" x="386" y="-343" flags="0x4"/>
    </TTGlyph>
    <TTGlyph name="Kcommaaccent.smcp" xMin="153" yMin="-479" xMax="1089" yMax="1165">
      <component glyphName="K.smcp" x="0" y="0" flags="0x204"/>
      <component glyphName="commaaccent" x="262" y="-345" flags="0x4"/>
    </TTGlyph>
    <TTGlyph name="L" xMin="180" yMin="0" xMax="1066" yMax="1456">
      <contour>
        <pt x="377" y="154" on="1"/>
        <pt x="1066" y="154" on="1"/>
        <pt x="1066" y="0" on="1"/>
        <pt x="180" y="0" on="1"/>
        <pt x="180" y="1456" on="1"/>
        <pt x="377" y="1456" on="1"/>
      </contour>
    </TTGlyph>
    <TTGlyph name="L.smcp" xMin="153" yMin="0" xMax="875" yMax="1165">
      <contour>
        <pt x="350" y="152" on="1"/>
        <pt x="875" y="152" on="1"/>
        <pt x="875" y="0" on="1"/>
        <pt x="153" y="0" on="1"/>
        <pt x="153" y="1165" on="1"/>
        <pt x="350" y="1165" on="1"/>
      </contour>
    </TTGlyph>
    <TTGlyph name="Lacute" xMin="180" yMin="0" xMax="1066" yMax="1822">
      <component glyphName="L" x="0" y="0" flags="0x204"/>
      <component glyphName="acute" x="55" y="345" flags="0x4"/>
    </TTGlyph>
    <TTGlyph name="Lacute.smcp" xMin="107" yMin="0" xMax="875" yMax="1451">
      <component glyphName="L.smcp" x="0" y="0" flags="0x204"/>
      <component glyphName="acute" x="-24" y="-26" flags="0x4"/>
    </TTGlyph>
    <TTGlyph name="Lambda" xMin="49" yMin="0" xMax="1287" yMax="1456">
      <contour>
        <pt x="671" y="1171" on="1"/>
        <pt x="665" y="1171" on="1"/>
        <pt x="250" y="0" on="1"/>
        <pt x="49" y="0" on="1"/>
        <pt x="583" y="1456" on="1"/>
        <pt x="753" y="1456" on="1"/>
        <pt x="1287" y="0" on="1"/>
        <pt x="1086" y="0" on="1"/>
      </contour>
    </TTGlyph>
    <TTGlyph name="Lcaron" xMin="180" yMin="0" xMax="1066" yMax="1457">
      <component glyphName="L" x="0" y="0" flags="0x204"/>
      <component glyphName="commaaccent" x="482" y="1214" flags="0x4"/>
    </TTGlyph>
    <TTGlyph name="Lcaron.smcp" xMin="153" yMin="0" xMax="875" yMax="1166">
      <component glyphName="L.smcp" x="0" y="0" flags="0x204"/>
      <component glyphName="commaaccent" x="331" y="923" flags="0x4"/>
    </TTGlyph>
    <TTGlyph name="Lcommaaccent" xMin="180" yMin="-475" xMax="1066" yMax="1456">
      <component glyphName="L" x="0" y="0" flags="0x204"/>
      <component glyphName="commaaccent" x="379" y="-341" flags="0x4"/>
    </TTGlyph>
    <TTGlyph name="Lcommaaccent.smcp" xMin="153" yMin="-477" xMax="875" yMax="1165">
      <component glyphName="L.smcp" x="0" y="0" flags="0x204"/>
      <component glyphName="commaaccent" x="227" y="-343" flags="0x4"/>
    </TTGlyph>
    <TTGlyph name="Ldot" xMin="180" yMin="0" xMax="1066" yMax="1456">
      <component glyphName="L" x="0" y="0" flags="0x204"/>
      <component glyphName="dotaccent" x="453" y="-567" flags="0x4"/>
    </TTGlyph>
    <TTGlyph name="Ldot.smcp" xMin="153" yMin="0" xMax="875" yMax="1165">
      <component glyphName="L.smcp" x="0" y="0" flags="0x204"/>
      <component glyphName="dotaccent" x="305" y="-726" flags="0x4"/>
    </TTGlyph>
    <TTGlyph name="Lslash" xMin="40" yMin="0" xMax="1049" yMax="1456">
      <contour>
        <pt x="360" y="843" on="1"/>
        <pt x="629" y="929" on="1"/>
        <pt x="629" y="763" on="1"/>
        <pt x="360" y="677" on="1"/>
        <pt x="360" y="154" on="1"/>
        <pt x="1049" y="154" on="1"/>
        <pt x="1049" y="0" on="1"/>
        <pt x="163" y="0" on="1"/>
        <pt x="163" y="615" on="1"/>
        <pt x="40" y="576" on="1"/>
        <pt x="40" y="742" on="1"/>
        <pt x="163" y="781" on="1"/>
        <pt x="163" y="1456" on="1"/>
        <pt x="360" y="1456" on="1"/>
      </contour>
    </TTGlyph>
    <TTGlyph name="M" xMin="180" yMin="0" xMax="1618" yMax="1456">
      <contour>
        <pt x="432" y="1456" on="1"/>
        <pt x="896" y="273" on="1"/>
        <pt x="902" y="273" on="1"/>
        <pt x="1366" y="1456" on="1"/>
        <pt x="1618" y="1456" on="1"/>
        <pt x="1618" y="0" on="1"/>
        <pt x="1421" y="0" on="1"/>
        <pt x="1421" y="576" on="1"/>
        <pt x="1441" y="1168" on="1"/>
        <pt x="1436" y="1169" on="1"/>
        <pt x="964" y="0" on="1"/>
        <pt x="833" y="0" on="1"/>
        <pt x="363" y="1166" on="1"/>
        <pt x="358" y="1165" on="1"/>
        <pt x="377" y="576" on="1"/>
        <pt x="377" y="0" on="1"/>
        <pt x="180" y="0" on="1"/>
        <pt x="180" y="1456" on="1"/>
      </contour>
    </TTGlyph>
    <TTGlyph name="M.smcp" xMin="153" yMin="0" xMax="1365" yMax="1165">
      <contour>
        <pt x="759" y="259" on="1"/>
        <pt x="765" y="259" on="1"/>
        <pt x="1119" y="1165" on="1"/>
        <pt x="1365" y="1165" on="1"/>
        <pt x="1365" y="0" on="1"/>
        <pt x="1168" y="0" on="1"/>
        <pt x="1168" y="809" on="1"/>
        <pt x="1162" y="811" on="1"/>
        <pt x="830" y="0" on="1"/>
        <pt x="694" y="0" on="1"/>
        <pt x="356" y="829" on="1"/>
        <pt x="350" y="827" on="1"/>
        <pt x="350" y="0" on="1"/>
        <pt x="153" y="0" on="1"/>
        <pt x="153" y="1165" on="1"/>
        <pt x="407" y="1165" on="1"/>
      </contour>
    </TTGlyph>
    <TTGlyph name="Mu" xMin="180" yMin="0" xMax="1618" yMax="1456">
      <component glyphName="M" x="0" y="0" flags="0x204"/>
    </TTGlyph>
    <TTGlyph name="N" xMin="180" yMin="0" xMax="1281" yMax="1456">
      <contour>
        <pt x="1281" y="0" on="1"/>
        <pt x="1084" y="0" on="1"/>
        <pt x="383" y="1126" on="1"/>
        <pt x="377" y="1124" on="1"/>
        <pt x="377" y="0" on="1"/>
        <pt x="180" y="0" on="1"/>
        <pt x="180" y="1456" on="1"/>
        <pt x="377" y="1456" on="1"/>
        <pt x="1078" y="332" on="1"/>
        <pt x="1084" y="334" on="1"/>
        <pt x="1084" y="1456" on="1"/>
        <pt x="1281" y="1456" on="1"/>
      </contour>
    </TTGlyph>
    <TTGlyph name="N.smcp" xMin="153" yMin="0" xMax="1142" yMax="1165">
      <contour>
        <pt x="1142" y="0" on="1"/>
        <pt x="946" y="0" on="1"/>
        <pt x="356" y="859" on="1"/>
        <pt x="350" y="857" on="1"/>
        <pt x="350" y="0" on="1"/>
        <pt x="153" y="0" on="1"/>
        <pt x="153" y="1165" on="1"/>
        <pt x="350" y="1165" on="1"/>
        <pt x="940" y="306" on="1"/>
        <pt x="946" y="308" on="1"/>
        <pt x="946" y="1165" on="1"/>
        <pt x="1142" y="1165" on="1"/>
      </contour>
    </TTGlyph>
    <TTGlyph name="Nacute" xMin="180" yMin="0" xMax="1281" yMax="1822">
      <component glyphName="N" x="0" y="0" flags="0x204"/>
      <component glyphName="acute" x="507" y="345" flags="0x4"/>
    </TTGlyph>
    <TTGlyph name="Nacute.smcp" xMin="153" yMin="0" xMax="1142" yMax="1499">
      <component glyphName="N.smcp" x="0" y="0" flags="0x204"/>
      <component glyphName="acute" x="407" y="22" flags="0x4"/>
    </TTGlyph>
    <TTGlyph name="Ncaron" xMin="180" yMin="0" xMax="1281" yMax="1865">
      <component glyphName="N" x="0" y="0" flags="0x204"/>
      <component glyphName="caron" x="274" y="350" flags="0x4"/>
    </TTGlyph>
    <TTGlyph name="Ncaron.smcp" xMin="153" yMin="0" xMax="1142" yMax="1542">
      <component glyphName="N.smcp" x="0" y="0" flags="0x204"/>
      <component glyphName="caron" x="174" y="27" flags="0x4"/>
    </TTGlyph>
    <TTGlyph name="Ncommaaccent" xMin="180" yMin="-475" xMax="1281" yMax="1456">
      <component glyphName="N" x="0" y="0" flags="0x204"/>
      <component glyphName="commaaccent" x="479" y="-341" flags="0x4"/>
    </TTGlyph>
    <TTGlyph name="Ncommaaccent.smcp" xMin="153" yMin="-477" xMax="1142" yMax="1165">
      <component glyphName="N.smcp" x="0" y="0" flags="0x204"/>
      <component glyphName="commaaccent" x="379" y="-343" flags="0x4"/>
    </TTGlyph>
    <TTGlyph name="Ntilde" xMin="180" yMin="0" xMax="1281" yMax="1876">
      <component glyphName="N" x="0" y="0" flags="0x204"/>
      <component glyphName="tilde" x="246" y="353" flags="0x4"/>
    </TTGlyph>
    <TTGlyph name="Ntilde.smcp" xMin="153" yMin="0" xMax="1142" yMax="1553">
      <component glyphName="N.smcp" x="0" y="0" flags="0x204"/>
      <component glyphName="tilde" x="146" y="30" flags="0x4"/>
    </TTGlyph>
    <TTGlyph name="Nu" xMin="180" yMin="0" xMax="1281" yMax="1456">
      <component glyphName="N" x="0" y="0" flags="0x204"/>
    </TTGlyph>
    <TTGlyph name="O" xMin="113" yMin="-21" xMax="1282" yMax="1477">
      <contour>
        <pt x="1282" y="598" on="1"/>
        <pt x="1282" y="331" on="0"/>
        <pt x="951" y="-21" on="0"/>
        <pt x="687" y="-21" on="1"/>
        <pt x="432" y="-21" on="0"/>
        <pt x="113" y="331" on="0"/>
        <pt x="113" y="598" on="1"/>
        <pt x="113" y="857" on="1"/>
        <pt x="113" y="1123" on="0"/>
        <pt x="432" y="1477" on="0"/>
        <pt x="687" y="1477" on="1"/>
        <pt x="951" y="1477" on="0"/>
        <pt x="1282" y="1124" on="0"/>
        <pt x="1282" y="857" on="1"/>
      </contour>
      <contour>
        <pt x="1085" y="859" on="1"/>
        <pt x="1085" y="1059" on="0"/>
        <pt x="869" y="1315" on="0"/>
        <pt x="687" y="1315" on="1"/>
        <pt x="515" y="1315" on="0"/>
        <pt x="310" y="1059" on="0"/>
        <pt x="310" y="859" on="1"/>
        <pt x="310" y="598" on="1"/>
        <pt x="310" y="396" on="0"/>
        <pt x="515" y="140" on="0"/>
        <pt x="687" y="140" on="1"/>
        <pt x="870" y="140" on="0"/>
        <pt x="1085" y="395" on="0"/>
        <pt x="1085" y="598" on="1"/>
      </contour>
    </TTGlyph>
    <TTGlyph name="O.smcp" xMin="112" yMin="-17" xMax="1115" yMax="1181">
      <contour>
        <pt x="1115" y="461" on="1"/>
        <pt x="1115" y="247" on="0"/>
        <pt x="838" y="-17" on="0"/>
        <pt x="614" y="-17" on="1"/>
        <pt x="391" y="-17" on="0"/>
        <pt x="112" y="248" on="0"/>
        <pt x="112" y="461" on="1"/>
        <pt x="112" y="704" on="1"/>
        <pt x="112" y="916" on="0"/>
        <pt x="389" y="1181" on="0"/>
        <pt x="612" y="1181" on="1"/>
        <pt x="836" y="1181" on="0"/>
        <pt x="1115" y="916" on="0"/>
        <pt x="1115" y="704" on="1"/>
      </contour>
      <contour>
        <pt x="918" y="705" on="1"/>
        <pt x="918" y="856" on="0"/>
        <pt x="754" y="1028" on="0"/>
        <pt x="612" y="1028" on="1"/>
        <pt x="471" y="1028" on="0"/>
        <pt x="309" y="856" on="0"/>
        <pt x="309" y="705" on="1"/>
        <pt x="309" y="461" on="1"/>
        <pt x="309" y="307" on="0"/>
        <pt x="472" y="135" on="0"/>
        <pt x="614" y="135" on="1"/>
        <pt x="756" y="135" on="0"/>
        <pt x="918" y="307" on="0"/>
        <pt x="918" y="461" on="1"/>
      </contour>
    </TTGlyph>
    <TTGlyph name="OE" xMin="104" yMin="-21" xMax="1871" yMax="1477">
      <contour>
        <pt x="1871" y="0" on="1"/>
        <pt x="953" y="0" on="1"/>
        <pt x="861" y="-10" on="0"/>
        <pt x="731" y="-21" on="0"/>
        <pt x="664" y="-21" on="1"/>
        <pt x="415" y="-21" on="0"/>
        <pt x="104" y="311" on="0"/>
        <pt x="104" y="576" on="1"/>
        <pt x="104" y="880" on="1"/>
        <pt x="104" y="1145" on="0"/>
        <pt x="413" y="1477" on="0"/>
        <pt x="662" y="1477" on="1"/>
        <pt x="731" y="1477" on="0"/>
        <pt x="874" y="1465" on="0"/>
        <pt x="953" y="1456" on="1"/>
        <pt x="1860" y="1456" on="1"/>
        <pt x="1860" y="1301" on="1"/>
        <pt x="1102" y="1301" on="1"/>
        <pt x="1102" y="830" on="1"/>
        <pt x="1769" y="830" on="1"/>
        <pt x="1769" y="675" on="1"/>
        <pt x="1102" y="675" on="1"/>
        <pt x="1102" y="154" on="1"/>
        <pt x="1871" y="154" on="1"/>
      </contour>
      <contour>
        <pt x="664" y="134" on="1"/>
        <pt x="725" y="134" on="0"/>
        <pt x="847" y="143" on="0"/>
        <pt x="905" y="152" on="1"/>
        <pt x="905" y="1303" on="1"/>
        <pt x="844" y="1311" on="0"/>
        <pt x="722" y="1322" on="0"/>
        <pt x="662" y="1322" on="1"/>
        <pt x="493" y="1322" on="0"/>
        <pt x="301" y="1095" on="0"/>
        <pt x="301" y="882" on="1"/>
        <pt x="301" y="576" on="1"/>
        <pt x="301" y="362" on="0"/>
        <pt x="495" y="134" on="0"/>
      </contour>
    </TTGlyph>
    <TTGlyph name="Oacute" xMin="113" yMin="-21" xMax="1282" yMax="1843">
      <component glyphName="O" x="0" y="0" flags="0x204"/>
      <component glyphName="acute" x="477" y="366" flags="0x4"/>
    </TTGlyph>
    <TTGlyph name="Oacute.smcp" xMin="112" yMin="-17" xMax="1115" yMax="1515">
      <component glyphName="O.smcp" x="0" y="0" flags="0x204"/>
      <component glyphName="acute" x="376" y="38" flags="0x4"/>
    </TTGlyph>
    <TTGlyph name="Obreve" xMin="113" yMin="-21" xMax="1282" yMax="1891">
      <component glyphName="O" x="0" y="0" flags="0x204"/>
      <component glyphName="breve" x="270" y="435" flags="0x4"/>
    </TTGlyph>
    <TTGlyph name="Obreve.smcp" xMin="112" yMin="-17" xMax="1115" yMax="1563">
      <component glyphName="O.smcp" x="0" y="0" flags="0x204"/>
      <component glyphName="breve" x="169" y="107" flags="0x4"/>
    </TTGlyph>
    <TTGlyph name="Ocircumflex" xMin="113" yMin="-21" xMax="1282" yMax="1885">
      <component glyphName="O" x="0" y="0" flags="0x204"/>
      <component glyphName="circumflex" x="221" y="370" flags="0x4"/>
    </TTGlyph>
    <TTGlyph name="Ocircumflex.smcp" xMin="112" yMin="-17" xMax="1115" yMax="1557">
      <component glyphName="O.smcp" x="0" y="0" flags="0x204"/>
      <component glyphName="circumflex" x="120" y="42" flags="0x4"/>
    </TTGlyph>
    <TTGlyph name="Odieresis" xMin="113" yMin="-21" xMax="1282" yMax="1826">
      <component glyphName="O" x="0" y="0" flags="0x204"/>
      <component glyphName="dieresis" x="184" y="370" flags="0x4"/>
    </TTGlyph>
    <TTGlyph name="Odieresis.smcp" xMin="112" yMin="-17" xMax="1115" yMax="1498">
      <component glyphName="O.smcp" x="0" y="0" flags="0x204"/>
      <component glyphName="dieresis" x="83" y="42" flags="0x4"/>
    </TTGlyph>
    <TTGlyph name="Ograve" xMin="113" yMin="-21" xMax="1282" yMax="1847">
      <component glyphName="O" x="0" y="0" flags="0x204"/>
      <component glyphName="grave" x="291" y="370" flags="0x4"/>
    </TTGlyph>
    <TTGlyph name="Ograve.smcp" xMin="112" yMin="-17" xMax="1115" yMax="1519">
      <component glyphName="O.smcp" x="0" y="0" flags="0x204"/>
      <component glyphName="grave" x="190" y="42" flags="0x4"/>
    </TTGlyph>
    <TTGlyph name="Ohorn" xMin="108" yMin="-21" xMax="1535" yMax="1653">
      <contour>
        <pt x="1277" y="598" on="1"/>
        <pt x="1277" y="331" on="0"/>
        <pt x="946" y="-21" on="0"/>
        <pt x="682" y="-21" on="1"/>
        <pt x="427" y="-21" on="0"/>
        <pt x="108" y="331" on="0"/>
        <pt x="108" y="598" on="1"/>
        <pt x="108" y="857" on="1"/>
        <pt x="108" y="1123" on="0"/>
        <pt x="427" y="1477" on="0"/>
        <pt x="682" y="1477" on="1"/>
        <pt x="802" y="1477" on="0"/>
        <pt x="1008" y="1397" on="0"/>
        <pt x="1087" y="1324" on="1"/>
        <pt x="1210" y="1335" on="0"/>
        <pt x="1338" y="1506" on="0"/>
        <pt x="1338" y="1653" on="1"/>
        <pt x="1535" y="1653" on="1"/>
        <pt x="1535" y="1461" on="0"/>
        <pt x="1359" y="1218" on="0"/>
        <pt x="1197" y="1182" on="1"/>
        <pt x="1235" y="1111" on="0"/>
        <pt x="1277" y="945" on="0"/>
        <pt x="1277" y="857" on="1"/>
      </contour>
      <contour>
        <pt x="1080" y="859" on="1"/>
        <pt x="1080" y="1059" on="0"/>
        <pt x="864" y="1315" on="0"/>
        <pt x="682" y="1315" on="1"/>
        <pt x="510" y="1315" on="0"/>
        <pt x="305" y="1059" on="0"/>
        <pt x="305" y="859" on="1"/>
        <pt x="305" y="598" on="1"/>
        <pt x="305" y="396" on="0"/>
        <pt x="510" y="140" on="0"/>
        <pt x="682" y="140" on="1"/>
        <pt x="865" y="140" on="0"/>
        <pt x="1080" y="395" on="0"/>
        <pt x="1080" y="598" on="1"/>
      </contour>
    </TTGlyph>
    <TTGlyph name="Ohungarumlaut" xMin="113" yMin="-21" xMax="1282" yMax="1888">
      <component glyphName="O" x="0" y="0" flags="0x204"/>
      <component glyphName="hungarumlaut" x="362" y="370" flags="0x4"/>
    </TTGlyph>
    <TTGlyph name="Ohungarumlaut.smcp" xMin="112" yMin="-17" xMax="1115" yMax="1560">
      <component glyphName="O.smcp" x="0" y="0" flags="0x204"/>
      <component glyphName="hungarumlaut" x="261" y="42" flags="0x4"/>
    </TTGlyph>
    <TTGlyph name="Omacron" xMin="113" yMin="-21" xMax="1282" yMax="1807">
      <component glyphName="O" x="0" y="0" flags="0x204"/>
      <component glyphName="macron" x="220" y="351" flags="0x4"/>
    </TTGlyph>
    <TTGlyph name="Omacron.smcp" xMin="112" yMin="-17" xMax="1115" yMax="1479">
      <component glyphName="O.smcp" x="0" y="0" flags="0x204"/>
      <component glyphName="macron" x="119" y="23" flags="0x4"/>
    </TTGlyph>
    <TTGlyph name="Omega" xMin="112" yMin="0" xMax="1232" yMax="1477">
      <contour>
        <pt x="735" y="159" on="1"/>
        <pt x="876" y="184" on="0"/>
        <pt x="1033" y="471" on="0"/>
        <pt x="1033" y="722" on="1"/>
        <pt x="1033" y="840" on="1"/>
        <pt x="1033" y="1073" on="0"/>
        <pt x="840" y="1322" on="0"/>
        <pt x="670" y="1322" on="1"/>
        <pt x="501" y="1322" on="0"/>
        <pt x="309" y="1073" on="0"/>
        <pt x="309" y="840" on="1"/>
        <pt x="309" y="722" on="1"/>
        <pt x="309" y="471" on="0"/>
        <pt x="470" y="183" on="0"/>
        <pt x="613" y="159" on="1"/>
        <pt x="613" y="0" on="1"/>
        <pt x="118" y="0" on="1"/>
        <pt x="118" y="154" on="1"/>
        <pt x="352" y="154" on="1"/>
        <pt x="240" y="251" on="0"/>
        <pt x="112" y="558" on="0"/>
        <pt x="112" y="722" on="1"/>
        <pt x="112" y="838" on="1"/>
        <pt x="112" y="1122" on="0"/>
        <pt x="421" y="1477" on="0"/>
        <pt x="670" y="1477" on="1"/>
        <pt x="919" y="1477" on="0"/>
        <pt x="1230" y="1122" on="0"/>
        <pt x="1230" y="838" on="1"/>
        <pt x="1230" y="722" on="1"/>
        <pt x="1230" y="558" on="0"/>
        <pt x="1102" y="251" on="0"/>
        <pt x="992" y="154" on="1"/>
        <pt x="1232" y="154" on="1"/>
        <pt x="1232" y="0" on="1"/>
        <pt x="735" y="0" on="1"/>
      </contour>
    </TTGlyph>
    <TTGlyph name="Omegatonos" xMin="61" yMin="0" xMax="1252" yMax="1650">
      <component glyphName="Omega" x="20" y="0" flags="0x4"/>
      <component glyphName="tonos" x="-134" y="0" flags="0x4"/>
    </TTGlyph>
    <TTGlyph name="Omicron" xMin="113" yMin="-21" xMax="1282" yMax="1477">
      <component glyphName="O" x="0" y="0" flags="0x204"/>
    </TTGlyph>
    <TTGlyph name="Omicrontonos" xMin="68" yMin="-21" xMax="1302" yMax="1650">
      <component glyphName="O" x="20" y="0" flags="0x4"/>
      <component glyphName="tonos" x="-127" y="0" flags="0x4"/>
    </TTGlyph>
    <TTGlyph name="Oslash" xMin="113" yMin="-94" xMax="1282" yMax="1517">
      <contour>
        <pt x="1282" y="598" on="1"/>
        <pt x="1282" y="331" on="0"/>
        <pt x="951" y="-21" on="0"/>
        <pt x="687" y="-21" on="1"/>
        <pt x="602" y="-21" on="0"/>
        <pt x="451" y="20" on="0"/>
        <pt x="387" y="60" on="1"/>
        <pt x="296" y="-94" on="1"/>
        <pt x="147" y="-94" on="1"/>
        <pt x="286" y="140" on="1"/>
        <pt x="202" y="224" on="0"/>
        <pt x="113" y="460" on="0"/>
        <pt x="113" y="598" on="1"/>
        <pt x="113" y="857" on="1"/>
        <pt x="113" y="1123" on="0"/>
        <pt x="432" y="1477" on="0"/>
        <pt x="687" y="1477" on="1"/>
        <pt x="781" y="1477" on="0"/>
        <pt x="950" y="1426" on="0"/>
        <pt x="1022" y="1380" on="1"/>
        <pt x="1103" y="1517" on="1"/>
        <pt x="1252" y="1517" on="1"/>
        <pt x="1120" y="1296" on="1"/>
        <pt x="1197" y="1212" on="0"/>
        <pt x="1282" y="986" on="0"/>
        <pt x="1282" y="857" on="1"/>
      </contour>
      <contour>
        <pt x="310" y="598" on="1"/>
        <pt x="310" y="513" on="0"/>
        <pt x="348" y="367" on="0"/>
        <pt x="383" y="315" on="1"/>
        <pt x="389" y="314" on="1"/>
        <pt x="933" y="1230" on="1"/>
        <pt x="883" y="1271" on="0"/>
        <pt x="759" y="1315" on="0"/>
        <pt x="687" y="1315" on="1"/>
        <pt x="515" y="1315" on="0"/>
        <pt x="310" y="1059" on="0"/>
        <pt x="310" y="859" on="1"/>
      </contour>
      <contour>
        <pt x="1085" y="859" on="1"/>
        <pt x="1085" y="934" on="0"/>
        <pt x="1052" y="1068" on="0"/>
        <pt x="1022" y="1118" on="1"/>
        <pt x="1016" y="1119" on="1"/>
        <pt x="475" y="208" on="1"/>
        <pt x="519" y="174" on="0"/>
        <pt x="625" y="140" on="0"/>
        <pt x="687" y="140" on="1"/>
        <pt x="870" y="140" on="0"/>
        <pt x="1085" y="395" on="0"/>
        <pt x="1085" y="598" on="1"/>
      </contour>
    </TTGlyph>
    <TTGlyph name="Oslashacute" xMin="113" yMin="-94" xMax="1282" yMax="1884">
      <component glyphName="Oslash" x="0" y="0" flags="0x204"/>
      <component glyphName="acute" x="477" y="407" flags="0x4"/>
    </TTGlyph>
    <TTGlyph name="Otilde" xMin="113" yMin="-21" xMax="1282" yMax="1897">
      <component glyphName="O" x="0" y="0" flags="0x204"/>
      <component glyphName="tilde" x="216" y="374" flags="0x4"/>
    </TTGlyph>
    <TTGlyph name="Otilde.smcp" xMin="112" yMin="-17" xMax="1115" yMax="1569">
      <component glyphName="O.smcp" x="0" y="0" flags="0x204"/>
      <component glyphName="tilde" x="115" y="46" flags="0x4"/>
    </TTGlyph>
    <TTGlyph name="P" xMin="180" yMin="0" xMax="1228" yMax="1456">
      <contour>
        <pt x="377" y="584" on="1"/>
        <pt x="377" y="0" on="1"/>
        <pt x="180" y="0" on="1"/>
        <pt x="180" y="1456" on="1"/>
        <pt x="737" y="1456" on="1"/>
        <pt x="970" y="1456" on="0"/>
        <pt x="1228" y="1216" on="0"/>
        <pt x="1228" y="1020" on="1"/>
        <pt x="1228" y="821" on="0"/>
        <pt x="970" y="584" on="0"/>
        <pt x="737" y="584" on="1"/>
      </contour>
      <contour>
        <pt x="377" y="738" on="1"/>
        <pt x="737" y="738" on="1"/>
        <pt x="885" y="738" on="0"/>
        <pt x="1031" y="897" on="0"/>
        <pt x="1031" y="1018" on="1"/>
        <pt x="1031" y="1139" on="0"/>
        <pt x="884" y="1301" on="0"/>
        <pt x="737" y="1301" on="1"/>
        <pt x="377" y="1301" on="1"/>
      </contour>
    </TTGlyph>
    <TTGlyph name="P.smcp" xMin="153" yMin="0" xMax="1055" yMax="1165">
      <contour>
        <pt x="350" y="420" on="1"/>
        <pt x="350" y="0" on="1"/>
        <pt x="153" y="0" on="1"/>
        <pt x="153" y="1165" on="1"/>
        <pt x="619" y="1165" on="1"/>
        <pt x="822" y="1165" on="0"/>
        <pt x="1055" y="957" on="0"/>
        <pt x="1055" y="792" on="1"/>
        <pt x="1055" y="626" on="0"/>
        <pt x="822" y="420" on="0"/>
        <pt x="619" y="420" on="1"/>
      </contour>
      <contour>
        <pt x="350" y="574" on="1"/>
        <pt x="619" y="574" on="1"/>
        <pt x="736" y="574" on="0"/>
        <pt x="857" y="700" on="0"/>
        <pt x="857" y="790" on="1"/>
        <pt x="857" y="882" on="0"/>
        <pt x="736" y="1012" on="0"/>
        <pt x="619" y="1012" on="1"/>
        <pt x="350" y="1012" on="1"/>
      </contour>
    </TTGlyph>
    <TTGlyph name="Phi" xMin="84" yMin="0" xMax="1357" yMax="1456">
      <contour>
        <pt x="820" y="1229" on="1"/>
        <pt x="1050" y="1224" on="0"/>
        <pt x="1357" y="941" on="0"/>
        <pt x="1357" y="723" on="1"/>
        <pt x="1357" y="502" on="0"/>
        <pt x="1050" y="217" on="0"/>
        <pt x="820" y="213" on="1"/>
        <pt x="820" y="0" on="1"/>
        <pt x="623" y="0" on="1"/>
        <pt x="623" y="213" on="1"/>
        <pt x="391" y="216" on="0"/>
        <pt x="84" y="500" on="0"/>
        <pt x="84" y="721" on="1"/>
        <pt x="84" y="940" on="0"/>
        <pt x="391" y="1226" on="0"/>
        <pt x="623" y="1230" on="1"/>
        <pt x="623" y="1456" on="1"/>
        <pt x="820" y="1456" on="1"/>
      </contour>
      <contour>
        <pt x="279" y="721" on="1"/>
        <pt x="279" y="560" on="0"/>
        <pt x="456" y="373" on="0"/>
        <pt x="617" y="374" on="1"/>
        <pt x="623" y="376" on="1"/>
        <pt x="623" y="1067" on="1"/>
        <pt x="617" y="1069" on="1"/>
        <pt x="457" y="1070" on="0"/>
        <pt x="279" y="881" on="0"/>
      </contour>
      <contour>
        <pt x="1161" y="723" on="1"/>
        <pt x="1161" y="882" on="0"/>
        <pt x="983" y="1069" on="0"/>
        <pt x="826" y="1069" on="1"/>
        <pt x="820" y="1067" on="1"/>
        <pt x="820" y="376" on="1"/>
        <pt x="826" y="374" on="1"/>
        <pt x="983" y="373" on="0"/>
        <pt x="1161" y="562" on="0"/>
      </contour>
    </TTGlyph>
    <TTGlyph name="Pi" xMin="180" yMin="0" xMax="1283" yMax="1456">
      <contour>
        <pt x="1283" y="0" on="1"/>
        <pt x="1085" y="0" on="1"/>
        <pt x="1085" y="1301" on="1"/>
        <pt x="377" y="1301" on="1"/>
        <pt x="377" y="0" on="1"/>
        <pt x="180" y="0" on="1"/>
        <pt x="180" y="1456" on="1"/>
        <pt x="1283" y="1456" on="1"/>
      </contour>
    </TTGlyph>
    <TTGlyph name="Psi" xMin="87" yMin="0" xMax="1307" yMax="1456">
      <contour>
        <pt x="787" y="485" on="1"/>
        <pt x="793" y="483" on="1"/>
        <pt x="937" y="502" on="0"/>
        <pt x="1110" y="713" on="0"/>
        <pt x="1110" y="885" on="1"/>
        <pt x="1110" y="1456" on="1"/>
        <pt x="1307" y="1456" on="1"/>
        <pt x="1307" y="885" on="1"/>
        <pt x="1307" y="640" on="0"/>
        <pt x="1021" y="343" on="0"/>
        <pt x="787" y="319" on="1"/>
        <pt x="787" y="0" on="1"/>
        <pt x="589" y="0" on="1"/>
        <pt x="589" y="320" on="1"/>
        <pt x="362" y="344" on="0"/>
        <pt x="87" y="640" on="0"/>
        <pt x="87" y="885" on="1"/>
        <pt x="87" y="1456" on="1"/>
        <pt x="283" y="1456" on="1"/>
        <pt x="283" y="885" on="1"/>
        <pt x="283" y="715" on="0"/>
        <pt x="447" y="505" on="0"/>
        <pt x="583" y="485" on="1"/>
        <pt x="589" y="486" on="1"/>
        <pt x="589" y="1456" on="1"/>
        <pt x="787" y="1456" on="1"/>
      </contour>
    </TTGlyph>
    <TTGlyph name="Q" xMin="113" yMin="-232" xMax="1339" yMax="1477">
      <contour>
        <pt x="1282" y="598" on="1"/>
        <pt x="1282" y="456" on="0"/>
        <pt x="1182" y="214" on="0"/>
        <pt x="1092" y="130" on="1"/>
        <pt x="1339" y="-103" on="1"/>
        <pt x="1204" y="-232" on="1"/>
        <pt x="928" y="25" on="1"/>
        <pt x="872" y="2" on="0"/>
        <pt x="751" y="-21" on="0"/>
        <pt x="687" y="-21" on="1"/>
        <pt x="432" y="-21" on="0"/>
        <pt x="113" y="331" on="0"/>
        <pt x="113" y="598" on="1"/>
        <pt x="113" y="857" on="1"/>
        <pt x="113" y="1123" on="0"/>
        <pt x="432" y="1477" on="0"/>
        <pt x="687" y="1477" on="1"/>
        <pt x="951" y="1477" on="0"/>
        <pt x="1282" y="1124" on="0"/>
        <pt x="1282" y="857" on="1"/>
      </contour>
      <contour>
        <pt x="1085" y="859" on="1"/>
        <pt x="1085" y="1059" on="0"/>
        <pt x="869" y="1315" on="0"/>
        <pt x="687" y="1315" on="1"/>
        <pt x="515" y="1315" on="0"/>
        <pt x="310" y="1059" on="0"/>
        <pt x="310" y="859" on="1"/>
        <pt x="310" y="598" on="1"/>
        <pt x="310" y="396" on="0"/>
        <pt x="515" y="140" on="0"/>
        <pt x="687" y="140" on="1"/>
        <pt x="870" y="140" on="0"/>
        <pt x="1085" y="395" on="0"/>
        <pt x="1085" y="598" on="1"/>
      </contour>
    </TTGlyph>
    <TTGlyph name="Q.smcp" xMin="112" yMin="-118" xMax="1178" yMax="1181">
      <contour>
        <pt x="1115" y="461" on="1"/>
        <pt x="1115" y="372" on="0"/>
        <pt x="1063" y="217" on="0"/>
        <pt x="1015" y="157" on="1"/>
        <pt x="1178" y="-2" on="1"/>
        <pt x="1043" y="-118" on="1"/>
        <pt x="876" y="43" on="1"/>
        <pt x="820" y="13" on="0"/>
        <pt x="687" y="-17" on="0"/>
        <pt x="614" y="-17" on="1"/>
        <pt x="391" y="-17" on="0"/>
        <pt x="112" y="248" on="0"/>
        <pt x="112" y="461" on="1"/>
        <pt x="112" y="704" on="1"/>
        <pt x="112" y="916" on="0"/>
        <pt x="389" y="1181" on="0"/>
        <pt x="612" y="1181" on="1"/>
        <pt x="836" y="1181" on="0"/>
        <pt x="1115" y="916" on="0"/>
        <pt x="1115" y="704" on="1"/>
      </contour>
      <contour>
        <pt x="918" y="705" on="1"/>
        <pt x="918" y="856" on="0"/>
        <pt x="754" y="1028" on="0"/>
        <pt x="612" y="1028" on="1"/>
        <pt x="471" y="1028" on="0"/>
        <pt x="309" y="856" on="0"/>
        <pt x="309" y="705" on="1"/>
        <pt x="309" y="461" on="1"/>
        <pt x="309" y="307" on="0"/>
        <pt x="472" y="135" on="0"/>
        <pt x="614" y="135" on="1"/>
        <pt x="756" y="135" on="0"/>
        <pt x="918" y="307" on="0"/>
        <pt x="918" y="461" on="1"/>
      </contour>
    </TTGlyph>
    <TTGlyph name="R" xMin="180" yMin="0" xMax="1261" yMax="1455">
      <contour>
        <pt x="377" y="631" on="1"/>
        <pt x="377" y="0" on="1"/>
        <pt x="180" y="0" on="1"/>
        <pt x="180" y="1455" on="1"/>
        <pt x="707" y="1455" on="1"/>
        <pt x="946" y="1455" on="0"/>
        <pt x="1198" y="1243" on="0"/>
        <pt x="1198" y="1041" on="1"/>
        <pt x="1198" y="929" on="0"/>
        <pt x="1081" y="763" on="0"/>
        <pt x="969" y="714" on="1"/>
        <pt x="1089" y="675" on="0"/>
        <pt x="1194" y="500" on="0"/>
        <pt x="1194" y="371" on="1"/>
        <pt x="1194" y="234" on="1"/>
        <pt x="1194" y="166" on="0"/>
        <pt x="1224" y="58" on="0"/>
        <pt x="1261" y="24" on="1"/>
        <pt x="1261" y="0" on="1"/>
        <pt x="1058" y="0" on="1"/>
        <pt x="1019" y="34" on="0"/>
        <pt x="997" y="166" on="0"/>
        <pt x="997" y="236" on="1"/>
        <pt x="997" y="369" on="1"/>
        <pt x="997" y="487" on="0"/>
        <pt x="859" y="631" on="0"/>
        <pt x="743" y="631" on="1"/>
      </contour>
      <contour>
        <pt x="377" y="786" on="1"/>
        <pt x="687" y="786" on="1"/>
        <pt x="854" y="786" on="0"/>
        <pt x="1001" y="913" on="0"/>
        <pt x="1001" y="1043" on="1"/>
        <pt x="1001" y="1166" on="0"/>
        <pt x="858" y="1301" on="0"/>
        <pt x="707" y="1301" on="1"/>
        <pt x="377" y="1301" on="1"/>
      </contour>
    </TTGlyph>
    <TTGlyph name="R.smcp" xMin="153" yMin="0" xMax="1068" yMax="1165">
      <contour>
        <pt x="350" y="479" on="1"/>
        <pt x="350" y="0" on="1"/>
        <pt x="153" y="0" on="1"/>
        <pt x="153" y="1165" on="1"/>
        <pt x="614" y="1165" on="1"/>
        <pt x="819" y="1165" on="0"/>
        <pt x="1044" y="985" on="0"/>
        <pt x="1044" y="823" on="1"/>
        <pt x="1044" y="734" on="0"/>
        <pt x="945" y="608" on="0"/>
        <pt x="849" y="569" on="1"/>
        <pt x="953" y="539" on="0"/>
        <pt x="1044" y="395" on="0"/>
        <pt x="1044" y="290" on="1"/>
        <pt x="1044" y="172" on="1"/>
        <pt x="1044" y="127" on="0"/>
        <pt x="1055" y="41" on="0"/>
        <pt x="1068" y="19" on="1"/>
        <pt x="1068" y="0" on="1"/>
        <pt x="865" y="0" on="1"/>
        <pt x="853" y="23" on="0"/>
        <pt x="847" y="121" on="0"/>
        <pt x="847" y="173" on="1"/>
        <pt x="847" y="289" on="1"/>
        <pt x="847" y="379" on="0"/>
        <pt x="743" y="479" on="0"/>
        <pt x="645" y="479" on="1"/>
      </contour>
      <contour>
        <pt x="350" y="633" on="1"/>
        <pt x="614" y="633" on="1"/>
        <pt x="734" y="633" on="0"/>
        <pt x="846" y="727" on="0"/>
        <pt x="846" y="815" on="1"/>
        <pt x="846" y="907" on="0"/>
        <pt x="733" y="1012" on="0"/>
        <pt x="614" y="1012" on="1"/>
        <pt x="350" y="1012" on="1"/>
      </contour>
    </TTGlyph>
    <TTGlyph name="Racute" xMin="180" yMin="0" xMax="1261" yMax="1822">
      <component glyphName="R" x="0" y="0" flags="0x204"/>
      <component glyphName="acute" x="399" y="345" flags="0x4"/>
    </TTGlyph>
    <TTGlyph name="Racute.smcp" xMin="153" yMin="0" xMax="1068" yMax="1499">
      <component glyphName="R.smcp" x="0" y="0" flags="0x204"/>
      <component glyphName="acute" x="293" y="22" flags="0x4"/>
    </TTGlyph>
    <TTGlyph name="Rcaron" xMin="180" yMin="0" xMax="1261" yMax="1865">
      <component glyphName="R" x="0" y="0" flags="0x204"/>
      <component glyphName="caron" x="166" y="350" flags="0x4"/>
    </TTGlyph>
    <TTGlyph name="Rcaron.smcp" xMin="153" yMin="0" xMax="1068" yMax="1542">
      <component glyphName="R.smcp" x="0" y="0" flags="0x204"/>
      <component glyphName="caron" x="60" y="27" flags="0x4"/>
    </TTGlyph>
    <TTGlyph name="Rcommaaccent" xMin="180" yMin="-475" xMax="1261" yMax="1455">
      <component glyphName="R" x="0" y="0" flags="0x204"/>
      <component glyphName="commaaccent" x="371" y="-341" flags="0x4"/>
    </TTGlyph>
    <TTGlyph name="Rcommaaccent.smcp" xMin="153" yMin="-477" xMax="1068" yMax="1165">
      <component glyphName="R.smcp" x="0" y="0" flags="0x204"/>
      <component glyphName="commaaccent" x="265" y="-343" flags="0x4"/>
    </TTGlyph>
    <TTGlyph name="Rho" xMin="180" yMin="0" xMax="1228" yMax="1456">
      <component glyphName="P" x="0" y="0" flags="0x204"/>
    </TTGlyph>
    <TTGlyph name="S" xMin="97" yMin="-21" xMax="1170" yMax="1477">
      <contour>
        <pt x="973" y="367" on="1"/>
        <pt x="973" y="467" on="0"/>
        <pt x="823" y="602" on="0"/>
        <pt x="632" y="648" on="1"/>
        <pt x="401" y="703" on="0"/>
        <pt x="142" y="917" on="0"/>
        <pt x="142" y="1079" on="1"/>
        <pt x="142" y="1249" on="0"/>
        <pt x="421" y="1477" on="0"/>
        <pt x="643" y="1477" on="1"/>
        <pt x="882" y="1477" on="0"/>
        <pt x="1165" y="1215" on="0"/>
        <pt x="1160" y="1042" on="1"/>
        <pt x="1158" y="1036" on="1"/>
        <pt x="970" y="1036" on="1"/>
        <pt x="970" y="1164" on="0"/>
        <pt x="801" y="1322" on="0"/>
        <pt x="643" y="1322" on="1"/>
        <pt x="496" y="1322" on="0"/>
        <pt x="339" y="1189" on="0"/>
        <pt x="339" y="1082" on="1"/>
        <pt x="339" y="987" on="0"/>
        <pt x="509" y="860" on="0"/>
        <pt x="700" y="812" on="1"/>
        <pt x="930" y="755" on="0"/>
        <pt x="1170" y="533" on="0"/>
        <pt x="1170" y="369" on="1"/>
        <pt x="1170" y="193" on="0"/>
        <pt x="882" y="-21" on="0"/>
        <pt x="650" y="-21" on="1"/>
        <pt x="432" y="-21" on="0"/>
        <pt x="97" y="215" on="0"/>
        <pt x="102" y="413" on="1"/>
        <pt x="104" y="419" on="1"/>
        <pt x="292" y="419" on="1"/>
        <pt x="292" y="279" on="0"/>
        <pt x="498" y="133" on="0"/>
        <pt x="650" y="133" on="1"/>
        <pt x="799" y="133" on="0"/>
        <pt x="973" y="259" on="0"/>
      </contour>
    </TTGlyph>
    <TTGlyph name="S.smcp" xMin="93" yMin="-17" xMax="1041" yMax="1181">
      <contour>
        <pt x="844" y="304" on="1"/>
        <pt x="844" y="375" on="0"/>
        <pt x="720" y="463" on="0"/>
        <pt x="558" y="503" on="1"/>
        <pt x="335" y="561" on="0"/>
        <pt x="132" y="710" on="0"/>
        <pt x="132" y="860" on="1"/>
        <pt x="132" y="1007" on="0"/>
        <pt x="375" y="1181" on="0"/>
        <pt x="581" y="1181" on="1"/>
        <pt x="791" y="1181" on="0"/>
        <pt x="1026" y="995" on="0"/>
        <pt x="1021" y="827" on="1"/>
        <pt x="1019" y="821" on="1"/>
        <pt x="832" y="821" on="1"/>
        <pt x="832" y="913" on="0"/>
        <pt x="700" y="1028" on="0"/>
        <pt x="581" y="1028" on="1"/>
        <pt x="456" y="1028" on="0"/>
        <pt x="329" y="935" on="0"/>
        <pt x="329" y="861" on="1"/>
        <pt x="329" y="788" on="0"/>
        <pt x="444" y="707" on="0"/>
        <pt x="622" y="664" on="1"/>
        <pt x="837" y="606" on="0"/>
        <pt x="1041" y="450" on="0"/>
        <pt x="1041" y="305" on="1"/>
        <pt x="1041" y="151" on="0"/>
        <pt x="787" y="-17" on="0"/>
        <pt x="569" y="-17" on="1"/>
        <pt x="367" y="-17" on="0"/>
        <pt x="93" y="153" on="0"/>
        <pt x="99" y="337" on="1"/>
        <pt x="100" y="343" on="1"/>
        <pt x="288" y="343" on="1"/>
        <pt x="288" y="235" on="0"/>
        <pt x="451" y="135" on="0"/>
        <pt x="569" y="135" on="1"/>
        <pt x="700" y="135" on="0"/>
        <pt x="844" y="229" on="0"/>
      </contour>
    </TTGlyph>
    <TTGlyph name="Sacute" xMin="97" yMin="-21" xMax="1170" yMax="1843">
      <component glyphName="S" x="0" y="0" flags="0x204"/>
      <component glyphName="acute" x="392" y="366" flags="0x4"/>
    </TTGlyph>
    <TTGlyph name="Sacute.smcp" xMin="93" yMin="-17" xMax="1041" yMax="1515">
      <component glyphName="S.smcp" x="0" y="0" flags="0x204"/>
      <component glyphName="acute" x="336" y="38" flags="0x4"/>
    </TTGlyph>
    <TTGlyph name="Scaron" xMin="97" yMin="-21" xMax="1170" yMax="1886">
      <component glyphName="S" x="0" y="0" flags="0x204"/>
      <component glyphName="caron" x="159" y="371" flags="0x4"/>
    </TTGlyph>
    <TTGlyph name="Scaron.smcp" xMin="93" yMin="-17" xMax="1041" yMax="1558">
      <component glyphName="S.smcp" x="0" y="0" flags="0x204"/>
      <component glyphName="caron" x="103" y="43" flags="0x4"/>
    </TTGlyph>
    <TTGlyph name="Scedilla" xMin="97" yMin="-443" xMax="1170" yMax="1477">
      <component glyphName="S" x="0" y="0" flags="0x204"/>
      <component glyphName="cedilla" x="397" y="-8" flags="0x4"/>
    </TTGlyph>
    <TTGlyph name="Scedilla.smcp" xMin="93" yMin="-440" xMax="1041" yMax="1181">
      <component glyphName="S.smcp" x="0" y="0" flags="0x204"/>
      <component glyphName="cedilla" x="341" y="-5" flags="0x4"/>
    </TTGlyph>
    <TTGlyph name="Scircumflex" xMin="97" yMin="-21" xMax="1170" yMax="1885">
      <component glyphName="S" x="0" y="0" flags="0x204"/>
      <component glyphName="circumflex" x="136" y="370" flags="0x4"/>
    </TTGlyph>
    <TTGlyph name="Scircumflex.smcp" xMin="93" yMin="-17" xMax="1041" yMax="1557">
      <component glyphName="S.smcp" x="0" y="0" flags="0x204"/>
      <component glyphName="circumflex" x="80" y="42" flags="0x4"/>
    </TTGlyph>
    <TTGlyph name="Scommaaccent" xMin="97" yMin="-495" xMax="1170" yMax="1477">
      <component glyphName="S" x="0" y="0" flags="0x204"/>
      <component glyphName="commaaccent" x="364" y="-361" flags="0x4"/>
    </TTGlyph>
    <TTGlyph name="Sigma" xMin="70" yMin="0" xMax="1096" yMax="1456">
      <contour>
        <pt x="758" y="715" on="1"/>
        <pt x="313" y="160" on="1"/>
        <pt x="316" y="155" on="1"/>
        <pt x="1096" y="155" on="1"/>
        <pt x="1096" y="0" on="1"/>
        <pt x="70" y="0" on="1"/>
        <pt x="70" y="147" on="1"/>
        <pt x="550" y="728" on="1"/>
        <pt x="70" y="1309" on="1"/>
        <pt x="70" y="1456" on="1"/>
        <pt x="1046" y="1456" on="1"/>
        <pt x="1046" y="1301" on="1"/>
        <pt x="316" y="1301" on="1"/>
        <pt x="313" y="1296" on="1"/>
        <pt x="758" y="739" on="1"/>
      </contour>
    </TTGlyph>
    <TTGlyph name="T" xMin="34" yMin="0" xMax="1166" yMax="1456">
      <contour>
        <pt x="1166" y="1301" on="1"/>
        <pt x="698" y="1301" on="1"/>
        <pt x="698" y="0" on="1"/>
        <pt x="501" y="0" on="1"/>
        <pt x="501" y="1301" on="1"/>
        <pt x="34" y="1301" on="1"/>
        <pt x="34" y="1456" on="1"/>
        <pt x="1166" y="1456" on="1"/>
      </contour>
    </TTGlyph>
    <TTGlyph name="T.smcp" xMin="71" yMin="0" xMax="977" yMax="1165">
      <contour>
        <pt x="977" y="1012" on="1"/>
        <pt x="620" y="1012" on="1"/>
        <pt x="620" y="0" on="1"/>
        <pt x="423" y="0" on="1"/>
        <pt x="423" y="1012" on="1"/>
        <pt x="71" y="1012" on="1"/>
        <pt x="71" y="1165" on="1"/>
        <pt x="977" y="1165" on="1"/>
      </contour>
    </TTGlyph>
    <TTGlyph name="Tau" xMin="34" yMin="0" xMax="1166" yMax="1456">
      <component glyphName="T" x="0" y="0" flags="0x204"/>
    </TTGlyph>
    <TTGlyph name="Tbar" xMin="34" yMin="0" xMax="1166" yMax="1456">
      <contour>
        <pt x="918" y="820" on="1"/>
        <pt x="698" y="820" on="1"/>
        <pt x="698" y="0" on="1"/>
        <pt x="501" y="0" on="1"/>
        <pt x="501" y="820" on="1"/>
        <pt x="277" y="820" on="1"/>
        <pt x="277" y="975" on="1"/>
        <pt x="501" y="975" on="1"/>
        <pt x="501" y="1301" on="1"/>
        <pt x="34" y="1301" on="1"/>
        <pt x="34" y="1456" on="1"/>
        <pt x="1166" y="1456" on="1"/>
        <pt x="1166" y="1301" on="1"/>
        <pt x="698" y="1301" on="1"/>
        <pt x="698" y="975" on="1"/>
        <pt x="918" y="975" on="1"/>
      </contour>
    </TTGlyph>
    <TTGlyph name="Tbar.smcp" xMin="71" yMin="0" xMax="977" yMax="1165">
      <component glyphName="T.smcp" x="0" y="0" flags="0x204"/>
      <component glyphName="crossbar" x="45" y="-6" flags="0x4"/>
    </TTGlyph>
    <TTGlyph name="Tcaron" xMin="34" yMin="0" xMax="1166" yMax="1864">
      <component glyphName="T" x="0" y="0" flags="0x204"/>
      <component glyphName="caron" x="149" y="349" flags="0x4"/>
    </TTGlyph>
    <TTGlyph name="Tcaron.smcp" xMin="71" yMin="0" xMax="977" yMax="1541">
      <component glyphName="T.smcp" x="0" y="0" flags="0x204"/>
      <component glyphName="caron" x="61" y="26" flags="0x4"/>
    </TTGlyph>
    <TTGlyph name="Tcommaaccent" xMin="34" yMin="-475" xMax="1166" yMax="1456">
      <component glyphName="T" x="0" y="0" flags="0x204"/>
      <component glyphName="commaaccent" x="354" y="-341" flags="0x4"/>
    </TTGlyph>
    <TTGlyph name="Tcommaaccent.smcp" xMin="71" yMin="-477" xMax="977" yMax="1165">
      <component glyphName="T.smcp" x="0" y="0" flags="0x204"/>
      <component glyphName="commaaccent" x="266" y="-343" flags="0x4"/>
    </TTGlyph>
    <TTGlyph name="Theta" xMin="113" yMin="-21" xMax="1282" yMax="1477">
      <contour>
        <pt x="959" y="659" on="1"/>
        <pt x="450" y="659" on="1"/>
        <pt x="450" y="813" on="1"/>
        <pt x="959" y="813" on="1"/>
      </contour>
      <contour>
        <pt x="1282" y="598" on="1"/>
        <pt x="1282" y="331" on="0"/>
        <pt x="951" y="-21" on="0"/>
        <pt x="687" y="-21" on="1"/>
        <pt x="432" y="-21" on="0"/>
        <pt x="113" y="331" on="0"/>
        <pt x="113" y="598" on="1"/>
        <pt x="113" y="857" on="1"/>
        <pt x="113" y="1123" on="0"/>
        <pt x="432" y="1477" on="0"/>
        <pt x="687" y="1477" on="1"/>
        <pt x="951" y="1477" on="0"/>
        <pt x="1282" y="1124" on="0"/>
        <pt x="1282" y="857" on="1"/>
      </contour>
      <contour>
        <pt x="1085" y="859" on="1"/>
        <pt x="1085" y="1059" on="0"/>
        <pt x="869" y="1315" on="0"/>
        <pt x="687" y="1315" on="1"/>
        <pt x="515" y="1315" on="0"/>
        <pt x="310" y="1059" on="0"/>
        <pt x="310" y="859" on="1"/>
        <pt x="310" y="598" on="1"/>
        <pt x="310" y="396" on="0"/>
        <pt x="515" y="140" on="0"/>
        <pt x="687" y="140" on="1"/>
        <pt x="870" y="140" on="0"/>
        <pt x="1085" y="395" on="0"/>
        <pt x="1085" y="598" on="1"/>
      </contour>
    </TTGlyph>
    <TTGlyph name="Thorn" xMin="163" yMin="0" xMax="1121" yMax="1456">
      <contour>
        <pt x="360" y="1456" on="1"/>
        <pt x="360" y="1163" on="1"/>
        <pt x="629" y="1163" on="1"/>
        <pt x="861" y="1163" on="0"/>
        <pt x="1121" y="927" on="0"/>
        <pt x="1121" y="738" on="1"/>
        <pt x="1121" y="548" on="0"/>
        <pt x="861" y="313" on="0"/>
        <pt x="629" y="313" on="1"/>
        <pt x="360" y="313" on="1"/>
        <pt x="360" y="0" on="1"/>
        <pt x="163" y="0" on="1"/>
        <pt x="163" y="1456" on="1"/>
      </contour>
      <contour>
        <pt x="360" y="1009" on="1"/>
        <pt x="360" y="467" on="1"/>
        <pt x="629" y="467" on="1"/>
        <pt x="776" y="467" on="0"/>
        <pt x="923" y="623" on="0"/>
        <pt x="923" y="736" on="1"/>
        <pt x="923" y="850" on="0"/>
        <pt x="776" y="1009" on="0"/>
        <pt x="629" y="1009" on="1"/>
      </contour>
    </TTGlyph>
    <TTGlyph name="U" xMin="147" yMin="-21" xMax="1244" yMax="1456">
      <contour>
        <pt x="1244" y="1456" on="1"/>
        <pt x="1244" y="469" on="1"/>
        <pt x="1244" y="231" on="0"/>
        <pt x="935" y="-21" on="0"/>
        <pt x="686" y="-21" on="1"/>
        <pt x="446" y="-21" on="0"/>
        <pt x="147" y="232" on="0"/>
        <pt x="147" y="469" on="1"/>
        <pt x="147" y="1456" on="1"/>
        <pt x="344" y="1456" on="1"/>
        <pt x="344" y="469" on="1"/>
        <pt x="344" y="304" on="0"/>
        <pt x="532" y="133" on="0"/>
        <pt x="686" y="133" on="1"/>
        <pt x="848" y="133" on="0"/>
        <pt x="1047" y="304" on="0"/>
        <pt x="1047" y="469" on="1"/>
        <pt x="1047" y="1456" on="1"/>
      </contour>
    </TTGlyph>
    <TTGlyph name="U.smcp" xMin="137" yMin="-17" xMax="1140" yMax="1165">
      <contour>
        <pt x="1140" y="1165" on="1"/>
        <pt x="1140" y="398" on="1"/>
        <pt x="1140" y="203" on="0"/>
        <pt x="861" y="-17" on="0"/>
        <pt x="638" y="-17" on="1"/>
        <pt x="417" y="-17" on="0"/>
        <pt x="137" y="203" on="0"/>
        <pt x="137" y="398" on="1"/>
        <pt x="137" y="1165" on="1"/>
        <pt x="333" y="1165" on="1"/>
        <pt x="333" y="398" on="1"/>
        <pt x="333" y="275" on="0"/>
        <pt x="502" y="135" on="0"/>
        <pt x="638" y="135" on="1"/>
        <pt x="775" y="135" on="0"/>
        <pt x="944" y="274" on="0"/>
        <pt x="944" y="398" on="1"/>
        <pt x="944" y="1165" on="1"/>
      </contour>
    </TTGlyph>
    <TTGlyph name="Uacute" xMin="147" yMin="-21" xMax="1244" yMax="1822">
      <component glyphName="U" x="0" y="0" flags="0x204"/>
      <component glyphName="acute" x="476" y="345" flags="0x4"/>
    </TTGlyph>
    <TTGlyph name="Uacute.smcp" xMin="137" yMin="-17" xMax="1140" yMax="1500">
      <component glyphName="U.smcp" x="0" y="0" flags="0x204"/>
      <component glyphName="acute" x="405" y="23" flags="0x4"/>
    </TTGlyph>
    <TTGlyph name="Ubreve" xMin="147" yMin="-21" xMax="1244" yMax="1870">
      <component glyphName="U" x="0" y="0" flags="0x204"/>
      <component glyphName="breve" x="269" y="414" flags="0x4"/>
    </TTGlyph>
    <TTGlyph name="Ubreve.smcp" xMin="137" yMin="-17" xMax="1140" yMax="1548">
      <component glyphName="U.smcp" x="0" y="0" flags="0x204"/>
      <component glyphName="breve" x="198" y="92" flags="0x4"/>
    </TTGlyph>
    <TTGlyph name="Ucircumflex" xMin="147" yMin="-21" xMax="1244" yMax="1864">
      <component glyphName="U" x="0" y="0" flags="0x204"/>
      <component glyphName="circumflex" x="220" y="349" flags="0x4"/>
    </TTGlyph>
    <TTGlyph name="Ucircumflex.smcp" xMin="137" yMin="-17" xMax="1140" yMax="1542">
      <component glyphName="U.smcp" x="0" y="0" flags="0x204"/>
      <component glyphName="circumflex" x="149" y="27" flags="0x4"/>
    </TTGlyph>
    <TTGlyph name="Udieresis" xMin="147" yMin="-21" xMax="1244" yMax="1805">
      <component glyphName="U" x="0" y="0" flags="0x204"/>
      <component glyphName="dieresis" x="183" y="349" flags="0x4"/>
    </TTGlyph>
    <TTGlyph name="Udieresis.smcp" xMin="137" yMin="-17" xMax="1140" yMax="1483">
      <component glyphName="U.smcp" x="0" y="0" flags="0x204"/>
      <component glyphName="dieresis" x="112" y="27" flags="0x4"/>
    </TTGlyph>
    <TTGlyph name="Ugrave" xMin="147" yMin="-21" xMax="1244" yMax="1826">
      <component glyphName="U" x="0" y="0" flags="0x204"/>
      <component glyphName="grave" x="290" y="349" flags="0x4"/>
    </TTGlyph>
    <TTGlyph name="Ugrave.smcp" xMin="137" yMin="-17" xMax="1140" yMax="1504">
      <component glyphName="U.smcp" x="0" y="0" flags="0x204"/>
      <component glyphName="grave" x="219" y="27" flags="0x4"/>
    </TTGlyph>
    <TTGlyph name="Uhorn" xMin="147" yMin="-21" xMax="1623" yMax="1591">
      <contour>
        <pt x="1244" y="1456" on="1"/>
        <pt x="1244" y="1278" on="1"/>
        <pt x="1250" y="1276" on="1"/>
        <pt x="1336" y="1303" on="0"/>
        <pt x="1428" y="1466" on="0"/>
        <pt x="1428" y="1591" on="1"/>
        <pt x="1618" y="1591" on="1"/>
        <pt x="1621" y="1586" on="1"/>
        <pt x="1623" y="1393" on="0"/>
        <pt x="1427" y="1150" on="0"/>
        <pt x="1244" y="1116" on="1"/>
        <pt x="1244" y="469" on="1"/>
        <pt x="1244" y="231" on="0"/>
        <pt x="935" y="-21" on="0"/>
        <pt x="686" y="-21" on="1"/>
        <pt x="446" y="-21" on="0"/>
        <pt x="147" y="232" on="0"/>
        <pt x="147" y="469" on="1"/>
        <pt x="147" y="1456" on="1"/>
        <pt x="344" y="1456" on="1"/>
        <pt x="344" y="469" on="1"/>
        <pt x="344" y="304" on="0"/>
        <pt x="532" y="133" on="0"/>
        <pt x="686" y="133" on="1"/>
        <pt x="848" y="133" on="0"/>
        <pt x="1047" y="304" on="0"/>
        <pt x="1047" y="469" on="1"/>
        <pt x="1047" y="1456" on="1"/>
      </contour>
    </TTGlyph>
    <TTGlyph name="Uhungarumlaut" xMin="147" yMin="-21" xMax="1244" yMax="1867">
      <component glyphName="U" x="0" y="0" flags="0x204"/>
      <component glyphName="hungarumlaut" x="361" y="349" flags="0x4"/>
    </TTGlyph>
    <TTGlyph name="Uhungarumlaut.smcp" xMin="137" yMin="-17" xMax="1140" yMax="1545">
      <component glyphName="U.smcp" x="0" y="0" flags="0x204"/>
      <component glyphName="hungarumlaut" x="290" y="27" flags="0x4"/>
    </TTGlyph>
    <TTGlyph name="Umacron" xMin="147" yMin="-21" xMax="1244" yMax="1786">
      <component glyphName="U" x="0" y="0" flags="0x204"/>
      <component glyphName="macron" x="219" y="330" flags="0x4"/>
    </TTGlyph>
    <TTGlyph name="Umacron.smcp" xMin="137" yMin="-17" xMax="1140" yMax="1464">
      <component glyphName="U.smcp" x="0" y="0" flags="0x204"/>
      <component glyphName="macron" x="148" y="8" flags="0x4"/>
    </TTGlyph>
    <TTGlyph name="Uogonek" xMin="147" yMin="-432" xMax="1244" yMax="1456">
      <component glyphName="U" x="0" y="0" flags="0x204"/>
      <component glyphName="ogonek" x="425" y="0" flags="0x4"/>
    </TTGlyph>
    <TTGlyph name="Uogonek.smcp" xMin="137" yMin="-432" xMax="1140" yMax="1165">
      <component glyphName="U.smcp" x="0" y="0" flags="0x204"/>
      <component glyphName="ogonek" x="374" y="0" flags="0x4"/>
    </TTGlyph>
    <TTGlyph name="Upsilon" xMin="20" yMin="0" xMax="1230" yMax="1456">
      <component glyphName="Y" x="0" y="0" flags="0x204"/>
    </TTGlyph>
    <TTGlyph name="Upsilondieresis" xMin="20" yMin="0" xMax="1230" yMax="1804">
      <component glyphName="Y" x="0" y="0" flags="0x204"/>
      <component glyphName="dieresis" x="111" y="348" flags="0x4"/>
    </TTGlyph>
    <TTGlyph name="Upsilontonos" xMin="-127" yMin="0" xMax="1330" yMax="1650">
      <component glyphName="Y" x="100" y="0" flags="0x4"/>
      <component glyphName="tonos" x="-322" y="0" flags="0x4"/>
    </TTGlyph>
    <TTGlyph name="Uring" xMin="147" yMin="-21" xMax="1244" yMax="1932">
      <component glyphName="U" x="0" y="0" flags="0x204"/>
      <component glyphName="ring" x="355" y="426" flags="0x4"/>
    </TTGlyph>
    <TTGlyph name="Uring.smcp" xMin="137" yMin="-17" xMax="1140" yMax="1610">
      <component glyphName="U.smcp" x="0" y="0" flags="0x204"/>
      <component glyphName="ring" x="284" y="104" flags="0x4"/>
    </TTGlyph>
    <TTGlyph name="Utilde" xMin="147" yMin="-21" xMax="1244" yMax="1876">
      <component glyphName="U" x="0" y="0" flags="0x204"/>
      <component glyphName="tilde" x="215" y="353" flags="0x4"/>
    </TTGlyph>
    <TTGlyph name="Utilde.smcp" xMin="137" yMin="-17" xMax="1140" yMax="1554">
      <component glyphName="U.smcp" x="0" y="0" flags="0x204"/>
      <component glyphName="tilde" x="144" y="31" flags="0x4"/>
    </TTGlyph>
    <TTGlyph name="V" xMin="22" yMin="0" xMax="1273" yMax="1456">
      <contour>
        <pt x="612" y="362" on="1"/>
        <pt x="645" y="247" on="1"/>
        <pt x="651" y="247" on="1"/>
        <pt x="684" y="362" on="1"/>
        <pt x="1060" y="1456" on="1"/>
        <pt x="1273" y="1456" on="1"/>
        <pt x="732" y="0" on="1"/>
        <pt x="563" y="0" on="1"/>
        <pt x="22" y="1456" on="1"/>
        <pt x="236" y="1456" on="1"/>
      </contour>
    </TTGlyph>
    <TTGlyph name="V.smcp" xMin="39" yMin="0" xMax="1155" yMax="1165">
      <contour>
        <pt x="571" y="297" on="1"/>
        <pt x="594" y="215" on="1"/>
        <pt x="600" y="215" on="1"/>
        <pt x="623" y="295" on="1"/>
        <pt x="944" y="1165" on="1"/>
        <pt x="1155" y="1165" on="1"/>
        <pt x="689" y="0" on="1"/>
        <pt x="504" y="0" on="1"/>
        <pt x="39" y="1165" on="1"/>
        <pt x="250" y="1165" on="1"/>
      </contour>
    </TTGlyph>
    <TTGlyph name="W" xMin="54" yMin="0" xMax="1743" yMax="1456">
      <contour>
        <pt x="472" y="504" on="1"/>
        <pt x="499" y="322" on="1"/>
        <pt x="505" y="321" on="1"/>
        <pt x="544" y="504" on="1"/>
        <pt x="811" y="1456" on="1"/>
        <pt x="985" y="1456" on="1"/>
        <pt x="1254" y="504" on="1"/>
        <pt x="1294" y="317" on="1"/>
        <pt x="1300" y="317" on="1"/>
        <pt x="1329" y="504" on="1"/>
        <pt x="1546" y="1456" on="1"/>
        <pt x="1743" y="1456" on="1"/>
        <pt x="1392" y="0" on="1"/>
        <pt x="1216" y="0" on="1"/>
        <pt x="929" y="1010" on="1"/>
        <pt x="903" y="1141" on="1"/>
        <pt x="897" y="1141" on="1"/>
        <pt x="872" y="1010" on="1"/>
        <pt x="580" y="0" on="1"/>
        <pt x="404" y="0" on="1"/>
        <pt x="54" y="1456" on="1"/>
        <pt x="250" y="1456" on="1"/>
      </contour>
    </TTGlyph>
    <TTGlyph name="W.smcp" xMin="63" yMin="0" xMax="1472" yMax="1165">
      <contour>
        <pt x="455" y="264" on="1"/>
        <pt x="455" y="261" on="1"/>
        <pt x="456" y="266" on="1"/>
        <pt x="677" y="1165" on="1"/>
        <pt x="860" y="1165" on="1"/>
        <pt x="1081" y="264" on="1"/>
        <pt x="1081" y="261" on="1"/>
        <pt x="1082" y="266" on="1"/>
        <pt x="1261" y="1165" on="1"/>
        <pt x="1472" y="1165" on="1"/>
        <pt x="1178" y="0" on="1"/>
        <pt x="996" y="0" on="1"/>
        <pt x="771" y="855" on="1"/>
        <pt x="765" y="855" on="1"/>
        <pt x="538" y="0" on="1"/>
        <pt x="357" y="0" on="1"/>
        <pt x="63" y="1165" on="1"/>
        <pt x="274" y="1165" on="1"/>
      </contour>
    </TTGlyph>
    <TTGlyph name="Wacute" xMin="54" yMin="0" xMax="1743" yMax="1822">
      <component glyphName="W" x="0" y="0" flags="0x204"/>
      <component glyphName="acute" x="677" y="345" flags="0x4"/>
    </TTGlyph>
    <TTGlyph name="Wcircumflex" xMin="54" yMin="0" xMax="1743" yMax="1864">
      <component glyphName="W" x="0" y="0" flags="0x204"/>
      <component glyphName="circumflex" x="421" y="349" flags="0x4"/>
    </TTGlyph>
    <TTGlyph name="Wcircumflex.smcp" xMin="63" yMin="0" xMax="1472" yMax="1541">
      <component glyphName="W.smcp" x="0" y="0" flags="0x204"/>
      <component glyphName="circumflex" x="283" y="26" flags="0x4"/>
    </TTGlyph>
    <TTGlyph name="Wdieresis" xMin="54" yMin="0" xMax="1743" yMax="1805">
      <component glyphName="W" x="0" y="0" flags="0x204"/>
      <component glyphName="dieresis" x="384" y="349" flags="0x4"/>
    </TTGlyph>
    <TTGlyph name="Wgrave" xMin="54" yMin="0" xMax="1743" yMax="1826">
      <component glyphName="W" x="0" y="0" flags="0x204"/>
      <component glyphName="grave" x="491" y="349" flags="0x4"/>
    </TTGlyph>
    <TTGlyph name="X" xMin="66" yMin="0" xMax="1238" yMax="1456">
      <contour>
        <pt x="650" y="888" on="1"/>
        <pt x="990" y="1456" on="1"/>
        <pt x="1228" y="1456" on="1"/>
        <pt x="766" y="734" on="1"/>
        <pt x="1238" y="0" on="1"/>
        <pt x="1003" y="0" on="1"/>
        <pt x="654" y="578" on="1"/>
        <pt x="304" y="0" on="1"/>
        <pt x="66" y="0" on="1"/>
        <pt x="538" y="734" on="1"/>
        <pt x="76" y="1456" on="1"/>
        <pt x="312" y="1456" on="1"/>
      </contour>
    </TTGlyph>
    <TTGlyph name="X.smcp" xMin="55" yMin="0" xMax="1090" yMax="1165">
      <contour>
        <pt x="570" y="732" on="1"/>
        <pt x="848" y="1165" on="1"/>
        <pt x="1081" y="1165" on="1"/>
        <pt x="689" y="588" on="1"/>
        <pt x="1090" y="0" on="1"/>
        <pt x="860" y="0" on="1"/>
        <pt x="573" y="442" on="1"/>
        <pt x="288" y="0" on="1"/>
        <pt x="55" y="0" on="1"/>
        <pt x="457" y="588" on="1"/>
        <pt x="64" y="1165" on="1"/>
        <pt x="296" y="1165" on="1"/>
      </contour>
    </TTGlyph>
    <TTGlyph name="Xi" xMin="123" yMin="0" xMax="1060" yMax="1456">
      <contour>
        <pt x="123" y="154" on="1"/>
        <pt x="1060" y="154" on="1"/>
        <pt x="1060" y="0" on="1"/>
        <pt x="123" y="0" on="1"/>
      </contour>
      <contour>
        <pt x="206" y="833" on="1"/>
        <pt x="967" y="833" on="1"/>
        <pt x="967" y="678" on="1"/>
        <pt x="206" y="678" on="1"/>
      </contour>
      <contour>
        <pt x="124" y="1456" on="1"/>
        <pt x="1048" y="1456" on="1"/>
        <pt x="1048" y="1301" on="1"/>
        <pt x="124" y="1301" on="1"/>
      </contour>
    </TTGlyph>
    <TTGlyph name="Y" xMin="20" yMin="0" xMax="1230" yMax="1456">
      <contour>
        <pt x="625" y="716" on="1"/>
        <pt x="1005" y="1456" on="1"/>
        <pt x="1230" y="1456" on="1"/>
        <pt x="719" y="512" on="1"/>
        <pt x="719" y="0" on="1"/>
        <pt x="523" y="0" on="1"/>
        <pt x="523" y="525" on="1"/>
        <pt x="20" y="1456" on="1"/>
        <pt x="245" y="1456" on="1"/>
      </contour>
    </TTGlyph>
    <TTGlyph name="Y.smcp" xMin="30" yMin="0" xMax="1077" yMax="1165">
      <contour>
        <pt x="553" y="589" on="1"/>
        <pt x="856" y="1165" on="1"/>
        <pt x="1077" y="1165" on="1"/>
        <pt x="649" y="410" on="1"/>
        <pt x="649" y="0" on="1"/>
        <pt x="452" y="0" on="1"/>
        <pt x="452" y="419" on="1"/>
        <pt x="30" y="1165" on="1"/>
        <pt x="251" y="1165" on="1"/>
      </contour>
    </TTGlyph>
    <TTGlyph name="Yacute" xMin="20" yMin="0" xMax="1230" yMax="1821">
      <component glyphName="Y" x="0" y="0" flags="0x204"/>
      <component glyphName="acute" x="404" y="344" flags="0x4"/>
    </TTGlyph>
    <TTGlyph name="Yacute.smcp" xMin="30" yMin="0" xMax="1077" yMax="1498">
      <component glyphName="Y.smcp" x="0" y="0" flags="0x204"/>
      <component glyphName="acute" x="326" y="21" flags="0x4"/>
    </TTGlyph>
    <TTGlyph name="Ycircumflex" xMin="20" yMin="0" xMax="1230" yMax="1863">
      <component glyphName="Y" x="0" y="0" flags="0x204"/>
      <component glyphName="circumflex" x="148" y="348" flags="0x4"/>
    </TTGlyph>
    <TTGlyph name="Ycircumflex.smcp" xMin="30" yMin="0" xMax="1077" yMax="1540">
      <component glyphName="Y.smcp" x="0" y="0" flags="0x204"/>
      <component glyphName="circumflex" x="70" y="25" flags="0x4"/>
    </TTGlyph>
    <TTGlyph name="Ydieresis" xMin="20" yMin="0" xMax="1230" yMax="1804">
      <component glyphName="Y" x="0" y="0" flags="0x204"/>
      <component glyphName="dieresis" x="111" y="348" flags="0x4"/>
    </TTGlyph>
    <TTGlyph name="Ydieresis.smcp" xMin="30" yMin="0" xMax="1077" yMax="1481">
      <component glyphName="Y.smcp" x="0" y="0" flags="0x204"/>
      <component glyphName="dieresis" x="33" y="25" flags="0x4"/>
    </TTGlyph>
    <TTGlyph name="Ygrave" xMin="20" yMin="0" xMax="1230" yMax="1825">
      <component glyphName="Y" x="0" y="0" flags="0x204"/>
      <component glyphName="grave" x="218" y="348" flags="0x4"/>
    </TTGlyph>
    <TTGlyph name="Z" xMin="97" yMin="0" xMax="1133" yMax="1456">
      <contour>
        <pt x="319" y="154" on="1"/>
        <pt x="1133" y="154" on="1"/>
        <pt x="1133" y="0" on="1"/>
        <pt x="97" y="0" on="1"/>
        <pt x="97" y="146" on="1"/>
        <pt x="875" y="1301" on="1"/>
        <pt x="108" y="1301" on="1"/>
        <pt x="108" y="1456" on="1"/>
        <pt x="1100" y="1456" on="1"/>
        <pt x="1100" y="1315" on="1"/>
      </contour>
    </TTGlyph>
    <TTGlyph name="Z.smcp" xMin="78" yMin="0" xMax="984" yMax="1165">
      <contour>
        <pt x="317" y="152" on="1"/>
        <pt x="984" y="152" on="1"/>
        <pt x="984" y="0" on="1"/>
        <pt x="78" y="0" on="1"/>
        <pt x="78" y="118" on="1"/>
        <pt x="719" y="1012" on="1"/>
        <pt x="112" y="1012" on="1"/>
        <pt x="112" y="1165" on="1"/>
        <pt x="960" y="1165" on="1"/>
        <pt x="960" y="1051" on="1"/>
      </contour>
    </TTGlyph>
    <TTGlyph name="Zacute" xMin="97" yMin="0" xMax="1133" yMax="1822">
      <component glyphName="Z" x="0" y="0" flags="0x204"/>
      <component glyphName="acute" x="388" y="345" flags="0x4"/>
    </TTGlyph>
    <TTGlyph name="Zacute.smcp" xMin="78" yMin="0" xMax="984" yMax="1499">
      <component glyphName="Z.smcp" x="0" y="0" flags="0x204"/>
      <component glyphName="acute" x="291" y="22" flags="0x4"/>
    </TTGlyph>
    <TTGlyph name="Zcaron" xMin="97" yMin="0" xMax="1133" yMax="1865">
      <component glyphName="Z" x="0" y="0" flags="0x204"/>
      <component glyphName="caron" x="155" y="350" flags="0x4"/>
    </TTGlyph>
    <TTGlyph name="Zcaron.smcp" xMin="78" yMin="0" xMax="984" yMax="1542">
      <component glyphName="Z.smcp" x="0" y="0" flags="0x204"/>
      <component glyphName="caron" x="58" y="27" flags="0x4"/>
    </TTGlyph>
    <TTGlyph name="Zdotaccent" xMin="97" yMin="0" xMax="1133" yMax="1805">
      <component glyphName="Z" x="0" y="0" flags="0x204"/>
      <component glyphName="dotaccent" x="340" y="349" flags="0x4"/>
    </TTGlyph>
    <TTGlyph name="Zdotaccent.smcp" xMin="78" yMin="0" xMax="984" yMax="1482">
      <component glyphName="Z.smcp" x="0" y="0" flags="0x204"/>
      <component glyphName="dotaccent" x="243" y="26" flags="0x4"/>
    </TTGlyph>
    <TTGlyph name="Zeta" xMin="97" yMin="0" xMax="1133" yMax="1456">
      <component glyphName="Z" x="0" y="0" flags="0x204"/>
    </TTGlyph>
    <TTGlyph name="a" xMin="106" yMin="-21" xMax="1011" yMax="1102">
      <contour>
        <pt x="808" y="0" on="1"/>
        <pt x="798" y="49" on="0"/>
        <pt x="787" y="124" on="0"/>
        <pt x="786" y="162" on="1"/>
        <pt x="731" y="84" on="0"/>
        <pt x="554" y="-21" on="0"/>
        <pt x="452" y="-21" on="1"/>
        <pt x="283" y="-21" on="0"/>
        <pt x="106" y="152" on="0"/>
        <pt x="106" y="304" on="1"/>
        <pt x="106" y="459" on="0"/>
        <pt x="357" y="634" on="0"/>
        <pt x="572" y="634" on="1"/>
        <pt x="786" y="634" on="1"/>
        <pt x="786" y="741" on="1"/>
        <pt x="786" y="836" on="0"/>
        <pt x="670" y="947" on="0"/>
        <pt x="564" y="947" on="1"/>
        <pt x="469" y="947" on="0"/>
        <pt x="350" y="850" on="0"/>
        <pt x="350" y="782" on="1"/>
        <pt x="162" y="782" on="1"/>
        <pt x="160" y="788" on="1"/>
        <pt x="154" y="906" on="0"/>
        <pt x="389" y="1102" on="0"/>
        <pt x="575" y="1102" on="1"/>
        <pt x="759" y="1102" on="0"/>
        <pt x="983" y="915" on="0"/>
        <pt x="983" y="739" on="1"/>
        <pt x="983" y="218" on="1"/>
        <pt x="983" y="160" on="0"/>
        <pt x="995" y="52" on="0"/>
        <pt x="1011" y="0" on="1"/>
      </contour>
      <contour>
        <pt x="481" y="144" on="1"/>
        <pt x="588" y="144" on="0"/>
        <pt x="760" y="254" on="0"/>
        <pt x="786" y="325" on="1"/>
        <pt x="786" y="501" on="1"/>
        <pt x="565" y="501" on="1"/>
        <pt x="446" y="501" on="0"/>
        <pt x="303" y="381" on="0"/>
        <pt x="303" y="300" on="1"/>
        <pt x="303" y="228" on="0"/>
        <pt x="393" y="144" on="0"/>
      </contour>
    </TTGlyph>
    <TTGlyph name="aacute" xMin="106" yMin="-21" xMax="1011" yMax="1500">
      <component glyphName="a" x="0" y="0" flags="0x204"/>
      <component glyphName="acute" x="334" y="23" flags="0x4"/>
    </TTGlyph>
    <TTGlyph name="abreve" xMin="106" yMin="-21" xMax="1011" yMax="1548">
      <component glyphName="a" x="0" y="0" flags="0x204"/>
      <component glyphName="breve" x="127" y="92" flags="0x4"/>
    </TTGlyph>
    <TTGlyph name="acircumflex" xMin="106" yMin="-21" xMax="1011" yMax="1542">
      <component glyphName="a" x="0" y="0" flags="0x204"/>
      <component glyphName="circumflex" x="78" y="27" flags="0x4"/>
    </TTGlyph>
    <TTGlyph name="acute" xMin="131" yMin="1211" xMax="548" yMax="1477">
      <contour>
        <pt x="316" y="1477" on="1"/>
        <pt x="546" y="1477" on="1"/>
        <pt x="548" y="1471" on="1"/>
        <pt x="278" y="1211" on="1"/>
        <pt x="131" y="1211" on="1"/>
      </contour>
    </TTGlyph>
    <TTGlyph name="acutecomb" xMin="-657" yMin="1210" xMax="-348" yMax="1559">
      <contour>
        <pt x="-530" y="1559" on="1"/>
        <pt x="-348" y="1559" on="1"/>
        <pt x="-536" y="1210" on="1"/>
        <pt x="-657" y="1210" on="1"/>
      </contour>
    </TTGlyph>
    <TTGlyph name="adieresis" xMin="106" yMin="-21" xMax="1011" yMax="1483">
      <component glyphName="a" x="0" y="0" flags="0x204"/>
      <component glyphName="dieresis" x="41" y="27" flags="0x4"/>
    </TTGlyph>
    <TTGlyph name="ae" xMin="58" yMin="-21" xMax="1660" yMax="1102">
      <contour>
        <pt x="1262" y="-21" on="1"/>
        <pt x="1126" y="-21" on="0"/>
        <pt x="918" y="76" on="0"/>
        <pt x="852" y="166" on="1"/>
        <pt x="796" y="87" on="0"/>
        <pt x="573" y="-21" on="0"/>
        <pt x="413" y="-21" on="1"/>
        <pt x="243" y="-21" on="0"/>
        <pt x="58" y="153" on="0"/>
        <pt x="58" y="304" on="1"/>
        <pt x="58" y="462" on="0"/>
        <pt x="288" y="635" on="0"/>
        <pt x="508" y="635" on="1"/>
        <pt x="737" y="635" on="1"/>
        <pt x="737" y="720" on="1"/>
        <pt x="737" y="826" on="0"/>
        <pt x="634" y="947" on="0"/>
        <pt x="536" y="947" on="1"/>
        <pt x="433" y="947" on="0"/>
        <pt x="311" y="837" on="0"/>
        <pt x="311" y="759" on="1"/>
        <pt x="123" y="777" on="1"/>
        <pt x="121" y="783" on="1"/>
        <pt x="116" y="921" on="0"/>
        <pt x="345" y="1102" on="0"/>
        <pt x="536" y="1102" on="1"/>
        <pt x="650" y="1102" on="0"/>
        <pt x="825" y="1021" on="0"/>
        <pt x="875" y="944" on="1"/>
        <pt x="939" y="1019" on="0"/>
        <pt x="1114" y="1102" on="0"/>
        <pt x="1215" y="1102" on="1"/>
        <pt x="1429" y="1102" on="0"/>
        <pt x="1660" y="842" on="0"/>
        <pt x="1660" y="614" on="1"/>
        <pt x="1660" y="495" on="1"/>
        <pt x="951" y="495" on="1"/>
        <pt x="949" y="490" on="1"/>
        <pt x="950" y="331" on="0"/>
        <pt x="1107" y="133" on="0"/>
        <pt x="1262" y="133" on="1"/>
        <pt x="1365" y="133" on="0"/>
        <pt x="1498" y="188" on="0"/>
        <pt x="1576" y="239" on="1"/>
        <pt x="1643" y="101" on="1"/>
        <pt x="1590" y="57" on="0"/>
        <pt x="1402" y="-21" on="0"/>
      </contour>
      <contour>
        <pt x="452" y="133" on="1"/>
        <pt x="528" y="133" on="0"/>
        <pt x="694" y="220" on="0"/>
        <pt x="737" y="277" on="1"/>
        <pt x="737" y="493" on="1"/>
        <pt x="510" y="493" on="1"/>
        <pt x="390" y="493" on="0"/>
        <pt x="255" y="381" on="0"/>
        <pt x="255" y="300" on="1"/>
        <pt x="255" y="226" on="0"/>
        <pt x="355" y="133" on="0"/>
      </contour>
      <contour>
        <pt x="1215" y="947" on="1"/>
        <pt x="1102" y="947" on="0"/>
        <pt x="964" y="778" on="0"/>
        <pt x="953" y="645" on="1"/>
        <pt x="955" y="640" on="1"/>
        <pt x="1463" y="640" on="1"/>
        <pt x="1463" y="671" on="1"/>
        <pt x="1463" y="793" on="0"/>
        <pt x="1343" y="947" on="0"/>
      </contour>
    </TTGlyph>
    <TTGlyph name="aeacute" xMin="58" yMin="-21" xMax="1660" yMax="1501">
      <component glyphName="ae" x="0" y="0" flags="0x204"/>
      <component glyphName="acute" x="638" y="24" flags="0x4"/>
    </TTGlyph>
    <TTGlyph name="agrave" xMin="106" yMin="-21" xMax="1011" yMax="1504">
      <component glyphName="a" x="0" y="0" flags="0x204"/>
      <component glyphName="grave" x="148" y="27" flags="0x4"/>
    </TTGlyph>
    <TTGlyph name="alpha" xMin="98" yMin="-21" xMax="1152" yMax="1102">
      <contour>
        <pt x="1001" y="1081" on="1"/>
        <pt x="1001" y="276" on="1"/>
        <pt x="1001" y="204" on="0"/>
        <pt x="1042" y="148" on="0"/>
        <pt x="1077" y="148" on="1"/>
        <pt x="1092" y="148" on="0"/>
        <pt x="1118" y="151" on="0"/>
        <pt x="1129" y="155" on="1"/>
        <pt x="1152" y="13" on="1"/>
        <pt x="1123" y="-7" on="0"/>
        <pt x="1063" y="-21" on="0"/>
        <pt x="1026" y="-21" on="1"/>
        <pt x="951" y="-21" on="0"/>
        <pt x="851" y="43" on="0"/>
        <pt x="827" y="112" on="1"/>
        <pt x="772" y="46" on="0"/>
        <pt x="619" y="-21" on="0"/>
        <pt x="520" y="-21" on="1"/>
        <pt x="322" y="-21" on="0"/>
        <pt x="98" y="266" on="0"/>
        <pt x="98" y="500" on="1"/>
        <pt x="98" y="521" on="1"/>
        <pt x="98" y="782" on="0"/>
        <pt x="321" y="1102" on="0"/>
        <pt x="522" y="1102" on="1"/>
        <pt x="623" y="1102" on="0"/>
        <pt x="778" y="1030" on="0"/>
        <pt x="833" y="962" on="1"/>
        <pt x="884" y="1081" on="1"/>
      </contour>
      <contour>
        <pt x="295" y="500" on="1"/>
        <pt x="295" y="336" on="0"/>
        <pt x="430" y="133" on="0"/>
        <pt x="570" y="133" on="1"/>
        <pt x="651" y="133" on="0"/>
        <pt x="765" y="204" on="0"/>
        <pt x="804" y="268" on="1"/>
        <pt x="804" y="276" on="1"/>
        <pt x="804" y="817" on="1"/>
        <pt x="765" y="877" on="0"/>
        <pt x="650" y="947" on="0"/>
        <pt x="572" y="947" on="1"/>
        <pt x="431" y="947" on="0"/>
        <pt x="295" y="708" on="0"/>
        <pt x="295" y="521" on="1"/>
      </contour>
    </TTGlyph>
    <TTGlyph name="alphatonos" xMin="98" yMin="-21" xMax="1152" yMax="1657">
      <component glyphName="alpha" x="0" y="0" flags="0x204"/>
      <component glyphName="tonos" x="373" y="7" flags="0x4"/>
    </TTGlyph>
    <TTGlyph name="amacron" xMin="106" yMin="-21" xMax="1011" yMax="1464">
      <component glyphName="a" x="0" y="0" flags="0x204"/>
      <component glyphName="macron" x="77" y="8" flags="0x4"/>
    </TTGlyph>
    <TTGlyph name="ampersand" xMin="64" yMin="-21" xMax="1232" yMax="1477">
      <contour>
        <pt x="64" y="392" on="1"/>
        <pt x="64" y="514" on="0"/>
        <pt x="205" y="697" on="0"/>
        <pt x="345" y="789" on="1"/>
        <pt x="267" y="888" on="0"/>
        <pt x="191" y="1043" on="0"/>
        <pt x="191" y="1125" on="1"/>
        <pt x="191" y="1294" on="0"/>
        <pt x="386" y="1477" on="0"/>
        <pt x="557" y="1477" on="1"/>
        <pt x="715" y="1477" on="0"/>
        <pt x="913" y="1295" on="0"/>
        <pt x="913" y="1167" on="1"/>
        <pt x="913" y="1069" on="0"/>
        <pt x="808" y="926" on="0"/>
        <pt x="705" y="851" on="1"/>
        <pt x="596" y="771" on="1"/>
        <pt x="936" y="362" on="1"/>
        <pt x="977" y="427" on="0"/>
        <pt x="1023" y="585" on="0"/>
        <pt x="1023" y="673" on="1"/>
        <pt x="1199" y="673" on="1"/>
        <pt x="1199" y="541" on="0"/>
        <pt x="1121" y="317" on="0"/>
        <pt x="1047" y="228" on="1"/>
        <pt x="1232" y="5" on="1"/>
        <pt x="1230" y="0" on="1"/>
        <pt x="1001" y="0" on="1"/>
        <pt x="916" y="102" on="1"/>
        <pt x="836" y="42" on="0"/>
        <pt x="642" y="-21" on="0"/>
        <pt x="538" y="-21" on="1"/>
        <pt x="321" y="-21" on="0"/>
        <pt x="64" y="209" on="0"/>
      </contour>
      <contour>
        <pt x="538" y="133" on="1"/>
        <pt x="610" y="133" on="0"/>
        <pt x="750" y="182" on="0"/>
        <pt x="812" y="228" on="1"/>
        <pt x="451" y="663" on="1"/>
        <pt x="411" y="634" on="1"/>
        <pt x="320" y="566" on="0"/>
        <pt x="261" y="442" on="0"/>
        <pt x="261" y="392" on="1"/>
        <pt x="261" y="279" on="0"/>
        <pt x="403" y="133" on="0"/>
      </contour>
      <contour>
        <pt x="388" y="1127" on="1"/>
        <pt x="388" y="1074" on="0"/>
        <pt x="442" y="959" on="0"/>
        <pt x="496" y="891" on="1"/>
        <pt x="634" y="986" on="1"/>
        <pt x="691" y="1024" on="0"/>
        <pt x="732" y="1113" on="0"/>
        <pt x="732" y="1167" on="1"/>
        <pt x="732" y="1228" on="0"/>
        <pt x="635" y="1322" on="0"/>
        <pt x="557" y="1322" on="1"/>
        <pt x="476" y="1322" on="0"/>
        <pt x="388" y="1209" on="0"/>
      </contour>
    </TTGlyph>
    <TTGlyph name="anoteleia" xMin="161" yMin="624" xMax="359" yMax="836">
      <component glyphName="periodcentered" x="0" y="0" flags="0x4"/>
    </TTGlyph>
    <TTGlyph name="aogonek" xMin="106" yMin="-432" xMax="1066" yMax="1102">
      <component glyphName="a" x="0" y="0" flags="0x204"/>
      <component glyphName="ogonek" x="599" y="0" flags="0x4"/>
    </TTGlyph>
    <TTGlyph name="approxequal" xMin="101" yMin="272" xMax="1044" yMax="1024">
      <contour>
        <pt x="111" y="874" on="1"/>
        <pt x="158" y="942" on="0"/>
        <pt x="282" y="1020" on="0"/>
        <pt x="347" y="1020" on="1"/>
        <pt x="416" y="1021" on="0"/>
        <pt x="480" y="997" on="0"/>
        <pt x="581" y="947" on="1"/>
        <pt x="667" y="903" on="0"/>
        <pt x="733" y="878" on="0"/>
        <pt x="799" y="878" on="1"/>
        <pt x="863" y="878" on="0"/>
        <pt x="987" y="955" on="0"/>
        <pt x="1035" y="1024" on="1"/>
        <pt x="1044" y="850" on="1"/>
        <pt x="996" y="781" on="0"/>
        <pt x="872" y="704" on="0"/>
        <pt x="808" y="704" on="1"/>
        <pt x="742" y="704" on="0"/>
        <pt x="676" y="729" on="0"/>
        <pt x="590" y="773" on="1"/>
        <pt x="489" y="823" on="0"/>
        <pt x="425" y="847" on="0"/>
        <pt x="356" y="846" on="1"/>
        <pt x="291" y="846" on="0"/>
        <pt x="167" y="768" on="0"/>
        <pt x="120" y="700" on="1"/>
      </contour>
      <contour>
        <pt x="101" y="447" on="1"/>
        <pt x="148" y="515" on="0"/>
        <pt x="272" y="593" on="0"/>
        <pt x="337" y="593" on="1"/>
        <pt x="406" y="594" on="0"/>
        <pt x="470" y="570" on="0"/>
        <pt x="571" y="520" on="1"/>
        <pt x="660" y="474" on="0"/>
        <pt x="724" y="450" on="0"/>
        <pt x="789" y="450" on="1"/>
        <pt x="853" y="450" on="0"/>
        <pt x="977" y="527" on="0"/>
        <pt x="1025" y="597" on="1"/>
        <pt x="1034" y="422" on="1"/>
        <pt x="986" y="353" on="0"/>
        <pt x="862" y="276" on="0"/>
        <pt x="798" y="276" on="1"/>
        <pt x="732" y="276" on="0"/>
        <pt x="666" y="301" on="0"/>
        <pt x="580" y="345" on="1"/>
        <pt x="475" y="397" on="0"/>
        <pt x="414" y="420" on="0"/>
        <pt x="346" y="419" on="1"/>
        <pt x="281" y="419" on="0"/>
        <pt x="157" y="341" on="0"/>
        <pt x="110" y="272" on="1"/>
      </contour>
    </TTGlyph>
    <TTGlyph name="aring" xMin="106" yMin="-21" xMax="1011" yMax="1610">
      <component glyphName="a" x="0" y="0" flags="0x204"/>
      <component glyphName="ring" x="213" y="104" flags="0x4"/>
    </TTGlyph>
    <TTGlyph name="aringacute" xMin="106" yMin="-21" xMax="1011" yMax="1763">
      <component glyphName="a" x="0" y="0" flags="0x204"/>
      <component glyphName="ringacute" x="228" y="113" flags="0x4"/>
    </TTGlyph>
    <TTGlyph name="asciicircum" xMin="61" yMin="729" xMax="792" yMax="1456">
      <contour>
        <pt x="244" y="729" on="1"/>
        <pt x="61" y="729" on="1"/>
        <pt x="360" y="1456" on="1"/>
        <pt x="494" y="1456" on="1"/>
        <pt x="792" y="729" on="1"/>
        <pt x="611" y="729" on="1"/>
        <pt x="445" y="1148" on="1"/>
        <pt x="429" y="1218" on="1"/>
        <pt x="423" y="1218" on="1"/>
        <pt x="407" y="1148" on="1"/>
      </contour>
    </TTGlyph>
    <TTGlyph name="asciitilde" xMin="128" yMin="401" xMax="1264" yMax="803">
      <contour>
        <pt x="1264" y="740" on="1"/>
        <pt x="1264" y="603" on="0"/>
        <pt x="1090" y="401" on="0"/>
        <pt x="960" y="401" on="1"/>
        <pt x="870" y="401" on="0"/>
        <pt x="723" y="467" on="0"/>
        <pt x="638" y="541" on="1"/>
        <pt x="579" y="589" on="0"/>
        <pt x="481" y="637" on="0"/>
        <pt x="431" y="637" on="1"/>
        <pt x="364" y="637" on="0"/>
        <pt x="269" y="531" on="0"/>
        <pt x="269" y="456" on="1"/>
        <pt x="128" y="474" on="1"/>
        <pt x="128" y="610" on="0"/>
        <pt x="299" y="803" on="0"/>
        <pt x="431" y="803" on="1"/>
        <pt x="519" y="803" on="0"/>
        <pt x="669" y="734" on="0"/>
        <pt x="754" y="664" on="1"/>
        <pt x="812" y="613" on="0"/>
        <pt x="908" y="567" on="0"/>
        <pt x="960" y="567" on="1"/>
        <pt x="1026" y="567" on="0"/>
        <pt x="1123" y="681" on="0"/>
        <pt x="1123" y="758" on="1"/>
      </contour>
    </TTGlyph>
    <TTGlyph name="asterisk" xMin="28" yMin="607" xMax="855" yMax="1456">
      <contour>
        <pt x="324" y="982" on="1"/>
        <pt x="28" y="1071" on="1"/>
        <pt x="77" y="1225" on="1"/>
        <pt x="373" y="1114" on="1"/>
        <pt x="363" y="1456" on="1"/>
        <pt x="524" y="1456" on="1"/>
        <pt x="514" y="1108" on="1"/>
        <pt x="807" y="1218" on="1"/>
        <pt x="855" y="1062" on="1"/>
        <pt x="553" y="973" on="1"/>
        <pt x="746" y="703" on="1"/>
        <pt x="615" y="607" on="1"/>
        <pt x="434" y="894" on="1"/>
        <pt x="258" y="615" on="1"/>
        <pt x="126" y="708" on="1"/>
      </contour>
    </TTGlyph>
    <TTGlyph name="at" xMin="96" yMin="-453" xMax="1749" yMax="1431">
      <contour>
        <pt x="1732" y="502" on="1"/>
        <pt x="1723" y="288" on="0"/>
        <pt x="1501" y="-21" on="0"/>
        <pt x="1280" y="-21" on="1"/>
        <pt x="1207" y="-21" on="0"/>
        <pt x="1101" y="62" on="0"/>
        <pt x="1078" y="138" on="1"/>
        <pt x="1028" y="58" on="0"/>
        <pt x="884" y="-21" on="0"/>
        <pt x="788" y="-21" on="1"/>
        <pt x="663" y="-21" on="0"/>
        <pt x="525" y="220" on="0"/>
        <pt x="543" y="416" on="1"/>
        <pt x="566" y="675" on="0"/>
        <pt x="795" y="988" on="0"/>
        <pt x="960" y="988" on="1"/>
        <pt x="1065" y="988" on="0"/>
        <pt x="1193" y="936" on="0"/>
        <pt x="1268" y="882" on="1"/>
        <pt x="1264" y="878" on="1"/>
        <pt x="1270" y="878" on="1"/>
        <pt x="1219" y="293" on="1"/>
        <pt x="1210" y="183" on="0"/>
        <pt x="1271" y="100" on="0"/>
        <pt x="1322" y="100" on="1"/>
        <pt x="1445" y="100" on="0"/>
        <pt x="1593" y="327" on="0"/>
        <pt x="1601" y="502" on="1"/>
        <pt x="1617" y="884" on="0"/>
        <pt x="1297" y="1311" on="0"/>
        <pt x="961" y="1311" on="1"/>
        <pt x="653" y="1311" on="0"/>
        <pt x="278" y="849" on="0"/>
        <pt x="263" y="478" on="1"/>
        <pt x="245" y="102" on="0"/>
        <pt x="581" y="-335" on="0"/>
        <pt x="895" y="-335" on="1"/>
        <pt x="983" y="-335" on="0"/>
        <pt x="1164" y="-292" on="0"/>
        <pt x="1226" y="-257" on="1"/>
        <pt x="1264" y="-364" on="1"/>
        <pt x="1197" y="-406" on="0"/>
        <pt x="990" y="-453" on="0"/>
        <pt x="891" y="-453" on="1"/>
        <pt x="511" y="-453" on="0"/>
        <pt x="96" y="46" on="0"/>
        <pt x="114" y="478" on="1"/>
        <pt x="133" y="901" on="0"/>
        <pt x="593" y="1431" on="0"/>
        <pt x="965" y="1431" on="1"/>
        <pt x="1344" y="1431" on="0"/>
        <pt x="1749" y="931" on="0"/>
      </contour>
      <contour>
        <pt x="720" y="416" on="1"/>
        <pt x="709" y="274" on="0"/>
        <pt x="774" y="126" on="0"/>
        <pt x="848" y="126" on="1"/>
        <pt x="912" y="126" on="0"/>
        <pt x="1018" y="175" on="0"/>
        <pt x="1062" y="238" on="1"/>
        <pt x="1061" y="250" on="0"/>
        <pt x="1062" y="277" on="0"/>
        <pt x="1064" y="293" on="1"/>
        <pt x="1111" y="831" on="1"/>
        <pt x="1085" y="843" on="0"/>
        <pt x="1028" y="857" on="0"/>
        <pt x="997" y="857" on="1"/>
        <pt x="872" y="857" on="0"/>
        <pt x="740" y="638" on="0"/>
      </contour>
    </TTGlyph>
    <TTGlyph name="atilde" xMin="106" yMin="-21" xMax="1011" yMax="1554">
      <component glyphName="a" x="0" y="0" flags="0x204"/>
      <component glyphName="tilde" x="73" y="31" flags="0x4"/>
    </TTGlyph>
    <TTGlyph name="b" xMin="143" yMin="-21" xMax="1067" yMax="1560">
      <contour>
        <pt x="1067" y="500" on="1"/>
        <pt x="1067" y="266" on="0"/>
        <pt x="842" y="-21" on="0"/>
        <pt x="645" y="-21" on="1"/>
        <pt x="538" y="-21" on="0"/>
        <pt x="380" y="62" on="0"/>
        <pt x="328" y="143" on="1"/>
        <pt x="304" y="0" on="1"/>
        <pt x="143" y="0" on="1"/>
        <pt x="143" y="1560" on="1"/>
        <pt x="340" y="1560" on="1"/>
        <pt x="340" y="954" on="1"/>
        <pt x="391" y="1026" on="0"/>
        <pt x="542" y="1102" on="0"/>
        <pt x="643" y="1102" on="1"/>
        <pt x="843" y="1102" on="0"/>
        <pt x="1067" y="782" on="0"/>
        <pt x="1067" y="521" on="1"/>
      </contour>
      <contour>
        <pt x="870" y="521" on="1"/>
        <pt x="870" y="707" on="0"/>
        <pt x="733" y="942" on="0"/>
        <pt x="593" y="942" on="1"/>
        <pt x="502" y="942" on="0"/>
        <pt x="377" y="853" on="0"/>
        <pt x="340" y="778" on="1"/>
        <pt x="340" y="309" on="1"/>
        <pt x="378" y="229" on="0"/>
        <pt x="501" y="139" on="0"/>
        <pt x="595" y="139" on="1"/>
        <pt x="734" y="139" on="0"/>
        <pt x="870" y="337" on="0"/>
        <pt x="870" y="500" on="1"/>
      </contour>
    </TTGlyph>
    <TTGlyph name="backslash" xMin="39" yMin="-125" xMax="833" yMax="1456">
      <contour>
        <pt x="39" y="1456" on="1"/>
        <pt x="225" y="1456" on="1"/>
        <pt x="833" y="-125" on="1"/>
        <pt x="647" y="-125" on="1"/>
      </contour>
    </TTGlyph>
    <TTGlyph name="bar" xMin="175" yMin="-270" xMax="333" yMax="1456">
      <contour>
        <pt x="333" y="-270" on="1"/>
        <pt x="175" y="-270" on="1"/>
        <pt x="175" y="1456" on="1"/>
        <pt x="333" y="1456" on="1"/>
      </contour>
    </TTGlyph>
    <TTGlyph name="beta" xMin="157" yMin="-383" xMax="1103" yMax="1477">
      <contour>
        <pt x="607" y="1477" on="1"/>
        <pt x="802" y="1477" on="0"/>
        <pt x="1038" y="1257" on="0"/>
        <pt x="1038" y="1083" on="1"/>
        <pt x="1038" y="992" on="0"/>
        <pt x="938" y="839" on="0"/>
        <pt x="851" y="794" on="1"/>
        <pt x="970" y="750" on="0"/>
        <pt x="1103" y="554" on="0"/>
        <pt x="1103" y="425" on="1"/>
        <pt x="1103" y="216" on="0"/>
        <pt x="850" y="-21" on="0"/>
        <pt x="648" y="-21" on="1"/>
        <pt x="566" y="-21" on="0"/>
        <pt x="413" y="24" on="0"/>
        <pt x="354" y="70" on="1"/>
        <pt x="354" y="-383" on="1"/>
        <pt x="157" y="-383" on="1"/>
        <pt x="157" y="1073" on="1"/>
        <pt x="157" y="1238" on="0"/>
        <pt x="423" y="1477" on="0"/>
      </contour>
      <contour>
        <pt x="603" y="860" on="1"/>
        <pt x="725" y="860" on="0"/>
        <pt x="841" y="981" on="0"/>
        <pt x="841" y="1087" on="1"/>
        <pt x="841" y="1182" on="0"/>
        <pt x="716" y="1322" on="0"/>
        <pt x="607" y="1322" on="1"/>
        <pt x="500" y="1322" on="0"/>
        <pt x="354" y="1179" on="0"/>
        <pt x="354" y="1073" on="1"/>
        <pt x="354" y="243" on="1"/>
        <pt x="398" y="191" on="0"/>
        <pt x="539" y="133" on="0"/>
        <pt x="628" y="133" on="1"/>
        <pt x="757" y="133" on="0"/>
        <pt x="906" y="293" on="0"/>
        <pt x="906" y="421" on="1"/>
        <pt x="906" y="533" on="0"/>
        <pt x="775" y="705" on="0"/>
        <pt x="664" y="705" on="1"/>
        <pt x="521" y="705" on="1"/>
        <pt x="521" y="860" on="1"/>
      </contour>
    </TTGlyph>
    <TTGlyph name="braceleft" xMin="63" yMin="-364" xMax="671" yMax="1597">
      <contour>
        <pt x="631" y="-364" on="1"/>
        <pt x="436" y="-309" on="0"/>
        <pt x="272" y="-69" on="0"/>
        <pt x="272" y="101" on="1"/>
        <pt x="272" y="306" on="1"/>
        <pt x="272" y="418" on="0"/>
        <pt x="169" y="543" on="0"/>
        <pt x="63" y="543" on="1"/>
        <pt x="63" y="690" on="1"/>
        <pt x="169" y="690" on="0"/>
        <pt x="272" y="813" on="0"/>
        <pt x="272" y="926" on="1"/>
        <pt x="272" y="1132" on="1"/>
        <pt x="272" y="1303" on="0"/>
        <pt x="436" y="1542" on="0"/>
        <pt x="631" y="1597" on="1"/>
        <pt x="671" y="1480" on="1"/>
        <pt x="561" y="1445" on="0"/>
        <pt x="469" y="1264" on="0"/>
        <pt x="469" y="1132" on="1"/>
        <pt x="469" y="926" on="1"/>
        <pt x="469" y="821" on="0"/>
        <pt x="384" y="661" on="0"/>
        <pt x="299" y="616" on="1"/>
        <pt x="384" y="570" on="0"/>
        <pt x="469" y="409" on="0"/>
        <pt x="469" y="306" on="1"/>
        <pt x="469" y="101" on="1"/>
        <pt x="469" y="-31" on="0"/>
        <pt x="561" y="-210" on="0"/>
        <pt x="671" y="-246" on="1"/>
      </contour>
    </TTGlyph>
    <TTGlyph name="braceright" xMin="21" yMin="-364" xMax="630" yMax="1597">
      <contour>
        <pt x="21" y="-246" on="1"/>
        <pt x="130" y="-210" on="0"/>
        <pt x="224" y="-31" on="0"/>
        <pt x="224" y="101" on="1"/>
        <pt x="224" y="306" on="1"/>
        <pt x="224" y="413" on="0"/>
        <pt x="314" y="573" on="0"/>
        <pt x="408" y="616" on="1"/>
        <pt x="314" y="657" on="0"/>
        <pt x="224" y="817" on="0"/>
        <pt x="224" y="926" on="1"/>
        <pt x="224" y="1132" on="1"/>
        <pt x="224" y="1264" on="0"/>
        <pt x="130" y="1445" on="0"/>
        <pt x="21" y="1480" on="1"/>
        <pt x="62" y="1597" on="1"/>
        <pt x="256" y="1542" on="0"/>
        <pt x="421" y="1303" on="0"/>
        <pt x="421" y="1132" on="1"/>
        <pt x="421" y="926" on="1"/>
        <pt x="421" y="813" on="0"/>
        <pt x="522" y="690" on="0"/>
        <pt x="630" y="690" on="1"/>
        <pt x="630" y="543" on="1"/>
        <pt x="522" y="543" on="0"/>
        <pt x="421" y="418" on="0"/>
        <pt x="421" y="306" on="1"/>
        <pt x="421" y="101" on="1"/>
        <pt x="421" y="-69" on="0"/>
        <pt x="256" y="-309" on="0"/>
        <pt x="62" y="-364" on="1"/>
      </contour>
    </TTGlyph>
    <TTGlyph name="bracketleft" xMin="143" yMin="-312" xMax="528" yMax="1664">
      <contour>
        <pt x="528" y="1509" on="1"/>
        <pt x="340" y="1509" on="1"/>
        <pt x="340" y="-157" on="1"/>
        <pt x="528" y="-157" on="1"/>
        <pt x="528" y="-312" on="1"/>
        <pt x="143" y="-312" on="1"/>
        <pt x="143" y="1664" on="1"/>
        <pt x="528" y="1664" on="1"/>
      </contour>
    </TTGlyph>
    <TTGlyph name="bracketright" xMin="11" yMin="-312" xMax="397" yMax="1664">
      <contour>
        <pt x="11" y="1664" on="1"/>
        <pt x="397" y="1664" on="1"/>
        <pt x="397" y="-312" on="1"/>
        <pt x="11" y="-312" on="1"/>
        <pt x="11" y="-157" on="1"/>
        <pt x="200" y="-157" on="1"/>
        <pt x="200" y="1509" on="1"/>
        <pt x="11" y="1509" on="1"/>
      </contour>
    </TTGlyph>
    <TTGlyph name="breve" xMin="129" yMin="1188" xMax="728" yMax="1456">
      <contour>
        <pt x="722" y="1456" on="1"/>
        <pt x="724" y="1450" on="1"/>
        <pt x="728" y="1334" on="0"/>
        <pt x="566" y="1188" on="0"/>
        <pt x="429" y="1188" on="1"/>
        <pt x="291" y="1188" on="0"/>
        <pt x="129" y="1334" on="0"/>
        <pt x="134" y="1450" on="1"/>
        <pt x="136" y="1456" on="1"/>
        <pt x="287" y="1456" on="1"/>
        <pt x="287" y="1390" on="0"/>
        <pt x="355" y="1308" on="0"/>
        <pt x="429" y="1308" on="1"/>
        <pt x="501" y="1308" on="0"/>
        <pt x="571" y="1391" on="0"/>
        <pt x="571" y="1456" on="1"/>
      </contour>
    </TTGlyph>
    <TTGlyph name="breveacutecomb" xMin="129" yMin="1247" xMax="736" yMax="1675">
      <contour>
        <pt x="728" y="1456" on="1"/>
        <pt x="730" y="1450" on="1"/>
        <pt x="736" y="1361" on="0"/>
        <pt x="572" y="1247" on="0"/>
        <pt x="433" y="1247" on="1"/>
        <pt x="293" y="1247" on="0"/>
        <pt x="129" y="1361" on="0"/>
        <pt x="136" y="1450" on="1"/>
        <pt x="138" y="1456" on="1"/>
        <pt x="289" y="1456" on="1"/>
        <pt x="289" y="1405" on="0"/>
        <pt x="358" y="1342" on="0"/>
        <pt x="433" y="1342" on="1"/>
        <pt x="506" y="1342" on="0"/>
        <pt x="576" y="1405" on="0"/>
        <pt x="576" y="1456" on="1"/>
      </contour>
      <contour>
        <pt x="483" y="1675" on="1"/>
        <pt x="638" y="1675" on="1"/>
        <pt x="640" y="1670" on="1"/>
        <pt x="481" y="1478" on="1"/>
        <pt x="375" y="1478" on="1"/>
      </contour>
    </TTGlyph>
    <TTGlyph name="brevegravecomb" xMin="129" yMin="1247" xMax="736" yMax="1675">
      <contour>
        <pt x="499" y="1478" on="1"/>
        <pt x="380" y="1478" on="1"/>
        <pt x="180" y="1669" on="1"/>
        <pt x="182" y="1675" on="1"/>
        <pt x="361" y="1675" on="1"/>
      </contour>
      <contour>
        <pt x="728" y="1456" on="1"/>
        <pt x="730" y="1450" on="1"/>
        <pt x="736" y="1361" on="0"/>
        <pt x="572" y="1247" on="0"/>
        <pt x="433" y="1247" on="1"/>
        <pt x="293" y="1247" on="0"/>
        <pt x="129" y="1361" on="0"/>
        <pt x="136" y="1450" on="1"/>
        <pt x="138" y="1456" on="1"/>
        <pt x="289" y="1456" on="1"/>
        <pt x="289" y="1405" on="0"/>
        <pt x="358" y="1342" on="0"/>
        <pt x="433" y="1342" on="1"/>
        <pt x="506" y="1342" on="0"/>
        <pt x="576" y="1405" on="0"/>
        <pt x="576" y="1456" on="1"/>
      </contour>
    </TTGlyph>
    <TTGlyph name="brevehookcomb" xMin="129" yMin="1248" xMax="714" yMax="1834">
      <contour>
        <pt x="706" y="1456" on="1"/>
        <pt x="708" y="1450" on="1"/>
        <pt x="714" y="1361" on="0"/>
        <pt x="556" y="1248" on="0"/>
        <pt x="422" y="1248" on="1"/>
        <pt x="287" y="1248" on="0"/>
        <pt x="129" y="1361" on="0"/>
        <pt x="136" y="1450" on="1"/>
        <pt x="138" y="1456" on="1"/>
        <pt x="282" y="1456" on="1"/>
        <pt x="282" y="1406" on="0"/>
        <pt x="350" y="1342" on="0"/>
        <pt x="422" y="1342" on="1"/>
        <pt x="493" y="1342" on="0"/>
        <pt x="561" y="1405" on="0"/>
        <pt x="561" y="1456" on="1"/>
      </contour>
      <contour>
        <pt x="373" y="1512" on="1"/>
        <pt x="372" y="1638" on="1"/>
        <pt x="445" y="1641" on="0"/>
        <pt x="505" y="1664" on="0"/>
        <pt x="500" y="1690" on="1"/>
        <pt x="500" y="1696" on="1"/>
        <pt x="505" y="1724" on="0"/>
        <pt x="424" y="1751" on="0"/>
        <pt x="354" y="1751" on="1"/>
        <pt x="361" y="1834" on="1"/>
        <pt x="503" y="1834" on="0"/>
        <pt x="655" y="1756" on="0"/>
        <pt x="655" y="1690" on="1"/>
        <pt x="655" y="1637" on="0"/>
        <pt x="572" y="1582" on="0"/>
        <pt x="509" y="1575" on="1"/>
        <pt x="508" y="1512" on="1"/>
      </contour>
    </TTGlyph>
    <TTGlyph name="brevetildecomb" xMin="129" yMin="1243" xMax="723" yMax="1748">
      <contour>
        <pt x="715" y="1456" on="1"/>
        <pt x="717" y="1450" on="1"/>
        <pt x="723" y="1359" on="0"/>
        <pt x="563" y="1243" on="0"/>
        <pt x="427" y="1243" on="1"/>
        <pt x="290" y="1243" on="0"/>
        <pt x="129" y="1359" on="0"/>
        <pt x="136" y="1450" on="1"/>
        <pt x="138" y="1456" on="1"/>
        <pt x="286" y="1456" on="1"/>
        <pt x="286" y="1404" on="0"/>
        <pt x="353" y="1339" on="0"/>
        <pt x="427" y="1339" on="1"/>
        <pt x="498" y="1339" on="0"/>
        <pt x="567" y="1404" on="0"/>
        <pt x="567" y="1456" on="1"/>
      </contour>
      <contour>
        <pt x="715" y="1724" on="1"/>
        <pt x="715" y="1649" on="0"/>
        <pt x="620" y="1542" on="0"/>
        <pt x="549" y="1542" on="1"/>
        <pt x="491" y="1542" on="0"/>
        <pt x="367" y="1618" on="0"/>
        <pt x="326" y="1618" on="1"/>
        <pt x="292" y="1618" on="0"/>
        <pt x="247" y="1566" on="0"/>
        <pt x="247" y="1529" on="1"/>
        <pt x="159" y="1550" on="1"/>
        <pt x="159" y="1624" on="0"/>
        <pt x="253" y="1735" on="0"/>
        <pt x="326" y="1735" on="1"/>
        <pt x="371" y="1735" on="0"/>
        <pt x="506" y="1659" on="0"/>
        <pt x="549" y="1659" on="1"/>
        <pt x="581" y="1659" on="0"/>
        <pt x="629" y="1710" on="0"/>
        <pt x="629" y="1748" on="1"/>
      </contour>
    </TTGlyph>
    <TTGlyph name="brokenbar" xMin="145" yMin="-270" xMax="342" yMax="1456">
      <contour>
        <pt x="145" y="-270" on="1"/>
        <pt x="145" y="522" on="1"/>
        <pt x="342" y="522" on="1"/>
        <pt x="342" y="-270" on="1"/>
      </contour>
      <contour>
        <pt x="342" y="698" on="1"/>
        <pt x="145" y="698" on="1"/>
        <pt x="145" y="1456" on="1"/>
        <pt x="342" y="1456" on="1"/>
      </contour>
    </TTGlyph>
    <TTGlyph name="bullet" xMin="137" yMin="535" xMax="551" yMax="993">
      <contour>
        <pt x="137" y="793" on="1"/>
        <pt x="137" y="881" on="0"/>
        <pt x="249" y="993" on="0"/>
        <pt x="343" y="993" on="1"/>
        <pt x="438" y="993" on="0"/>
        <pt x="551" y="881" on="0"/>
        <pt x="551" y="793" on="1"/>
        <pt x="551" y="733" on="1"/>
        <pt x="551" y="644" on="0"/>
        <pt x="439" y="535" on="0"/>
        <pt x="344" y="535" on="1"/>
        <pt x="249" y="535" on="0"/>
        <pt x="137" y="645" on="0"/>
        <pt x="137" y="733" on="1"/>
      </contour>
    </TTGlyph>
    <TTGlyph name="c" xMin="97" yMin="-21" xMax="1014" yMax="1102">
      <contour>
        <pt x="583" y="133" on="1"/>
        <pt x="681" y="133" on="0"/>
        <pt x="830" y="254" on="0"/>
        <pt x="830" y="342" on="1"/>
        <pt x="1007" y="342" on="1"/>
        <pt x="1009" y="336" on="1"/>
        <pt x="1014" y="196" on="0"/>
        <pt x="755" y="-21" on="0"/>
        <pt x="583" y="-21" on="1"/>
        <pt x="347" y="-21" on="0"/>
        <pt x="97" y="287" on="0"/>
        <pt x="97" y="520" on="1"/>
        <pt x="97" y="562" on="1"/>
        <pt x="97" y="793" on="0"/>
        <pt x="348" y="1102" on="0"/>
        <pt x="583" y="1102" on="1"/>
        <pt x="773" y="1102" on="0"/>
        <pt x="1014" y="878" on="0"/>
        <pt x="1010" y="715" on="1"/>
        <pt x="1008" y="709" on="1"/>
        <pt x="830" y="709" on="1"/>
        <pt x="830" y="808" on="0"/>
        <pt x="690" y="947" on="0"/>
        <pt x="583" y="947" on="1"/>
        <pt x="428" y="947" on="0"/>
        <pt x="295" y="724" on="0"/>
        <pt x="295" y="562" on="1"/>
        <pt x="295" y="520" on="1"/>
        <pt x="295" y="354" on="0"/>
        <pt x="427" y="133" on="0"/>
      </contour>
    </TTGlyph>
    <TTGlyph name="cacute" xMin="97" yMin="-21" xMax="1014" yMax="1500">
      <component glyphName="c" x="0" y="0" flags="0x204"/>
      <component glyphName="acute" x="316" y="23" flags="0x4"/>
    </TTGlyph>
    <TTGlyph name="caron" xMin="140" yMin="1252" xMax="770" yMax="1515">
      <contour>
        <pt x="453" y="1367" on="1"/>
        <pt x="600" y="1515" on="1"/>
        <pt x="770" y="1515" on="1"/>
        <pt x="770" y="1497" on="1"/>
        <pt x="513" y="1252" on="1"/>
        <pt x="394" y="1252" on="1"/>
        <pt x="140" y="1495" on="1"/>
        <pt x="140" y="1515" on="1"/>
        <pt x="306" y="1515" on="1"/>
      </contour>
    </TTGlyph>
    <TTGlyph name="ccaron" xMin="97" yMin="-21" xMax="1014" yMax="1543">
      <component glyphName="c" x="0" y="0" flags="0x204"/>
      <component glyphName="caron" x="83" y="28" flags="0x4"/>
    </TTGlyph>
    <TTGlyph name="ccedilla" xMin="97" yMin="-443" xMax="1014" yMax="1102">
      <component glyphName="c" x="0" y="0" flags="0x204"/>
      <component glyphName="cedilla" x="321" y="-8" flags="0x4"/>
    </TTGlyph>
    <TTGlyph name="ccircumflex" xMin="97" yMin="-21" xMax="1014" yMax="1542">
      <component glyphName="c" x="0" y="0" flags="0x204"/>
      <component glyphName="circumflex" x="60" y="27" flags="0x4"/>
    </TTGlyph>
    <TTGlyph name="cedilla" xMin="119" yMin="-435" xMax="431" yMax="0">
      <contour>
        <pt x="292" y="0" on="1"/>
        <pt x="280" y="-52" on="1"/>
        <pt x="345" y="-63" on="0"/>
        <pt x="431" y="-145" on="0"/>
        <pt x="431" y="-225" on="1"/>
        <pt x="431" y="-321" on="0"/>
        <pt x="273" y="-435" on="0"/>
        <pt x="126" y="-435" on="1"/>
        <pt x="119" y="-326" on="1"/>
        <pt x="191" y="-326" on="0"/>
        <pt x="279" y="-277" on="0"/>
        <pt x="279" y="-228" on="1"/>
        <pt x="279" y="-180" on="0"/>
        <pt x="207" y="-142" on="0"/>
        <pt x="120" y="-135" on="1"/>
        <pt x="152" y="0" on="1"/>
      </contour>
    </TTGlyph>
    <TTGlyph name="cent" xMin="107" yMin="-245" xMax="1024" yMax="1318">
      <contour>
        <pt x="593" y="133" on="1"/>
        <pt x="691" y="133" on="0"/>
        <pt x="840" y="254" on="0"/>
        <pt x="840" y="342" on="1"/>
        <pt x="1018" y="342" on="1"/>
        <pt x="1021" y="336" on="1"/>
        <pt x="1024" y="214" on="0"/>
        <pt x="822" y="12" on="0"/>
        <pt x="676" y="-13" on="1"/>
        <pt x="676" y="-245" on="1"/>
        <pt x="478" y="-245" on="1"/>
        <pt x="478" y="-9" on="1"/>
        <pt x="296" y="27" on="0"/>
        <pt x="107" y="319" on="0"/>
        <pt x="107" y="520" on="1"/>
        <pt x="107" y="562" on="1"/>
        <pt x="107" y="761" on="0"/>
        <pt x="297" y="1052" on="0"/>
        <pt x="478" y="1090" on="1"/>
        <pt x="478" y="1318" on="1"/>
        <pt x="676" y="1318" on="1"/>
        <pt x="676" y="1095" on="1"/>
        <pt x="833" y="1071" on="0"/>
        <pt x="1024" y="858" on="0"/>
        <pt x="1021" y="714" on="1"/>
        <pt x="1019" y="709" on="1"/>
        <pt x="840" y="709" on="1"/>
        <pt x="840" y="808" on="0"/>
        <pt x="700" y="947" on="0"/>
        <pt x="593" y="947" on="1"/>
        <pt x="438" y="947" on="0"/>
        <pt x="305" y="724" on="0"/>
        <pt x="305" y="562" on="1"/>
        <pt x="305" y="520" on="1"/>
        <pt x="305" y="354" on="0"/>
        <pt x="437" y="133" on="0"/>
      </contour>
    </TTGlyph>
    <TTGlyph name="chi" xMin="94" yMin="-437" xMax="1099" yMax="1097">
      <contour>
        <pt x="202" y="1097" on="1"/>
        <pt x="331" y="1097" on="0"/>
        <pt x="482" y="937" on="0"/>
        <pt x="524" y="829" on="1"/>
        <pt x="616" y="607" on="1"/>
        <pt x="622" y="607" on="1"/>
        <pt x="855" y="1082" on="1"/>
        <pt x="1053" y="1082" on="1"/>
        <pt x="712" y="375" on="1"/>
        <pt x="916" y="-117" on="1"/>
        <pt x="948" y="-190" on="0"/>
        <pt x="1010" y="-265" on="0"/>
        <pt x="1053" y="-265" on="1"/>
        <pt x="1067" y="-265" on="0"/>
        <pt x="1077" y="-263" on="0"/>
        <pt x="1099" y="-260" on="1"/>
        <pt x="1096" y="-422" on="1"/>
        <pt x="1086" y="-428" on="0"/>
        <pt x="1049" y="-437" on="0"/>
        <pt x="1036" y="-437" on="1"/>
        <pt x="920" y="-437" on="0"/>
        <pt x="781" y="-306" on="0"/>
        <pt x="729" y="-165" on="1"/>
        <pt x="602" y="135" on="1"/>
        <pt x="596" y="135" on="1"/>
        <pt x="331" y="-415" on="1"/>
        <pt x="122" y="-415" on="1"/>
        <pt x="505" y="367" on="1"/>
        <pt x="342" y="753" on="1"/>
        <pt x="309" y="835" on="0"/>
        <pt x="223" y="936" on="0"/>
        <pt x="163" y="936" on="1"/>
        <pt x="153" y="936" on="0"/>
        <pt x="99" y="931" on="0"/>
        <pt x="95" y="931" on="1"/>
        <pt x="94" y="1082" on="1"/>
        <pt x="115" y="1087" on="0"/>
        <pt x="178" y="1097" on="0"/>
      </contour>
    </TTGlyph>
    <TTGlyph name="circumflex" xMin="171" yMin="1252" xMax="785" yMax="1515">
      <contour>
        <pt x="785" y="1277" on="1"/>
        <pt x="785" y="1252" on="1"/>
        <pt x="624" y="1252" on="1"/>
        <pt x="477" y="1400" on="1"/>
        <pt x="331" y="1252" on="1"/>
        <pt x="171" y="1252" on="1"/>
        <pt x="171" y="1278" on="1"/>
        <pt x="417" y="1515" on="1"/>
        <pt x="537" y="1515" on="1"/>
      </contour>
    </TTGlyph>
    <TTGlyph name="circumflexacutecomb" xMin="120" yMin="1252" xMax="1137" yMax="1688">
      <contour>
        <pt x="409" y="1515" on="1"/>
        <pt x="567" y="1515" on="1"/>
        <pt x="855" y="1258" on="1"/>
        <pt x="853" y="1252" on="1"/>
        <pt x="655" y="1252" on="1"/>
        <pt x="488" y="1409" on="1"/>
        <pt x="321" y="1252" on="1"/>
        <pt x="122" y="1252" on="1"/>
        <pt x="120" y="1258" on="1"/>
      </contour>
      <contour>
        <pt x="926" y="1688" on="1"/>
        <pt x="1137" y="1688" on="1"/>
        <pt x="933" y="1428" on="1"/>
        <pt x="786" y="1428" on="1"/>
      </contour>
    </TTGlyph>
    <TTGlyph name="circumflexgravecomb" xMin="-171" yMin="1252" xMax="845" yMax="1688">
      <contour>
        <pt x="845" y="1258" on="1"/>
        <pt x="843" y="1252" on="1"/>
        <pt x="644" y="1252" on="1"/>
        <pt x="477" y="1409" on="1"/>
        <pt x="310" y="1252" on="1"/>
        <pt x="112" y="1252" on="1"/>
        <pt x="110" y="1258" on="1"/>
        <pt x="398" y="1515" on="1"/>
        <pt x="556" y="1515" on="1"/>
      </contour>
      <contour>
        <pt x="179" y="1428" on="1"/>
        <pt x="32" y="1428" on="1"/>
        <pt x="-171" y="1688" on="1"/>
        <pt x="39" y="1688" on="1"/>
      </contour>
    </TTGlyph>
    <TTGlyph name="circumflexhookcomb" xMin="110" yMin="1252" xMax="1073" yMax="1745">
      <contour>
        <pt x="845" y="1258" on="1"/>
        <pt x="843" y="1252" on="1"/>
        <pt x="673" y="1252" on="1"/>
        <pt x="477" y="1438" on="1"/>
        <pt x="281" y="1252" on="1"/>
        <pt x="112" y="1252" on="1"/>
        <pt x="110" y="1258" on="1"/>
        <pt x="378" y="1515" on="1"/>
        <pt x="576" y="1515" on="1"/>
      </contour>
      <contour>
        <pt x="820" y="1390" on="1"/>
        <pt x="819" y="1523" on="1"/>
        <pt x="885" y="1527" on="0"/>
        <pt x="940" y="1553" on="0"/>
        <pt x="940" y="1585" on="1"/>
        <pt x="940" y="1619" on="0"/>
        <pt x="865" y="1651" on="0"/>
        <pt x="803" y="1651" on="1"/>
        <pt x="809" y="1745" on="1"/>
        <pt x="936" y="1745" on="0"/>
        <pt x="1073" y="1658" on="0"/>
        <pt x="1073" y="1583" on="1"/>
        <pt x="1073" y="1522" on="0"/>
        <pt x="998" y="1458" on="0"/>
        <pt x="941" y="1451" on="1"/>
        <pt x="940" y="1390" on="1"/>
      </contour>
    </TTGlyph>
    <TTGlyph name="circumflextildecomb" xMin="110" yMin="1252" xMax="845" yMax="1788">
      <contour>
        <pt x="845" y="1258" on="1"/>
        <pt x="843" y="1252" on="1"/>
        <pt x="673" y="1252" on="1"/>
        <pt x="477" y="1428" on="1"/>
        <pt x="281" y="1252" on="1"/>
        <pt x="112" y="1252" on="1"/>
        <pt x="110" y="1258" on="1"/>
        <pt x="399" y="1515" on="1"/>
        <pt x="556" y="1515" on="1"/>
      </contour>
      <contour>
        <pt x="738" y="1765" on="1"/>
        <pt x="738" y="1696" on="0"/>
        <pt x="641" y="1589" on="0"/>
        <pt x="575" y="1589" on="1"/>
        <pt x="522" y="1589" on="0"/>
        <pt x="409" y="1660" on="0"/>
        <pt x="371" y="1660" on="1"/>
        <pt x="340" y="1660" on="0"/>
        <pt x="289" y="1601" on="0"/>
        <pt x="289" y="1567" on="1"/>
        <pt x="209" y="1586" on="1"/>
        <pt x="209" y="1655" on="0"/>
        <pt x="305" y="1766" on="0"/>
        <pt x="371" y="1766" on="1"/>
        <pt x="413" y="1766" on="0"/>
        <pt x="536" y="1697" on="0"/>
        <pt x="575" y="1697" on="1"/>
        <pt x="605" y="1697" on="0"/>
        <pt x="659" y="1753" on="0"/>
        <pt x="659" y="1788" on="1"/>
      </contour>
    </TTGlyph>
    <TTGlyph name="colon" xMin="161" yMin="0" xMax="358" yMax="1078">
      <component glyphName="period" x="0" y="0" flags="0x4"/>
      <component glyphName="period" x="0" y="876" flags="0x4"/>
    </TTGlyph>
    <TTGlyph name="comma" xMin="48" yMin="-258" xMax="315" yMax="221">
      <contour>
        <pt x="315" y="48" on="1"/>
        <pt x="165" y="-258" on="1"/>
        <pt x="48" y="-258" on="1"/>
        <pt x="118" y="58" on="1"/>
        <pt x="118" y="221" on="1"/>
        <pt x="315" y="221" on="1"/>
      </contour>
    </TTGlyph>
    <TTGlyph name="commaaccent" xMin="101" yMin="-134" xMax="320" yMax="243">
      <contour>
        <pt x="320" y="103" on="1"/>
        <pt x="198" y="-134" on="1"/>
        <pt x="101" y="-134" on="1"/>
        <pt x="162" y="112" on="1"/>
        <pt x="162" y="243" on="1"/>
        <pt x="320" y="243" on="1"/>
      </contour>
    </TTGlyph>
    <TTGlyph name="commaaccentrotate" xMin="160" yMin="1164" xMax="378" yMax="1559">
      <contour>
        <pt x="160" y="1312" on="1"/>
        <pt x="281" y="1559" on="1"/>
        <pt x="378" y="1559" on="1"/>
        <pt x="357" y="1302" on="1"/>
        <pt x="357" y="1164" on="1"/>
        <pt x="160" y="1164" on="1"/>
      </contour>
    </TTGlyph>
    <TTGlyph name="copyright" xMin="88" yMin="-21" xMax="1507" yMax="1476">
      <contour>
        <pt x="1111" y="596" on="1"/>
        <pt x="1113" y="590" on="1"/>
        <pt x="1117" y="439" on="0"/>
        <pt x="941" y="282" on="0"/>
        <pt x="784" y="282" on="1"/>
        <pt x="624" y="282" on="0"/>
        <pt x="436" y="495" on="0"/>
        <pt x="436" y="669" on="1"/>
        <pt x="436" y="788" on="1"/>
        <pt x="436" y="961" on="0"/>
        <pt x="624" y="1175" on="0"/>
        <pt x="784" y="1175" on="1"/>
        <pt x="941" y="1175" on="0"/>
        <pt x="1118" y="1017" on="0"/>
        <pt x="1114" y="868" on="1"/>
        <pt x="1112" y="862" on="1"/>
        <pt x="966" y="862" on="1"/>
        <pt x="966" y="957" on="0"/>
        <pt x="875" y="1044" on="0"/>
        <pt x="784" y="1044" on="1"/>
        <pt x="690" y="1044" on="0"/>
        <pt x="588" y="903" on="0"/>
        <pt x="588" y="789" on="1"/>
        <pt x="588" y="669" on="1"/>
        <pt x="588" y="552" on="0"/>
        <pt x="690" y="412" on="0"/>
        <pt x="784" y="412" on="1"/>
        <pt x="875" y="412" on="0"/>
        <pt x="965" y="498" on="0"/>
        <pt x="965" y="596" on="1"/>
      </contour>
      <contour>
        <pt x="209" y="729" on="1"/>
        <pt x="209" y="464" on="0"/>
        <pt x="552" y="100" on="0"/>
        <pt x="798" y="100" on="1"/>
        <pt x="1043" y="100" on="0"/>
        <pt x="1387" y="464" on="0"/>
        <pt x="1387" y="729" on="1"/>
        <pt x="1387" y="992" on="0"/>
        <pt x="1043" y="1354" on="0"/>
        <pt x="798" y="1354" on="1"/>
        <pt x="552" y="1354" on="0"/>
        <pt x="209" y="992" on="0"/>
      </contour>
      <contour>
        <pt x="88" y="729" on="1"/>
        <pt x="88" y="1044" on="0"/>
        <pt x="502" y="1476" on="0"/>
        <pt x="798" y="1476" on="1"/>
        <pt x="1093" y="1476" on="0"/>
        <pt x="1507" y="1044" on="0"/>
        <pt x="1507" y="729" on="1"/>
        <pt x="1507" y="413" on="0"/>
        <pt x="1092" y="-21" on="0"/>
        <pt x="798" y="-21" on="1"/>
        <pt x="502" y="-21" on="0"/>
        <pt x="88" y="413" on="0"/>
      </contour>
    </TTGlyph>
    <TTGlyph name="crossbar" xMin="146" yMin="648" xMax="787" yMax="803">
      <contour>
        <pt x="787" y="648" on="1"/>
        <pt x="146" y="648" on="1"/>
        <pt x="146" y="803" on="1"/>
        <pt x="787" y="803" on="1"/>
      </contour>
    </TTGlyph>
    <TTGlyph name="currency" xMin="104" yMin="-27" xMax="1370" yMax="1265">
      <contour>
        <pt x="1097" y="108" on="1"/>
        <pt x="1020" y="46" on="0"/>
        <pt x="835" y="-20" on="0"/>
        <pt x="734" y="-20" on="1"/>
        <pt x="633" y="-20" on="0"/>
        <pt x="448" y="45" on="0"/>
        <pt x="373" y="106" on="1"/>
        <pt x="243" y="-26" on="1"/>
        <pt x="104" y="112" on="1"/>
        <pt x="242" y="252" on="1"/>
        <pt x="192" y="328" on="0"/>
        <pt x="139" y="509" on="0"/>
        <pt x="139" y="608" on="1"/>
        <pt x="139" y="710" on="0"/>
        <pt x="196" y="898" on="0"/>
        <pt x="250" y="976" on="1"/>
        <pt x="104" y="1125" on="1"/>
        <pt x="243" y="1264" on="1"/>
        <pt x="386" y="1118" on="1"/>
        <pt x="460" y="1173" on="0"/>
        <pt x="638" y="1234" on="0"/>
        <pt x="734" y="1234" on="1"/>
        <pt x="831" y="1234" on="0"/>
        <pt x="1009" y="1172" on="0"/>
        <pt x="1084" y="1116" on="1"/>
        <pt x="1230" y="1265" on="1"/>
        <pt x="1370" y="1125" on="1"/>
        <pt x="1220" y="972" on="1"/>
        <pt x="1272" y="894" on="0"/>
        <pt x="1329" y="709" on="0"/>
        <pt x="1329" y="608" on="1"/>
        <pt x="1329" y="510" on="0"/>
        <pt x="1276" y="331" on="0"/>
        <pt x="1228" y="255" on="1"/>
        <pt x="1370" y="112" on="1"/>
        <pt x="1230" y="-27" on="1"/>
      </contour>
      <contour>
        <pt x="321" y="608" on="1"/>
        <pt x="321" y="420" on="0"/>
        <pt x="562" y="155" on="0"/>
        <pt x="734" y="155" on="1"/>
        <pt x="904" y="155" on="0"/>
        <pt x="1145" y="420" on="0"/>
        <pt x="1145" y="608" on="1"/>
        <pt x="1145" y="794" on="0"/>
        <pt x="904" y="1058" on="0"/>
        <pt x="734" y="1058" on="1"/>
        <pt x="562" y="1058" on="0"/>
        <pt x="321" y="794" on="0"/>
      </contour>
    </TTGlyph>
    <TTGlyph name="cyrillicbreve" xMin="129" yMin="1188" xMax="728" yMax="1456">
      <component glyphName="breve" x="0" y="0" flags="0x204"/>
    </TTGlyph>
    <TTGlyph name="cyrillichook" xMin="-66" yMin="-437" xMax="370" yMax="154">
      <contour>
        <pt x="370" y="154" on="1"/>
        <pt x="370" y="-89" on="1"/>
        <pt x="370" y="-256" on="0"/>
        <pt x="198" y="-437" on="0"/>
        <pt x="45" y="-437" on="1"/>
        <pt x="14" y="-437" on="0"/>
        <pt x="-37" y="-428" on="0"/>
        <pt x="-66" y="-419" on="1"/>
        <pt x="-52" y="-259" on="1"/>
        <pt x="-38" y="-264" on="0"/>
        <pt x="26" y="-271" on="0"/>
        <pt x="45" y="-271" on="1"/>
        <pt x="105" y="-271" on="0"/>
        <pt x="173" y="-177" on="0"/>
        <pt x="173" y="-89" on="1"/>
        <pt x="173" y="154" on="1"/>
      </contour>
    </TTGlyph>
    <TTGlyph name="cyrillichookleft" xMin="19" yMin="-413" xMax="457" yMax="67">
      <contour>
        <pt x="248" y="67" on="1"/>
        <pt x="353" y="15" on="0"/>
        <pt x="457" y="-128" on="0"/>
        <pt x="457" y="-204" on="1"/>
        <pt x="457" y="-303" on="0"/>
        <pt x="324" y="-413" on="0"/>
        <pt x="222" y="-413" on="1"/>
        <pt x="154" y="-413" on="0"/>
        <pt x="58" y="-388" on="0"/>
        <pt x="19" y="-369" on="1"/>
        <pt x="52" y="-246" on="1"/>
        <pt x="82" y="-257" on="0"/>
        <pt x="137" y="-272" on="0"/>
        <pt x="171" y="-272" on="1"/>
        <pt x="232" y="-272" on="0"/>
        <pt x="286" y="-224" on="0"/>
        <pt x="286" y="-182" on="1"/>
        <pt x="286" y="-133" on="0"/>
        <pt x="216" y="-46" on="0"/>
        <pt x="157" y="0" on="1"/>
      </contour>
    </TTGlyph>
    <TTGlyph name="cyrillictic" xMin="96" yMin="-359" xMax="293" yMax="157">
      <contour>
        <pt x="293" y="-359" on="1"/>
        <pt x="96" y="-359" on="1"/>
        <pt x="96" y="157" on="1"/>
        <pt x="293" y="157" on="1"/>
      </contour>
    </TTGlyph>
    <TTGlyph name="d" xMin="98" yMin="-21" xMax="1013" yMax="1560">
      <contour>
        <pt x="98" y="521" on="1"/>
        <pt x="98" y="782" on="0"/>
        <pt x="321" y="1102" on="0"/>
        <pt x="522" y="1102" on="1"/>
        <pt x="617" y="1102" on="0"/>
        <pt x="764" y="1032" on="0"/>
        <pt x="816" y="965" on="1"/>
        <pt x="816" y="1560" on="1"/>
        <pt x="1013" y="1560" on="1"/>
        <pt x="1013" y="0" on="1"/>
        <pt x="852" y="0" on="1"/>
        <pt x="829" y="133" on="1"/>
        <pt x="776" y="57" on="0"/>
        <pt x="622" y="-21" on="0"/>
        <pt x="520" y="-21" on="1"/>
        <pt x="322" y="-21" on="0"/>
        <pt x="98" y="266" on="0"/>
        <pt x="98" y="500" on="1"/>
      </contour>
      <contour>
        <pt x="295" y="500" on="1"/>
        <pt x="295" y="336" on="0"/>
        <pt x="429" y="139" on="0"/>
        <pt x="570" y="139" on="1"/>
        <pt x="658" y="139" on="0"/>
        <pt x="778" y="219" on="0"/>
        <pt x="816" y="291" on="1"/>
        <pt x="816" y="796" on="1"/>
        <pt x="778" y="863" on="0"/>
        <pt x="657" y="942" on="0"/>
        <pt x="572" y="942" on="1"/>
        <pt x="430" y="942" on="0"/>
        <pt x="295" y="708" on="0"/>
        <pt x="295" y="521" on="1"/>
      </contour>
    </TTGlyph>
    <TTGlyph name="dagger" xMin="70" yMin="0" xMax="1060" yMax="1456">
      <contour>
        <pt x="1060" y="926" on="1"/>
        <pt x="661" y="926" on="1"/>
        <pt x="661" y="0" on="1"/>
        <pt x="464" y="0" on="1"/>
        <pt x="464" y="926" on="1"/>
        <pt x="70" y="926" on="1"/>
        <pt x="70" y="1082" on="1"/>
        <pt x="464" y="1082" on="1"/>
        <pt x="464" y="1456" on="1"/>
        <pt x="661" y="1456" on="1"/>
        <pt x="661" y="1082" on="1"/>
        <pt x="1060" y="1082" on="1"/>
      </contour>
    </TTGlyph>
    <TTGlyph name="daggerdbl" xMin="87" yMin="-416" xMax="1076" yMax="1456">
      <contour>
        <pt x="1076" y="0" on="1"/>
        <pt x="677" y="0" on="1"/>
        <pt x="677" y="-416" on="1"/>
        <pt x="480" y="-416" on="1"/>
        <pt x="480" y="0" on="1"/>
        <pt x="87" y="0" on="1"/>
        <pt x="87" y="154" on="1"/>
        <pt x="480" y="154" on="1"/>
        <pt x="480" y="926" on="1"/>
        <pt x="87" y="926" on="1"/>
        <pt x="87" y="1082" on="1"/>
        <pt x="480" y="1082" on="1"/>
        <pt x="480" y="1456" on="1"/>
        <pt x="677" y="1456" on="1"/>
        <pt x="677" y="1082" on="1"/>
        <pt x="1076" y="1082" on="1"/>
        <pt x="1076" y="926" on="1"/>
        <pt x="677" y="926" on="1"/>
        <pt x="677" y="154" on="1"/>
        <pt x="1076" y="154" on="1"/>
      </contour>
    </TTGlyph>
    <TTGlyph name="dasiaoxia" xMin="104" yMin="1135" xMax="716" yMax="1477">
      <contour>
        <pt x="405" y="1164" on="1"/>
        <pt x="507" y="1477" on="1"/>
        <pt x="716" y="1477" on="1"/>
        <pt x="716" y="1456" on="1"/>
        <pt x="487" y="1137" on="1"/>
        <pt x="405" y="1137" on="1"/>
      </contour>
      <contour>
        <pt x="104" y="1278" on="1"/>
        <pt x="266" y="1476" on="1"/>
        <pt x="374" y="1476" on="1"/>
        <pt x="292" y="1272" on="1"/>
        <pt x="292" y="1135" on="1"/>
        <pt x="104" y="1135" on="1"/>
      </contour>
    </TTGlyph>
    <TTGlyph name="dcaron" xMin="98" yMin="-21" xMax="1309" yMax="1560">
      <component glyphName="d" x="0" y="0" flags="0x4"/>
      <component glyphName="commaaccent" x="989" y="1317" flags="0x4"/>
    </TTGlyph>
    <TTGlyph name="dcroat" xMin="98" yMin="-21" xMax="1210" yMax="1560">
      <contour>
        <pt x="1210" y="1231" on="1"/>
        <pt x="1013" y="1231" on="1"/>
        <pt x="1013" y="0" on="1"/>
        <pt x="852" y="0" on="1"/>
        <pt x="829" y="133" on="1"/>
        <pt x="776" y="57" on="0"/>
        <pt x="622" y="-21" on="0"/>
        <pt x="520" y="-21" on="1"/>
        <pt x="322" y="-21" on="0"/>
        <pt x="98" y="266" on="0"/>
        <pt x="98" y="500" on="1"/>
        <pt x="98" y="521" on="1"/>
        <pt x="98" y="782" on="0"/>
        <pt x="321" y="1102" on="0"/>
        <pt x="522" y="1102" on="1"/>
        <pt x="617" y="1102" on="0"/>
        <pt x="764" y="1032" on="0"/>
        <pt x="816" y="965" on="1"/>
        <pt x="816" y="1231" on="1"/>
        <pt x="569" y="1231" on="1"/>
        <pt x="569" y="1386" on="1"/>
        <pt x="816" y="1386" on="1"/>
        <pt x="816" y="1560" on="1"/>
        <pt x="1013" y="1560" on="1"/>
        <pt x="1013" y="1386" on="1"/>
        <pt x="1210" y="1386" on="1"/>
      </contour>
      <contour>
        <pt x="295" y="500" on="1"/>
        <pt x="295" y="336" on="0"/>
        <pt x="429" y="139" on="0"/>
        <pt x="570" y="139" on="1"/>
        <pt x="658" y="139" on="0"/>
        <pt x="778" y="219" on="0"/>
        <pt x="816" y="291" on="1"/>
        <pt x="816" y="796" on="1"/>
        <pt x="778" y="863" on="0"/>
        <pt x="657" y="942" on="0"/>
        <pt x="572" y="942" on="1"/>
        <pt x="430" y="942" on="0"/>
        <pt x="295" y="708" on="0"/>
        <pt x="295" y="521" on="1"/>
      </contour>
    </TTGlyph>
    <TTGlyph name="degree" xMin="128" yMin="959" xMax="637" yMax="1477">
      <contour>
        <pt x="128" y="1216" on="1"/>
        <pt x="128" y="1322" on="0"/>
        <pt x="280" y="1477" on="0"/>
        <pt x="385" y="1477" on="1"/>
        <pt x="488" y="1477" on="0"/>
        <pt x="637" y="1322" on="0"/>
        <pt x="637" y="1216" on="1"/>
        <pt x="637" y="1108" on="0"/>
        <pt x="489" y="959" on="0"/>
        <pt x="385" y="959" on="1"/>
        <pt x="279" y="959" on="0"/>
        <pt x="128" y="1108" on="0"/>
      </contour>
      <contour>
        <pt x="259" y="1216" on="1"/>
        <pt x="259" y="1161" on="0"/>
        <pt x="332" y="1089" on="0"/>
        <pt x="385" y="1089" on="1"/>
        <pt x="437" y="1089" on="0"/>
        <pt x="508" y="1161" on="0"/>
        <pt x="508" y="1216" on="1"/>
        <pt x="508" y="1271" on="0"/>
        <pt x="436" y="1346" on="0"/>
        <pt x="385" y="1346" on="1"/>
        <pt x="332" y="1346" on="0"/>
        <pt x="259" y="1271" on="0"/>
      </contour>
    </TTGlyph>
    <TTGlyph name="delta" xMin="97" yMin="-21" xMax="1066" yMax="1456">
      <contour>
        <pt x="938" y="1456" on="1"/>
        <pt x="938" y="1305" on="1"/>
        <pt x="484" y="1305" on="1"/>
        <pt x="482" y="1299" on="1"/>
        <pt x="853" y="1022" on="1"/>
        <pt x="954" y="947" on="0"/>
        <pt x="1066" y="701" on="0"/>
        <pt x="1066" y="551" on="1"/>
        <pt x="1066" y="529" on="1"/>
        <pt x="1066" y="287" on="0"/>
        <pt x="806" y="-21" on="0"/>
        <pt x="582" y="-21" on="1"/>
        <pt x="358" y="-21" on="0"/>
        <pt x="97" y="288" on="0"/>
        <pt x="97" y="529" on="1"/>
        <pt x="97" y="551" on="1"/>
        <pt x="97" y="766" on="0"/>
        <pt x="308" y="1065" on="0"/>
        <pt x="493" y="1095" on="1"/>
        <pt x="500" y="1096" on="1"/>
        <pt x="502" y="1102" on="1"/>
        <pt x="205" y="1338" on="1"/>
        <pt x="205" y="1456" on="1"/>
      </contour>
      <contour>
        <pt x="580" y="947" on="1"/>
        <pt x="439" y="947" on="0"/>
        <pt x="294" y="721" on="0"/>
        <pt x="294" y="551" on="1"/>
        <pt x="294" y="529" on="1"/>
        <pt x="294" y="357" on="0"/>
        <pt x="439" y="133" on="0"/>
        <pt x="582" y="133" on="1"/>
        <pt x="723" y="133" on="0"/>
        <pt x="869" y="357" on="0"/>
        <pt x="869" y="529" on="1"/>
        <pt x="869" y="551" on="1"/>
        <pt x="869" y="721" on="0"/>
        <pt x="722" y="947" on="0"/>
      </contour>
    </TTGlyph>
    <TTGlyph name="dieresis" xMin="170" yMin="1256" xMax="859" yMax="1456">
      <contour>
        <pt x="859" y="1256" on="1"/>
        <pt x="640" y="1256" on="1"/>
        <pt x="640" y="1456" on="1"/>
        <pt x="859" y="1456" on="1"/>
      </contour>
      <contour>
        <pt x="389" y="1256" on="1"/>
        <pt x="170" y="1256" on="1"/>
        <pt x="170" y="1456" on="1"/>
        <pt x="389" y="1456" on="1"/>
      </contour>
    </TTGlyph>
    <TTGlyph name="dieresistonos" xMin="161" yMin="1256" xMax="869" yMax="1730">
      <contour>
        <pt x="869" y="1256" on="1"/>
        <pt x="670" y="1256" on="1"/>
        <pt x="670" y="1456" on="1"/>
        <pt x="869" y="1456" on="1"/>
      </contour>
      <contour>
        <pt x="359" y="1256" on="1"/>
        <pt x="161" y="1256" on="1"/>
        <pt x="161" y="1456" on="1"/>
        <pt x="359" y="1456" on="1"/>
      </contour>
      <contour>
        <pt x="497" y="1730" on="1"/>
        <pt x="715" y="1730" on="1"/>
        <pt x="588" y="1468" on="1"/>
        <pt x="446" y="1468" on="1"/>
      </contour>
    </TTGlyph>
    <TTGlyph name="divide" xMin="71" yMin="180" xMax="1069" yMax="1202">
      <contour>
        <pt x="1069" y="597" on="1"/>
        <pt x="71" y="597" on="1"/>
        <pt x="71" y="785" on="1"/>
        <pt x="1069" y="785" on="1"/>
      </contour>
      <contour>
        <pt x="670" y="999" on="1"/>
        <pt x="472" y="999" on="1"/>
        <pt x="472" y="1202" on="1"/>
        <pt x="670" y="1202" on="1"/>
      </contour>
      <contour>
        <pt x="670" y="180" on="1"/>
        <pt x="472" y="180" on="1"/>
        <pt x="472" y="383" on="1"/>
        <pt x="670" y="383" on="1"/>
      </contour>
    </TTGlyph>
    <TTGlyph name="dollar" xMin="110" yMin="-208" xMax="1045" yMax="1693">
      <contour>
        <pt x="848" y="376" on="1"/>
        <pt x="848" y="465" on="0"/>
        <pt x="720" y="593" on="0"/>
        <pt x="574" y="643" on="1"/>
        <pt x="372" y="704" on="0"/>
        <pt x="166" y="908" on="0"/>
        <pt x="166" y="1078" on="1"/>
        <pt x="166" y="1243" on="0"/>
        <pt x="355" y="1451" on="0"/>
        <pt x="521" y="1472" on="1"/>
        <pt x="521" y="1693" on="1"/>
        <pt x="679" y="1693" on="1"/>
        <pt x="679" y="1471" on="1"/>
        <pt x="847" y="1447" on="0"/>
        <pt x="1032" y="1208" on="0"/>
        <pt x="1032" y="1007" on="1"/>
        <pt x="836" y="1007" on="1"/>
        <pt x="836" y="1143" on="0"/>
        <pt x="710" y="1311" on="0"/>
        <pt x="598" y="1311" on="1"/>
        <pt x="480" y="1311" on="0"/>
        <pt x="363" y="1188" on="0"/>
        <pt x="363" y="1081" on="1"/>
        <pt x="363" y="984" on="0"/>
        <pt x="484" y="864" on="0"/>
        <pt x="642" y="810" on="1"/>
        <pt x="847" y="744" on="0"/>
        <pt x="1045" y="547" on="0"/>
        <pt x="1045" y="378" on="1"/>
        <pt x="1045" y="206" on="0"/>
        <pt x="839" y="3" on="0"/>
        <pt x="659" y="-16" on="1"/>
        <pt x="659" y="-208" on="1"/>
        <pt x="502" y="-208" on="1"/>
        <pt x="502" y="-17" on="1"/>
        <pt x="330" y="1" on="0"/>
        <pt x="110" y="216" on="0"/>
        <pt x="114" y="424" on="1"/>
        <pt x="116" y="429" on="1"/>
        <pt x="306" y="429" on="1"/>
        <pt x="306" y="275" on="0"/>
        <pt x="461" y="144" on="0"/>
        <pt x="574" y="144" on="1"/>
        <pt x="703" y="144" on="0"/>
        <pt x="848" y="267" on="0"/>
      </contour>
    </TTGlyph>
    <TTGlyph name="dotaccent" xMin="160" yMin="1255" xMax="378" yMax="1456">
      <contour>
        <pt x="378" y="1255" on="1"/>
        <pt x="160" y="1255" on="1"/>
        <pt x="160" y="1456" on="1"/>
        <pt x="378" y="1456" on="1"/>
      </contour>
    </TTGlyph>
    <TTGlyph name="dotbelow" xMin="-708" yMin="-337" xMax="-490" yMax="-137">
      <contour>
        <pt x="-490" y="-337" on="1"/>
        <pt x="-708" y="-337" on="1"/>
        <pt x="-708" y="-137" on="1"/>
        <pt x="-490" y="-137" on="1"/>
      </contour>
    </TTGlyph>
    <TTGlyph name="dotlessi" xMin="153" yMin="0" xMax="350" yMax="1082">
      <contour>
        <pt x="350" y="0" on="1"/>
        <pt x="153" y="0" on="1"/>
        <pt x="153" y="1082" on="1"/>
        <pt x="350" y="1082" on="1"/>
      </contour>
    </TTGlyph>
    <TTGlyph name="e" xMin="99" yMin="-21" xMax="1005" yMax="1102">
      <contour>
        <pt x="592" y="-21" on="1"/>
        <pt x="366" y="-21" on="0"/>
        <pt x="99" y="280" on="0"/>
        <pt x="99" y="520" on="1"/>
        <pt x="99" y="564" on="1"/>
        <pt x="99" y="795" on="0"/>
        <pt x="374" y="1102" on="0"/>
        <pt x="562" y="1102" on="1"/>
        <pt x="781" y="1102" on="0"/>
        <pt x="1005" y="838" on="0"/>
        <pt x="1005" y="618" on="1"/>
        <pt x="1005" y="495" on="1"/>
        <pt x="303" y="495" on="1"/>
        <pt x="300" y="490" on="1"/>
        <pt x="303" y="334" on="0"/>
        <pt x="455" y="133" on="0"/>
        <pt x="592" y="133" on="1"/>
        <pt x="692" y="133" on="0"/>
        <pt x="843" y="190" on="0"/>
        <pt x="898" y="240" on="1"/>
        <pt x="975" y="112" on="1"/>
        <pt x="917" y="55" on="0"/>
        <pt x="727" y="-21" on="0"/>
      </contour>
      <contour>
        <pt x="562" y="947" on="1"/>
        <pt x="463" y="947" on="0"/>
        <pt x="323" y="780" on="0"/>
        <pt x="307" y="654" on="1"/>
        <pt x="309" y="649" on="1"/>
        <pt x="808" y="649" on="1"/>
        <pt x="808" y="675" on="1"/>
        <pt x="808" y="791" on="0"/>
        <pt x="684" y="947" on="0"/>
      </contour>
    </TTGlyph>
    <TTGlyph name="eacute" xMin="99" yMin="-21" xMax="1005" yMax="1501">
      <component glyphName="e" x="0" y="0" flags="0x204"/>
      <component glyphName="acute" x="337" y="24" flags="0x4"/>
    </TTGlyph>
    <TTGlyph name="ebreve" xMin="99" yMin="-21" xMax="1005" yMax="1549">
      <component glyphName="e" x="0" y="0" flags="0x204"/>
      <component glyphName="breve" x="130" y="93" flags="0x4"/>
    </TTGlyph>
    <TTGlyph name="ecaron" xMin="99" yMin="-21" xMax="1005" yMax="1544">
      <component glyphName="e" x="0" y="0" flags="0x204"/>
      <component glyphName="caron" x="104" y="29" flags="0x4"/>
    </TTGlyph>
    <TTGlyph name="ecircumflex" xMin="99" yMin="-21" xMax="1005" yMax="1543">
      <component glyphName="e" x="0" y="0" flags="0x204"/>
      <component glyphName="circumflex" x="81" y="28" flags="0x4"/>
    </TTGlyph>
    <TTGlyph name="edieresis" xMin="99" yMin="-21" xMax="1005" yMax="1484">
      <component glyphName="e" x="0" y="0" flags="0x204"/>
      <component glyphName="dieresis" x="44" y="28" flags="0x4"/>
    </TTGlyph>
    <TTGlyph name="edotaccent" xMin="99" yMin="-21" xMax="1005" yMax="1484">
      <component glyphName="e" x="0" y="0" flags="0x204"/>
      <component glyphName="dotaccent" x="289" y="28" flags="0x4"/>
    </TTGlyph>
    <TTGlyph name="egrave" xMin="99" yMin="-21" xMax="1005" yMax="1505">
      <component glyphName="e" x="0" y="0" flags="0x204"/>
      <component glyphName="grave" x="151" y="28" flags="0x4"/>
    </TTGlyph>
    <TTGlyph name="eight" xMin="102" yMin="-21" xMax="1050" yMax="1477">
      <contour>
        <pt x="1010" y="1076" on="1"/>
        <pt x="1010" y="962" on="0"/>
        <pt x="882" y="791" on="0"/>
        <pt x="773" y="749" on="1"/>
        <pt x="899" y="705" on="0"/>
        <pt x="1050" y="517" on="0"/>
        <pt x="1050" y="394" on="1"/>
        <pt x="1050" y="192" on="0"/>
        <pt x="787" y="-21" on="0"/>
        <pt x="577" y="-21" on="1"/>
        <pt x="363" y="-21" on="0"/>
        <pt x="102" y="192" on="0"/>
        <pt x="102" y="394" on="1"/>
        <pt x="102" y="517" on="0"/>
        <pt x="250" y="705" on="0"/>
        <pt x="376" y="749" on="1"/>
        <pt x="267" y="791" on="0"/>
        <pt x="143" y="962" on="0"/>
        <pt x="143" y="1076" on="1"/>
        <pt x="143" y="1268" on="0"/>
        <pt x="380" y="1477" on="0"/>
        <pt x="575" y="1477" on="1"/>
        <pt x="767" y="1477" on="0"/>
        <pt x="1010" y="1268" on="0"/>
      </contour>
      <contour>
        <pt x="854" y="398" on="1"/>
        <pt x="854" y="518" on="0"/>
        <pt x="696" y="672" on="0"/>
        <pt x="575" y="672" on="1"/>
        <pt x="452" y="672" on="0"/>
        <pt x="299" y="518" on="0"/>
        <pt x="299" y="398" on="1"/>
        <pt x="299" y="274" on="0"/>
        <pt x="451" y="133" on="0"/>
        <pt x="577" y="133" on="1"/>
        <pt x="700" y="133" on="0"/>
        <pt x="854" y="275" on="0"/>
      </contour>
      <contour>
        <pt x="813" y="1072" on="1"/>
        <pt x="813" y="1180" on="0"/>
        <pt x="678" y="1322" on="0"/>
        <pt x="575" y="1322" on="1"/>
        <pt x="470" y="1322" on="0"/>
        <pt x="340" y="1185" on="0"/>
        <pt x="340" y="1072" on="1"/>
        <pt x="340" y="961" on="0"/>
        <pt x="471" y="827" on="0"/>
        <pt x="577" y="827" on="1"/>
        <pt x="681" y="827" on="0"/>
        <pt x="813" y="961" on="0"/>
      </contour>
    </TTGlyph>
    <TTGlyph name="eight.lnum" xMin="125" yMin="-21" xMax="1112" yMax="1477">
      <contour>
        <pt x="1071" y="1076" on="1"/>
        <pt x="1071" y="962" on="0"/>
        <pt x="938" y="791" on="0"/>
        <pt x="824" y="749" on="1"/>
        <pt x="955" y="705" on="0"/>
        <pt x="1112" y="517" on="0"/>
        <pt x="1112" y="394" on="1"/>
        <pt x="1112" y="192" on="0"/>
        <pt x="838" y="-21" on="0"/>
        <pt x="619" y="-21" on="1"/>
        <pt x="396" y="-21" on="0"/>
        <pt x="125" y="192" on="0"/>
        <pt x="125" y="394" on="1"/>
        <pt x="125" y="518" on="0"/>
        <pt x="278" y="705" on="0"/>
        <pt x="410" y="749" on="1"/>
        <pt x="296" y="790" on="0"/>
        <pt x="166" y="962" on="0"/>
        <pt x="166" y="1076" on="1"/>
        <pt x="166" y="1268" on="0"/>
        <pt x="414" y="1477" on="0"/>
        <pt x="617" y="1477" on="1"/>
        <pt x="818" y="1477" on="0"/>
        <pt x="1071" y="1268" on="0"/>
      </contour>
      <contour>
        <pt x="915" y="398" on="1"/>
        <pt x="915" y="517" on="0"/>
        <pt x="745" y="672" on="0"/>
        <pt x="617" y="672" on="1"/>
        <pt x="486" y="672" on="0"/>
        <pt x="322" y="519" on="0"/>
        <pt x="322" y="398" on="1"/>
        <pt x="322" y="274" on="0"/>
        <pt x="484" y="133" on="0"/>
        <pt x="619" y="133" on="1"/>
        <pt x="750" y="133" on="0"/>
        <pt x="915" y="275" on="0"/>
      </contour>
      <contour>
        <pt x="874" y="1072" on="1"/>
        <pt x="874" y="1180" on="0"/>
        <pt x="729" y="1322" on="0"/>
        <pt x="617" y="1322" on="1"/>
        <pt x="503" y="1322" on="0"/>
        <pt x="363" y="1185" on="0"/>
        <pt x="363" y="1072" on="1"/>
        <pt x="363" y="961" on="0"/>
        <pt x="504" y="827" on="0"/>
        <pt x="619" y="827" on="1"/>
        <pt x="732" y="827" on="0"/>
        <pt x="874" y="961" on="0"/>
      </contour>
    </TTGlyph>
    <TTGlyph name="eight.smcp" xMin="88" yMin="-17" xMax="969" yMax="1181">
      <contour>
        <pt x="934" y="860" on="1"/>
        <pt x="934" y="773" on="0"/>
        <pt x="832" y="641" on="0"/>
        <pt x="746" y="604" on="1"/>
        <pt x="848" y="565" on="0"/>
        <pt x="969" y="421" on="0"/>
        <pt x="969" y="327" on="1"/>
        <pt x="969" y="165" on="0"/>
        <pt x="722" y="-17" on="0"/>
        <pt x="537" y="-17" on="1"/>
        <pt x="343" y="-17" on="0"/>
        <pt x="88" y="165" on="0"/>
        <pt x="88" y="327" on="1"/>
        <pt x="88" y="421" on="0"/>
        <pt x="211" y="566" on="0"/>
        <pt x="317" y="604" on="1"/>
        <pt x="226" y="641" on="0"/>
        <pt x="122" y="773" on="0"/>
        <pt x="122" y="860" on="1"/>
        <pt x="122" y="1013" on="0"/>
        <pt x="355" y="1181" on="0"/>
        <pt x="535" y="1181" on="1"/>
        <pt x="707" y="1181" on="0"/>
        <pt x="934" y="1013" on="0"/>
      </contour>
      <contour>
        <pt x="771" y="331" on="1"/>
        <pt x="771" y="415" on="0"/>
        <pt x="632" y="526" on="0"/>
        <pt x="535" y="526" on="1"/>
        <pt x="430" y="526" on="0"/>
        <pt x="285" y="415" on="0"/>
        <pt x="285" y="331" on="1"/>
        <pt x="285" y="244" on="0"/>
        <pt x="430" y="135" on="0"/>
        <pt x="537" y="135" on="1"/>
        <pt x="635" y="135" on="0"/>
        <pt x="771" y="244" on="0"/>
      </contour>
      <contour>
        <pt x="736" y="856" on="1"/>
        <pt x="736" y="930" on="0"/>
        <pt x="617" y="1028" on="0"/>
        <pt x="535" y="1028" on="1"/>
        <pt x="442" y="1028" on="0"/>
        <pt x="319" y="934" on="0"/>
        <pt x="319" y="856" on="1"/>
        <pt x="319" y="779" on="0"/>
        <pt x="444" y="680" on="0"/>
        <pt x="537" y="680" on="1"/>
        <pt x="620" y="680" on="0"/>
        <pt x="736" y="779" on="0"/>
      </contour>
    </TTGlyph>
    <TTGlyph name="eight.sup" xMin="112" yMin="-11" xMax="775" yMax="812">
      <contour>
        <pt x="751" y="592" on="1"/>
        <pt x="751" y="533" on="0"/>
        <pt x="678" y="442" on="0"/>
        <pt x="616" y="415" on="1"/>
        <pt x="689" y="387" on="0"/>
        <pt x="775" y="288" on="0"/>
        <pt x="775" y="225" on="1"/>
        <pt x="775" y="113" on="0"/>
        <pt x="590" y="-11" on="0"/>
        <pt x="450" y="-11" on="1"/>
        <pt x="304" y="-11" on="0"/>
        <pt x="112" y="113" on="0"/>
        <pt x="112" y="225" on="1"/>
        <pt x="112" y="288" on="0"/>
        <pt x="201" y="388" on="0"/>
        <pt x="277" y="416" on="1"/>
        <pt x="211" y="443" on="0"/>
        <pt x="137" y="533" on="0"/>
        <pt x="137" y="592" on="1"/>
        <pt x="137" y="697" on="0"/>
        <pt x="314" y="812" on="0"/>
        <pt x="449" y="812" on="1"/>
        <pt x="579" y="812" on="0"/>
        <pt x="751" y="697" on="0"/>
      </contour>
      <contour>
        <pt x="605" y="232" on="1"/>
        <pt x="605" y="283" on="0"/>
        <pt x="513" y="350" on="0"/>
        <pt x="449" y="350" on="1"/>
        <pt x="379" y="350" on="0"/>
        <pt x="283" y="284" on="0"/>
        <pt x="283" y="232" on="1"/>
        <pt x="283" y="180" on="0"/>
        <pt x="378" y="119" on="0"/>
        <pt x="450" y="119" on="1"/>
        <pt x="515" y="119" on="0"/>
        <pt x="605" y="180" on="0"/>
      </contour>
      <contour>
        <pt x="579" y="583" on="1"/>
        <pt x="579" y="628" on="0"/>
        <pt x="504" y="681" on="0"/>
        <pt x="449" y="681" on="1"/>
        <pt x="388" y="681" on="0"/>
        <pt x="309" y="629" on="0"/>
        <pt x="309" y="583" on="1"/>
        <pt x="309" y="537" on="0"/>
        <pt x="390" y="480" on="0"/>
        <pt x="450" y="480" on="1"/>
        <pt x="503" y="480" on="0"/>
        <pt x="579" y="537" on="0"/>
      </contour>
    </TTGlyph>
    <TTGlyph name="ellipsis" xMin="161" yMin="0" xMax="1221" yMax="202">
      <component glyphName="period" x="0" y="0" flags="0x4"/>
      <component glyphName="period" x="443" y="0" flags="0x4"/>
      <component glyphName="period" x="863" y="0" flags="0x4"/>
    </TTGlyph>
    <TTGlyph name="emacron" xMin="99" yMin="-21" xMax="1005" yMax="1465">
      <component glyphName="e" x="0" y="0" flags="0x204"/>
      <component glyphName="macron" x="80" y="9" flags="0x4"/>
    </TTGlyph>
    <TTGlyph name="emdash" xMin="189" yMin="648" xMax="1525" yMax="803">
      <component glyphName="minus" x="-80" y="0" scalex="1.59997558594" scaley="1.0" flags="0x4"/>
    </TTGlyph>
    <TTGlyph name="endash" xMin="180" yMin="648" xMax="1266" yMax="803">
      <component glyphName="minus" x="-38" y="0" scalex="1.29998779297" scaley="1.0" flags="0x4"/>
    </TTGlyph>
    <TTGlyph name="eng" xMin="143" yMin="-437" xMax="1013" yMax="1102">
      <contour>
        <pt x="319" y="1082" on="1"/>
        <pt x="332" y="932" on="1"/>
        <pt x="386" y="1013" on="0"/>
        <pt x="546" y="1102" on="0"/>
        <pt x="647" y="1102" on="1"/>
        <pt x="821" y="1102" on="0"/>
        <pt x="1013" y="897" on="0"/>
        <pt x="1013" y="683" on="1"/>
        <pt x="1013" y="-89" on="1"/>
        <pt x="1013" y="-256" on="0"/>
        <pt x="841" y="-437" on="0"/>
        <pt x="687" y="-437" on="1"/>
        <pt x="656" y="-437" on="0"/>
        <pt x="603" y="-428" on="0"/>
        <pt x="575" y="-419" on="1"/>
        <pt x="589" y="-259" on="1"/>
        <pt x="602" y="-264" on="0"/>
        <pt x="669" y="-271" on="0"/>
        <pt x="687" y="-271" on="1"/>
        <pt x="748" y="-271" on="0"/>
        <pt x="816" y="-177" on="0"/>
        <pt x="816" y="-89" on="1"/>
        <pt x="816" y="679" on="1"/>
        <pt x="816" y="822" on="0"/>
        <pt x="702" y="942" on="0"/>
        <pt x="586" y="942" on="1"/>
        <pt x="501" y="942" on="0"/>
        <pt x="378" y="876" on="0"/>
        <pt x="340" y="817" on="1"/>
        <pt x="340" y="0" on="1"/>
        <pt x="143" y="0" on="1"/>
        <pt x="143" y="1082" on="1"/>
      </contour>
    </TTGlyph>
    <TTGlyph name="eogonek" xMin="99" yMin="-370" xMax="1005" yMax="1102">
      <component glyphName="e" x="0" y="0" flags="0x204"/>
      <component glyphName="ogonek" x="492" y="62" flags="0x4"/>
    </TTGlyph>
    <TTGlyph name="epsilon" xMin="98" yMin="-19" xMax="1001" yMax="1100">
      <contour>
        <pt x="538" y="477" on="1"/>
        <pt x="417" y="477" on="0"/>
        <pt x="296" y="392" on="0"/>
        <pt x="296" y="305" on="1"/>
        <pt x="296" y="232" on="0"/>
        <pt x="433" y="132" on="0"/>
        <pt x="551" y="132" on="1"/>
        <pt x="663" y="132" on="0"/>
        <pt x="808" y="244" on="0"/>
        <pt x="808" y="320" on="1"/>
        <pt x="994" y="320" on="1"/>
        <pt x="996" y="314" on="1"/>
        <pt x="1001" y="152" on="0"/>
        <pt x="735" y="-19" on="0"/>
        <pt x="551" y="-19" on="1"/>
        <pt x="349" y="-19" on="0"/>
        <pt x="98" y="154" on="0"/>
        <pt x="98" y="305" on="1"/>
        <pt x="98" y="396" on="0"/>
        <pt x="201" y="524" on="0"/>
        <pt x="300" y="556" on="1"/>
        <pt x="213" y="591" on="0"/>
        <pt x="117" y="713" on="0"/>
        <pt x="117" y="786" on="1"/>
        <pt x="117" y="936" on="0"/>
        <pt x="350" y="1100" on="0"/>
        <pt x="551" y="1100" on="1"/>
        <pt x="734" y="1100" on="0"/>
        <pt x="983" y="925" on="0"/>
        <pt x="978" y="786" on="1"/>
        <pt x="976" y="780" on="1"/>
        <pt x="790" y="780" on="1"/>
        <pt x="790" y="850" on="0"/>
        <pt x="651" y="948" on="0"/>
        <pt x="551" y="948" on="1"/>
        <pt x="435" y="948" on="0"/>
        <pt x="314" y="853" on="0"/>
        <pt x="314" y="786" on="1"/>
        <pt x="314" y="712" on="0"/>
        <pt x="423" y="627" on="0"/>
        <pt x="538" y="627" on="1"/>
        <pt x="747" y="627" on="1"/>
        <pt x="747" y="477" on="1"/>
      </contour>
    </TTGlyph>
    <TTGlyph name="epsilontonos" xMin="98" yMin="-19" xMax="1001" yMax="1656">
      <component glyphName="epsilon" x="0" y="0" flags="0x204"/>
      <component glyphName="tonos" x="299" y="6" flags="0x4"/>
    </TTGlyph>
    <TTGlyph name="equal" xMin="152" yMin="407" xMax="986" yMax="987">
      <contour>
        <pt x="986" y="823" on="1"/>
        <pt x="152" y="823" on="1"/>
        <pt x="152" y="987" on="1"/>
        <pt x="986" y="987" on="1"/>
      </contour>
      <contour>
        <pt x="986" y="407" on="1"/>
        <pt x="152" y="407" on="1"/>
        <pt x="152" y="571" on="1"/>
        <pt x="986" y="571" on="1"/>
      </contour>
    </TTGlyph>
    <TTGlyph name="estimated" xMin="152" yMin="-20" xMax="1171" yMax="1102">
      <contour>
        <pt x="1046" y="94" on="1"/>
        <pt x="959" y="39" on="0"/>
        <pt x="771" y="-20" on="0"/>
        <pt x="676" y="-20" on="1"/>
        <pt x="458" y="-20" on="0"/>
        <pt x="152" y="309" on="0"/>
        <pt x="152" y="541" on="1"/>
        <pt x="152" y="767" on="0"/>
        <pt x="475" y="1102" on="0"/>
        <pt x="676" y="1102" on="1"/>
        <pt x="883" y="1102" on="0"/>
        <pt x="1171" y="792" on="0"/>
        <pt x="1171" y="561" on="1"/>
        <pt x="1171" y="514" on="1"/>
        <pt x="403" y="514" on="1"/>
        <pt x="403" y="186" on="1"/>
        <pt x="458" y="133" on="0"/>
        <pt x="599" y="76" on="0"/>
        <pt x="676" y="76" on="1"/>
        <pt x="771" y="76" on="0"/>
        <pt x="957" y="136" on="0"/>
        <pt x="1044" y="198" on="1"/>
      </contour>
      <contour>
        <pt x="676" y="1008" on="1"/>
        <pt x="602" y="1008" on="0"/>
        <pt x="461" y="943" on="0"/>
        <pt x="403" y="886" on="1"/>
        <pt x="403" y="609" on="1"/>
        <pt x="943" y="609" on="1"/>
        <pt x="943" y="895" on="1"/>
        <pt x="889" y="947" on="0"/>
        <pt x="750" y="1008" on="0"/>
      </contour>
    </TTGlyph>
    <TTGlyph name="eta" xMin="143" yMin="-415" xMax="1013" yMax="1102">
      <contour>
        <pt x="319" y="1082" on="1"/>
        <pt x="332" y="932" on="1"/>
        <pt x="386" y="1013" on="0"/>
        <pt x="546" y="1102" on="0"/>
        <pt x="647" y="1102" on="1"/>
        <pt x="824" y="1102" on="0"/>
        <pt x="1013" y="907" on="0"/>
        <pt x="1013" y="683" on="1"/>
        <pt x="1013" y="-415" on="1"/>
        <pt x="816" y="-415" on="1"/>
        <pt x="816" y="679" on="1"/>
        <pt x="816" y="822" on="0"/>
        <pt x="702" y="947" on="0"/>
        <pt x="586" y="947" on="1"/>
        <pt x="501" y="947" on="0"/>
        <pt x="378" y="880" on="0"/>
        <pt x="340" y="820" on="1"/>
        <pt x="340" y="0" on="1"/>
        <pt x="143" y="0" on="1"/>
        <pt x="143" y="1082" on="1"/>
      </contour>
    </TTGlyph>
    <TTGlyph name="etatonos" xMin="143" yMin="-415" xMax="1013" yMax="1657">
      <component glyphName="eta" x="0" y="0" flags="0x204"/>
      <component glyphName="tonos" x="326" y="7" flags="0x4"/>
    </TTGlyph>
    <TTGlyph name="eth" xMin="72" yMin="-21" xMax="1072" yMax="1517">
      <contour>
        <pt x="873" y="1297" on="1"/>
        <pt x="968" y="1193" on="0"/>
        <pt x="1072" y="918" on="0"/>
        <pt x="1072" y="755" on="1"/>
        <pt x="1072" y="535" on="1"/>
        <pt x="1072" y="290" on="0"/>
        <pt x="784" y="-21" on="0"/>
        <pt x="569" y="-21" on="1"/>
        <pt x="351" y="-21" on="0"/>
        <pt x="72" y="259" on="0"/>
        <pt x="72" y="466" on="1"/>
        <pt x="72" y="694" on="0"/>
        <pt x="348" y="978" on="0"/>
        <pt x="561" y="978" on="1"/>
        <pt x="651" y="978" on="0"/>
        <pt x="810" y="904" on="0"/>
        <pt x="862" y="844" on="1"/>
        <pt x="866" y="849" on="1"/>
        <pt x="857" y="958" on="0"/>
        <pt x="772" y="1134" on="0"/>
        <pt x="704" y="1200" on="1"/>
        <pt x="414" y="1035" on="1"/>
        <pt x="337" y="1137" on="1"/>
        <pt x="593" y="1283" on="1"/>
        <pt x="554" y="1305" on="0"/>
        <pt x="471" y="1339" on="0"/>
        <pt x="427" y="1353" on="1"/>
        <pt x="487" y="1517" on="1"/>
        <pt x="566" y="1498" on="0"/>
        <pt x="710" y="1432" on="0"/>
        <pt x="773" y="1386" on="1"/>
        <pt x="991" y="1511" on="1"/>
        <pt x="1068" y="1409" on="1"/>
      </contour>
      <contour>
        <pt x="573" y="133" on="1"/>
        <pt x="706" y="133" on="0"/>
        <pt x="875" y="361" on="0"/>
        <pt x="875" y="535" on="1"/>
        <pt x="875" y="683" on="1"/>
        <pt x="840" y="742" on="0"/>
        <pt x="679" y="823" on="0"/>
        <pt x="561" y="823" on="1"/>
        <pt x="430" y="823" on="0"/>
        <pt x="269" y="615" on="0"/>
        <pt x="269" y="466" on="1"/>
        <pt x="269" y="334" on="0"/>
        <pt x="433" y="133" on="0"/>
      </contour>
    </TTGlyph>
    <TTGlyph name="exclam" xMin="171" yMin="0" xMax="369" yMax="1456">
      <contour>
        <pt x="368" y="478" on="1"/>
        <pt x="171" y="478" on="1"/>
        <pt x="171" y="1456" on="1"/>
        <pt x="368" y="1456" on="1"/>
      </contour>
      <contour>
        <pt x="369" y="0" on="1"/>
        <pt x="171" y="0" on="1"/>
        <pt x="171" y="204" on="1"/>
        <pt x="369" y="204" on="1"/>
      </contour>
    </TTGlyph>
    <TTGlyph name="exclamdbl" xMin="171" yMin="0" xMax="908" yMax="1456">
      <component glyphName="exclam" x="0" y="0" flags="0x4"/>
      <component glyphName="exclam" x="539" y="0" flags="0x4"/>
    </TTGlyph>
    <TTGlyph name="exclamdown" xMin="144" yMin="-374" xMax="341" yMax="1082">
      <contour>
        <pt x="341" y="-374" on="1"/>
        <pt x="144" y="-374" on="1"/>
        <pt x="144" y="604" on="1"/>
        <pt x="341" y="604" on="1"/>
      </contour>
      <contour>
        <pt x="341" y="876" on="1"/>
        <pt x="144" y="876" on="1"/>
        <pt x="144" y="1082" on="1"/>
        <pt x="341" y="1082" on="1"/>
      </contour>
    </TTGlyph>
    <TTGlyph name="f" xMin="56" yMin="0" xMax="713" yMax="1581">
      <contour>
        <pt x="225" y="0" on="1"/>
        <pt x="225" y="936" on="1"/>
        <pt x="56" y="936" on="1"/>
        <pt x="56" y="1082" on="1"/>
        <pt x="225" y="1082" on="1"/>
        <pt x="225" y="1219" on="1"/>
        <pt x="225" y="1392" on="0"/>
        <pt x="406" y="1581" on="0"/>
        <pt x="568" y="1581" on="1"/>
        <pt x="602" y="1581" on="0"/>
        <pt x="671" y="1570" on="0"/>
        <pt x="713" y="1560" on="1"/>
        <pt x="689" y="1410" on="1"/>
        <pt x="671" y="1414" on="0"/>
        <pt x="620" y="1420" on="0"/>
        <pt x="592" y="1420" on="1"/>
        <pt x="506" y="1420" on="0"/>
        <pt x="422" y="1317" on="0"/>
        <pt x="422" y="1219" on="1"/>
        <pt x="422" y="1082" on="1"/>
        <pt x="647" y="1082" on="1"/>
        <pt x="647" y="936" on="1"/>
        <pt x="422" y="936" on="1"/>
        <pt x="422" y="0" on="1"/>
      </contour>
    </TTGlyph>
    <TTGlyph name="fi" xMin="28" yMin="0" xMax="981" yMax="1581">
      <contour>
        <pt x="198" y="0" on="1"/>
        <pt x="198" y="936" on="1"/>
        <pt x="28" y="936" on="1"/>
        <pt x="28" y="1082" on="1"/>
        <pt x="198" y="1082" on="1"/>
        <pt x="198" y="1199" on="1"/>
        <pt x="198" y="1381" on="0"/>
        <pt x="411" y="1581" on="0"/>
        <pt x="600" y="1581" on="1"/>
        <pt x="667" y="1581" on="0"/>
        <pt x="797" y="1550" on="0"/>
        <pt x="885" y="1520" on="1"/>
        <pt x="851" y="1360" on="1"/>
        <pt x="798" y="1381" on="0"/>
        <pt x="678" y="1411" on="0"/>
        <pt x="615" y="1411" on="1"/>
        <pt x="498" y="1411" on="0"/>
        <pt x="395" y="1307" on="0"/>
        <pt x="395" y="1199" on="1"/>
        <pt x="395" y="1082" on="1"/>
        <pt x="610" y="1082" on="1"/>
        <pt x="610" y="936" on="1"/>
        <pt x="395" y="936" on="1"/>
        <pt x="395" y="0" on="1"/>
      </contour>
      <contour>
        <pt x="981" y="0" on="1"/>
        <pt x="783" y="0" on="1"/>
        <pt x="783" y="1082" on="1"/>
        <pt x="981" y="1082" on="1"/>
      </contour>
    </TTGlyph>
    <TTGlyph name="five" xMin="152" yMin="-21" xMax="1043" yMax="1456">
      <contour>
        <pt x="175" y="657" on="1"/>
        <pt x="259" y="1456" on="1"/>
        <pt x="988" y="1456" on="1"/>
        <pt x="988" y="1281" on="1"/>
        <pt x="426" y="1281" on="1"/>
        <pt x="378" y="872" on="1"/>
        <pt x="424" y="906" on="0"/>
        <pt x="537" y="951" on="0"/>
        <pt x="611" y="953" on="1"/>
        <pt x="812" y="955" on="0"/>
        <pt x="1043" y="689" on="0"/>
        <pt x="1043" y="464" on="1"/>
        <pt x="1043" y="245" on="0"/>
        <pt x="808" y="-21" on="0"/>
        <pt x="583" y="-21" on="1"/>
        <pt x="398" y="-21" on="0"/>
        <pt x="152" y="181" on="0"/>
        <pt x="157" y="377" on="1"/>
        <pt x="159" y="383" on="1"/>
        <pt x="337" y="383" on="1"/>
        <pt x="337" y="264" on="0"/>
        <pt x="474" y="133" on="0"/>
        <pt x="583" y="133" on="1"/>
        <pt x="708" y="133" on="0"/>
        <pt x="846" y="309" on="0"/>
        <pt x="846" y="462" on="1"/>
        <pt x="846" y="602" on="0"/>
        <pt x="706" y="782" on="0"/>
        <pt x="583" y="782" on="1"/>
        <pt x="467" y="782" on="0"/>
        <pt x="363" y="712" on="0"/>
        <pt x="339" y="640" on="1"/>
      </contour>
    </TTGlyph>
    <TTGlyph name="five.lnum" xMin="167" yMin="-21" xMax="1058" yMax="1456">
      <contour>
        <pt x="190" y="657" on="1"/>
        <pt x="274" y="1456" on="1"/>
        <pt x="1003" y="1456" on="1"/>
        <pt x="1003" y="1281" on="1"/>
        <pt x="441" y="1281" on="1"/>
        <pt x="393" y="872" on="1"/>
        <pt x="439" y="906" on="0"/>
        <pt x="552" y="951" on="0"/>
        <pt x="626" y="953" on="1"/>
        <pt x="827" y="955" on="0"/>
        <pt x="1058" y="689" on="0"/>
        <pt x="1058" y="464" on="1"/>
        <pt x="1058" y="245" on="0"/>
        <pt x="823" y="-21" on="0"/>
        <pt x="598" y="-21" on="1"/>
        <pt x="413" y="-21" on="0"/>
        <pt x="167" y="181" on="0"/>
        <pt x="172" y="377" on="1"/>
        <pt x="174" y="383" on="1"/>
        <pt x="353" y="383" on="1"/>
        <pt x="353" y="264" on="0"/>
        <pt x="489" y="133" on="0"/>
        <pt x="598" y="133" on="1"/>
        <pt x="723" y="133" on="0"/>
        <pt x="861" y="309" on="0"/>
        <pt x="861" y="462" on="1"/>
        <pt x="861" y="603" on="0"/>
        <pt x="721" y="782" on="0"/>
        <pt x="598" y="782" on="1"/>
        <pt x="482" y="782" on="0"/>
        <pt x="378" y="712" on="0"/>
        <pt x="354" y="640" on="1"/>
      </contour>
    </TTGlyph>
    <TTGlyph name="five.smcp" xMin="90" yMin="-17" xMax="936" yMax="1165">
      <contour>
        <pt x="135" y="504" on="1"/>
        <pt x="206" y="1165" on="1"/>
        <pt x="884" y="1165" on="1"/>
        <pt x="884" y="1001" on="1"/>
        <pt x="377" y="1001" on="1"/>
        <pt x="344" y="691" on="1"/>
        <pt x="381" y="716" on="0"/>
        <pt x="495" y="753" on="0"/>
        <pt x="551" y="755" on="1"/>
        <pt x="732" y="758" on="0"/>
        <pt x="936" y="556" on="0"/>
        <pt x="936" y="371" on="1"/>
        <pt x="936" y="193" on="0"/>
        <pt x="726" y="-17" on="0"/>
        <pt x="507" y="-17" on="1"/>
        <pt x="329" y="-17" on="0"/>
        <pt x="90" y="144" on="0"/>
        <pt x="95" y="301" on="1"/>
        <pt x="96" y="307" on="1"/>
        <pt x="285" y="321" on="1"/>
        <pt x="285" y="238" on="0"/>
        <pt x="408" y="135" on="0"/>
        <pt x="507" y="135" on="1"/>
        <pt x="625" y="135" on="0"/>
        <pt x="739" y="259" on="0"/>
        <pt x="739" y="369" on="1"/>
        <pt x="739" y="476" on="0"/>
        <pt x="628" y="601" on="0"/>
        <pt x="527" y="601" on="1"/>
        <pt x="425" y="601" on="0"/>
        <pt x="326" y="544" on="0"/>
        <pt x="302" y="491" on="1"/>
      </contour>
    </TTGlyph>
</ttFont>
